<?xml version="1.0" standalone="no"?>
<!DOCTYPE svg PUBLIC "-//W3C//DTD SVG 1.1//EN" "http://www.w3.org/Graphics/SVG/1.1/DTD/svg11.dtd" >
<svg>
<metadata>
Created by FontForge 20090622 at Mon Jan 14 19:45:21 2019
 By deploy user
</metadata>
<defs>
<font id="Matildascript" horiz-adv-x="910" >
  <font-face 
    font-family="Matilda script"
    font-weight="400"
    font-stretch="normal"
    units-per-em="1000"
    panose-1="3 3 5 2 4 7 5 7 3 3"
    ascent="800"
    descent="-200"
    x-height="221"
    cap-height="819"
    bbox="-120 -222 1518 968"
    underline-thickness="50"
    underline-position="-50"
    unicode-range="U+000D-U+2122"
  />
<missing-glyph horiz-adv-x="275" 
 />
    <glyph glyph-name=".notdef" horiz-adv-x="275" 
 />
    <glyph glyph-name="nonmarkingreturn" unicode="&#xd;" horiz-adv-x="0" 
 />
    <glyph glyph-name="space" unicode=" " horiz-adv-x="275" 
 />
    <glyph glyph-name="exclam" unicode="!" horiz-adv-x="228" 
d="M252 686q0 -9 -3 -19l-178 -581l-16 5l114 580q4 18 15 35t32 17q15 0 25.5 -10t10.5 -27zM93 23q0 -18 -12.5 -27t-28.5 -9q-18 0 -35 12t-17 33q0 17 13.5 26t28.5 9q19 0 35 -12.5t16 -31.5z" />
    <glyph glyph-name="quotedbl" unicode="&#x22;" horiz-adv-x="258" 
d="M338 759q0 -5 -2 -13q-3 -14 -12.5 -32l-21 -41t-24 -51.5t-21.5 -63.5h-16q4 23 5.5 42t1.5 36q0 30 -3 52.5t-3 41.5q0 6 0.5 12t1.5 11q5 24 21 38.5t34 14.5q16 0 27.5 -13.5t11.5 -33.5zM217 759q0 -3 -0.5 -6.5t-0.5 -6.5q-3 -14 -12.5 -32l-21.5 -41t-24.5 -51.5
t-21.5 -63.5h-16q4 23 5.5 42t1.5 36q0 30 -2.5 52.5t-2.5 41.5v12t2 11q5 24 20.5 38.5t33.5 14.5q16 0 27.5 -13.5t11.5 -33.5z" />
    <glyph glyph-name="numbersign" unicode="#" horiz-adv-x="450" 
d="M393 117l-98 33l-36 -152h-48l49 164l-90 29l-45 -193h-48l60 204l-83 28l4 16l84 -28l31 105l-119 40l4 15l119 -40l45 152h18l-38 -160l98 -32l56 192h18l-47 -201l66 -22l-5 -16l-65 22l-25 -107l100 -33zM199 314l-25 -107l90 -30l31 105z" />
    <glyph glyph-name="dollar" unicode="$" horiz-adv-x="401" 
d="M364 143q0 -24 -12.5 -42t-34 -30.5t-50 -19.5t-60.5 -8l-34 -161h-17l34 161q-30 1 -57 9l-36 -170h-17l37 175q-42 15 -67.5 42.5t-25.5 60.5q0 16 6.5 30.5t21.5 14.5q18 0 22 -16q0 -16 -15 -16q-8 0 -13 4q-4 -7 -4 -19q0 -55 79 -84l36 167q-16 6 -33.5 15.5
t-32 22t-24 28t-9.5 34.5q0 21 11.5 37t30.5 27t44 16.5t52 5.5l34 154h17l-34 -155q32 -2 57 -10l36 165h17l-37 -170q31 -12 52.5 -32.5t26.5 -43.5q0 -10 -5 -15.5t-13 -5.5q-12 0 -17 12.5t-14 28.5q-5 9 -13.5 18t-21.5 14l-26 -124q21 -8 40.5 -20t34.5 -27
t24.5 -33.5t9.5 -39.5zM266 395q-27 9 -57 12l-25 -117q11 -6 25.5 -10.5t29.5 -10.5l27 126v0zM192 407q-30 -2 -54 -14t-24 -37q0 -34 55 -59l23 110v0zM314 131q0 26 -22 45.5t-49 31.5l-31 -145q45 5 73.5 23t28.5 45zM227 214l-27 10t-28 11l-35 -165q13 -3 27 -5
t31 -2l32 151v0z" />
    <glyph glyph-name="percent" unicode="%" horiz-adv-x="471" 
d="M435 168q0 -24 -8.5 -49.5t-23.5 -47.5t-37 -36t-49 -14q-29 0 -44 20.5t-15 47.5l-1 4q0 23 8 49t22.5 47.5t35.5 36t47 14.5q27 0 45.5 -20.5t19.5 -47.5v-4v0zM391 140q0 9 -2.5 20t-7.5 20.5t-13 16t-18 6.5q-14 0 -24 -9t-16.5 -22t-10 -28t-3.5 -27
q0 -19 10.5 -37.5t32.5 -18.5q13 0 23 8t16.5 20t9.5 26t3 25zM136 -60h-71l252 477q-24 -18 -53.5 -27.5t-60.5 -9.5q10 -16 10 -37v-4q0 -24 -8.5 -50t-23.5 -47.5t-36.5 -35.5t-48.5 -14q-29 0 -44 20.5t-16 47.5v4q0 23 8 49t22.5 47.5t35 36t46.5 14.5q12 0 24 -2.5
t24 -2.5q45 0 84.5 18.5t65.5 55.5h28zM170 310q0 9 -2.5 20.5t-7.5 21t-13 16t-18 6.5q-14 0 -24 -9t-16.5 -22.5t-10 -28.5t-3.5 -27q0 -18 10.5 -36.5t32.5 -18.5q13 0 23 8t16.5 20t9.5 25.5t3 24.5z" />
    <glyph glyph-name="ampersand" unicode="&#x26;" horiz-adv-x="641" 
d="M605 119q0 -34 -14 -60.5t-37.5 -45t-53.5 -28t-61 -9.5q-63 0 -117 34q-48 -30 -106 -30q-37 0 -71.5 12t-61.5 33.5t-43 53t-16 70.5q0 43 20.5 74t52.5 52.5t70 34.5t74 19q14 32 35.5 61.5t48.5 52t59.5 35.5t70.5 13v-6q0 -37 -15.5 -65.5t-40.5 -49.5t-56.5 -34
t-63.5 -18q-6 -23 -8.5 -45.5t-2.5 -45.5q0 -51 15 -101t53 -86q37 31 59 77l15 -8q-11 -23 -26.5 -43t-35.5 -37q41 -32 93 -32q55 0 88 31.5t33 87.5q0 22 -7.5 43.5t-21 38t-33 26.5t-43.5 10q-27 0 -47 -13.5t-28 -39.5l-16 5q8 35 33.5 52.5t60.5 17.5q31 0 57.5 -9
t46 -26.5t30.5 -43t11 -58.5zM405 456q-46 -9 -76 -43t-44 -76q46 11 80.5 40t39.5 79zM305 21q-43 32 -68.5 78t-25.5 100q0 29 5.5 57t16.5 55q-31 -7 -58.5 -18.5t-48.5 -30t-33 -44t-12 -60.5q0 -31 11 -59.5t30.5 -50.5t46.5 -35t59 -13q20 0 40 5.5t37 15.5z" />
    <glyph glyph-name="quotesingle" unicode="'" horiz-adv-x="137" 
d="M217 759q0 -3 -0.5 -6.5t-0.5 -6.5q-3 -14 -12.5 -32l-21.5 -41t-24.5 -51.5t-21.5 -63.5h-16q4 23 5.5 42t1.5 36q0 30 -2.5 52.5t-2.5 41.5v12t2 11q5 24 20.5 38.5t33.5 14.5q16 0 27.5 -13.5t11.5 -33.5z" />
    <glyph glyph-name="parenleft" unicode="(" horiz-adv-x="272" 
d="M352 694q-54 -58 -103 -123t-86 -136.5t-59 -149t-22 -159.5q0 -70 15.5 -138t42.5 -132l-13 -9q-60 60 -89.5 137.5t-29.5 162.5t26.5 166t71.5 153t105.5 133.5t129.5 107.5l11 -13v0z" />
    <glyph glyph-name="parenright" unicode=")" horiz-adv-x="272" 
d="M264 407q0 -86 -26.5 -166.5t-71.5 -152.5t-105.5 -133.5t-129.5 -107.5l-11 13q54 58 103 123t86 136.5t59 148.5t22 159q0 70 -15 138.5t-43 132.5l13 9q60 -61 89.5 -138t29.5 -162z" />
    <glyph glyph-name="asterisk" unicode="*" horiz-adv-x="342" 
d="M306 510q0 -9 -6 -14t-14 -5q-11 0 -20 6q-7 3 -16 12.5l-14 14.5q-24 23 -48 38q1 -14 3 -28.5t7 -28.5q2 -8 7 -21t5 -21q0 -10 -5 -20.5t-17 -10.5q-11 0 -17.5 10.5t-6.5 20.5q0 11 3.5 21.5t5.5 21.5q6 27 6 55q-23 -14 -42 -33q-8 -8 -15 -17t-17 -14q-9 -6 -18 -6
q-8 0 -15.5 5t-7.5 13q0 9 5 15.5t12 10.5q7 5 20 8l21 5q14 4 27.5 9t26.5 12q-27 14 -58 22l-20.5 5t-18.5 7q-7 4 -13 11t-6 15q0 9 6 14t14 5q6 0 10.5 -1.5t9.5 -4.5q10 -6 17.5 -14l15.5 -16q11 -10 22 -18.5t24 -16.5l-4 27t-6 27l-7.5 22t-4.5 23q0 9 5 20t16 11
t17.5 -11t6.5 -20q0 -11 -3 -21t-5 -20q-3 -14 -5 -29t-2 -30q12 8 23 17t21 20q6 5 15 15t16 14q10 5 18 5q9 0 15.5 -4.5t6.5 -13.5q0 -17 -17 -27q-8 -5 -21 -7.5t-22 -5.5q-25 -6 -50 -20q13 -7 25.5 -11.5t25.5 -8.5q10 -2 23.5 -5t21.5 -8q6 -4 12 -11t6 -15z" />
    <glyph glyph-name="plus" unicode="+" horiz-adv-x="402" 
d="M226 216v-146h-50v146h-146v50h146v146h50v-146h146v-50h-146z" />
    <glyph glyph-name="comma" unicode="," horiz-adv-x="174" 
d="M138 28q0 -24 -12.5 -49t-31 -48.5t-40 -43.5t-39.5 -32l-9 14q26 23 43 55t28 64q-12 2 -22 10.5t-10 21.5q0 21 18 34t38 13q16 0 26.5 -11.5t10.5 -27.5z" />
    <glyph glyph-name="hyphen" unicode="-" horiz-adv-x="210" 
d="M186 151h-150l8 33h150z" />
    <glyph glyph-name="period" unicode="." horiz-adv-x="153" 
d="M117 23q0 -17 -12.5 -26.5t-28.5 -9.5q-18 0 -35 12.5t-17 32.5q0 17 12.5 26t29.5 9t34 -12t17 -32z" />
    <glyph glyph-name="slash" unicode="/" horiz-adv-x="325" 
d="M28 -145h-88l439 863h29z" />
    <glyph glyph-name="zero" unicode="0" horiz-adv-x="388" 
d="M364 336q0 -65 -19 -127t-51 -110.5t-73.5 -78t-85.5 -29.5q-31 0 -52.5 12.5t-34.5 32t-18.5 44t-5.5 47.5q0 64 18.5 128t50 115.5t73.5 83.5t89 32q33 0 54.5 -15t33.5 -37.5t16.5 -48.5t4.5 -49zM300 399q0 41 -12.5 54t-33.5 13q-17 0 -34 -8.5t-34.5 -34t-35.5 -71
t-36 -118.5q-14 -55 -20 -93t-6 -64q0 -42 13.5 -54t33.5 -12q17 0 34 8t34.5 32.5t35 69t35.5 117.5q14 57 20 96t6 65z" />
    <glyph glyph-name="one" unicode="1" horiz-adv-x="213" 
d="M225 468q-13 -11 -18 -30l-42 -166.5l-28 -111.5l-17 -68t-8.5 -35.5t-3 -13.5l-0.5 -2q0 -11 12.5 -20.5t20.5 -14.5l-5 -15q-19 3 -35.5 7.5t-32.5 15.5q-18 -9 -36 -14t-38 -9l-6 16l15 7.5t17.5 10t14.5 11.5t8 12l93 369l-44 -25l-9 13l110 78h26l6 -15v0z" />
    <glyph glyph-name="two" unicode="2" horiz-adv-x="436" 
d="M423 380q0 -41 -20 -72t-51.5 -55t-69 -42l-71.5 -33l-50.5 -23t-44.5 -24.5t-39 -30.5t-32 -40q32 20 73 20q28 0 48.5 -9t37.5 -20.5t35 -20.5t42 -9q29 0 53 13.5t24 35.5q0 9 -5 15.5t-12 10.5t-15.5 5.5t-15.5 1.5q-17 0 -34 -8.5t-27 -23.5l-15 4q0 14 7 25t18 18
t24.5 10.5t26.5 3.5t26 -3.5t23.5 -10.5t17.5 -18.5t7 -26.5q0 -22 -12.5 -37.5t-32.5 -25.5t-45 -14.5t-50 -4.5q-28 0 -51.5 8t-44.5 18l-38.5 18t-33.5 8q-24 0 -38.5 -13t-16.5 -36l-21 3q3 41 23.5 73.5t50.5 58.5t64.5 47t66.5 38q25 13 52 29t49.5 36t37 45t14.5 57
q0 40 -22 61t-57 21q-27 0 -51 -11t-42 -29t-28.5 -42t-10.5 -50q0 -7 1.5 -15t5 -15t9.5 -11.5t16 -4.5t22 5.5t22 15.5t16.5 25t6.5 34q0 6 -1 14t-6 15l12 11q33 -20 33 -57q0 -20 -10 -35t-26 -25.5t-34.5 -16t-35.5 -5.5q-33 0 -56.5 20t-23.5 57q0 31 17 56.5t44 43.5
t59.5 28t64.5 10q23 0 47 -5.5t44.5 -18t33.5 -31.5t15 -46z" />
    <glyph glyph-name="three" unicode="3" horiz-adv-x="395" 
d="M395 387q0 -24 -10.5 -44t-27 -36.5t-37 -28t-39.5 -18.5q33 -12 56 -36t23 -62q0 -42 -26.5 -75.5t-59.5 -55.5q-31 -20 -66.5 -30t-71.5 -10q-21 0 -44.5 5t-44 15.5t-34 28t-13.5 42.5q0 22 11 40t28.5 30.5t38.5 19t41 6.5q14 0 27.5 -3t24.5 -11l-7 -14q-8 4 -22 4
q-15 0 -29.5 -6.5t-25.5 -17.5t-17.5 -25.5t-6.5 -29.5q0 -33 25.5 -49t55.5 -16q32 0 58.5 14t45 37t29 52t10.5 59q0 22 -10 45t-33 31q-15 -3 -30 -5t-30 -2q-3 0 -9.5 0.5t-13 2.5t-11.5 5t-5 8t5.5 8.5t13 5.5t14.5 2.5t11 0.5q14 0 28 -1.5t28 -3.5q18 7 33.5 20.5
t26.5 30t17.5 36t6.5 38.5q0 32 -18.5 51.5t-51.5 19.5q-20 0 -40 -7t-36 -19.5t-25.5 -30t-9.5 -38.5q0 -11 6 -22t20 -11q13 0 23 5.5t19 14.5l12 -11q-11 -17 -29 -25t-38 -8q-27 0 -46 18t-19 46t17 48t42.5 32.5t54 18t51.5 5.5q22 0 46 -4.5t43.5 -15.5t32 -29
t12.5 -45z" />
    <glyph glyph-name="four" unicode="4" horiz-adv-x="408" 
d="M408 164q0 -16 -13.5 -27t-31.5 -17.5t-37 -9.5t-31 -3h-7q-6 -24 -9 -37.5t-5 -19.5l-2 -8q0 -10 13.5 -20.5l19.5 -15.5l-5 -15q-19 3 -35.5 7.5t-32.5 15.5q-18 -9 -36 -14t-38 -9l-6 16q7 3 16 7.5t17 10t14 11.5t8 12l16 63q-27 3 -54 9.5t-54 6.5q-17 0 -28.5 -1.5
t-22 -5t-20.5 -8.5l-23 -11l-21 17q13 8 26 13.5t29 9.5q39 24 77 56q26 23 52 52.5t46.5 63.5t33 70.5t12.5 74.5l93 39q-17 -91 -66 -161.5t-118 -129.5q-20 -17 -39.5 -31.5t-40.5 -27.5h9q29 0 57 -7t57 -9l31 120l76 41l-42 -167q8 1 19.5 3.5t22.5 7.5t19.5 12.5
t11.5 18.5q0 7 -5 12t-11.5 8t-14 5t-12.5 3l1 17q10 0 24 -2.5t27.5 -8t23 -15t9.5 -22.5z" />
    <glyph glyph-name="five" unicode="5" horiz-adv-x="420" 
d="M420 471q-5 -21 -21 -35.5t-36 -23.5t-42.5 -13t-40.5 -4q-35 0 -65 8t-54 34l-38 -149q21 19 47 28t54 9q57 0 93.5 -31t36.5 -91q0 -45 -19.5 -84t-51.5 -67.5t-73.5 -44.5t-84.5 -16q-18 0 -39.5 4t-40.5 13.5t-32 25t-13 37.5q0 20 11 35.5t28 26t36.5 15.5t36.5 5
q13 0 26 -2.5t24 -9.5l-6 -14q-11 3 -22 3q-27 0 -50 -19t-23 -48q0 -14 7.5 -24t19 -16.5t24.5 -9.5t25 -3q31 0 53 13t38 33.5t26 46t17 51.5q5 20 8.5 40.5t3.5 41.5q0 31 -13 50t-47 19q-49 0 -75.5 -24t-38.5 -71h-28l64 255h20q14 -19 36.5 -31t45.5 -12
q14 0 29.5 3.5t29 10.5t23 18t11.5 27l80 -10v0z" />
    <glyph glyph-name="six" unicode="6" horiz-adv-x="398" 
d="M398 422q0 -18 -9.5 -30t-23.5 -19.5t-30.5 -11t-31.5 -3.5h-11.5t-10.5 1v17q22 2 42 14t20 37q0 19 -17.5 27t-33.5 8q-38 0 -65.5 -19t-47 -47.5t-32.5 -63t-22 -64.5q23 22 51 35t60 13q51 0 83 -31.5t32 -82.5q0 -38 -16.5 -76t-44.5 -68t-64.5 -48.5t-75.5 -18.5
q-34 0 -58 12.5t-39 33.5t-22 48.5t-7 57.5q0 36 8 73t23 71.5t36 65.5t47 56q32 31 72.5 51.5t86.5 20.5q13 0 30.5 -2.5t33 -9.5t26.5 -18t11 -29zM286 231q0 27 -11.5 46t-41.5 19q-32 0 -59 -16.5t-47 -39.5l-7.5 -11l-7.5 -11q-3 -9 -6.5 -25.5t-6 -35.5t-4 -37
t-1.5 -28q0 -15 2 -29.5t8 -26.5t17 -19t29 -7q32 0 57 25t42.5 60t27 72.5t9.5 63.5z" />
    <glyph glyph-name="seven" unicode="7" horiz-adv-x="398" 
d="M410 475q-3 -11 -7 -21t-13 -18q-12 -37 -38 -66l-52 -56q-54 -54 -94 -110.5t-59 -132.5q-1 -4 -1 -12q0 -16 8.5 -30t21.5 -23l-5 -15q-24 4 -38.5 10.5t-34.5 20.5q-22 -11 -45.5 -18.5t-47.5 -12.5l-5 16q7 3 17 8t20 12t17.5 14.5t9.5 15.5l6 19.5t7 19.5
q19 48 50 88.5t69 75.5q20 19 42 36l43.5 35t41.5 38t35 43q-32 -17 -67 -17q-30 0 -50 9t-36 19.5l-31 19.5t-35 9q-10 0 -20.5 -2.5t-19.5 -8t-14.5 -13.5t-5.5 -20q0 -17 16 -23t30 -6q33 0 54 30l15 -4v-4q0 -14 -8 -23.5t-20 -16.5t-26 -10t-25 -3t-22.5 2.5t-21.5 8.5
t-16 15t-6 22q0 23 13 39.5t32.5 26.5t41.5 14.5t41 4.5q30 0 51 -8.5t37.5 -19l31 -19t31.5 -8.5q26 0 38 13t19 36h25v0z" />
    <glyph glyph-name="eight" unicode="8" horiz-adv-x="412" 
d="M388 385q0 -22 -9 -42t-23.5 -36.5t-33.5 -29.5t-38 -20q30 -14 48.5 -39.5t18.5 -59.5q0 -36 -18.5 -66.5t-47 -53t-63 -35t-67.5 -12.5q-25 0 -48.5 7.5t-42 21.5t-29.5 35t-11 48q0 28 11.5 52.5t30 45t42 35.5t47.5 23q-23 12 -37 33.5t-14 48.5q0 31 16 56.5
t40.5 44t54.5 29t58 10.5q21 0 42 -6t37 -18t26 -30t10 -42zM330 394q0 28 -13.5 47.5t-43.5 19.5q-24 0 -45 -13t-36 -32.5t-23.5 -43.5t-8.5 -46q0 -29 15 -44.5t44 -15.5q25 0 45.5 11.5t35 29.5t22.5 41t8 46zM282 168q0 31 -14.5 55t-48.5 24q-28 0 -51.5 -16
t-41 -40.5t-27 -53t-9.5 -53.5q0 -32 16 -51.5t49 -19.5q29 0 52.5 14.5t40 37t25.5 50t9 53.5z" />
    <glyph glyph-name="nine" unicode="9" horiz-adv-x="393" 
d="M369 331q0 -34 -8 -72.5t-23.5 -76.5t-37.5 -72.5t-50.5 -61t-62.5 -42t-73 -15.5q-14 0 -31.5 2.5t-33 9.5t-26.5 18t-11 29t9.5 30t23.5 20t31 11.5t32 3.5q5 0 10.5 -0.5t10.5 -1.5v-16q-21 -2 -41.5 -14t-20.5 -37q0 -20 17.5 -28t33.5 -8q37 0 62 20t42 49t27.5 63
l18.5 62q-22 -23 -50.5 -36t-60.5 -13q-51 0 -83 32t-32 83q0 18 5 40q9 35 26.5 66t42.5 54.5t57 37t70 13.5q33 0 57 -12t39.5 -33t22.5 -48t7 -57zM299 380q0 15 -2 29.5t-8 26.5t-17 19t-29 7q-33 0 -58.5 -24.5t-43 -59t-26 -72.5t-8.5 -65q0 -26 11 -46t42 -20
q33 0 61 18t47 43q3 5 7 10t6 10q4 9 7 26t5.5 35t4 35t1.5 28z" />
    <glyph glyph-name="colon" unicode=":" horiz-adv-x="178" 
d="M142 204q0 -17 -12.5 -26.5t-28.5 -9.5q-18 0 -35 12.5t-17 32.5q0 17 12.5 26t28.5 9q18 0 35 -12t17 -32zM97 23q0 -17 -13 -26.5t-29 -9.5q-18 0 -34.5 12.5t-16.5 32.5q0 17 12.5 26t28.5 9q18 0 35 -12t17 -32z" />
    <glyph glyph-name="semicolon" unicode=";" horiz-adv-x="194" 
d="M158 204q0 -17 -12.5 -26.5t-28.5 -9.5q-18 0 -35 12.5t-17 32.5q0 17 12.5 26t29.5 9t34 -12t17 -32zM114 28q0 -24 -12.5 -49t-31 -48.5t-40 -43.5t-40.5 -32l-9 14q26 23 43.5 55t28.5 64q-12 2 -22 10.5t-10 21.5q0 21 17.5 34t37.5 13q16 0 27 -11.5t11 -27.5z" />
    <glyph glyph-name="less" unicode="&#x3c;" horiz-adv-x="429" 
d="M30 218v45l333 146v-54l-262 -114l262 -115v-53z" />
    <glyph glyph-name="equal" unicode="=" horiz-adv-x="430" 
d="M44 273v49h342v-49h-342zM44 160v49h342v-49h-342z" />
    <glyph glyph-name="greater" unicode="&#x3e;" horiz-adv-x="429" 
d="M66 73v53l262 115l-262 114v54l334 -146v-45z" />
    <glyph glyph-name="question" unicode="?" horiz-adv-x="556" 
d="M576 552q0 -38 -15.5 -71.5t-40 -62t-55.5 -51t-62 -38.5l-123 -65q-48 -26 -85.5 -72t-43.5 -102l-17 1q0 50 19 89.5t49.5 71t68.5 56.5l76 48q28 16 53.5 38.5t45.5 49t32 57t12 64.5q0 61 -36.5 96.5t-97.5 35.5q-43 0 -83 -16t-70.5 -43.5t-49 -65.5t-18.5 -82
q0 -11 2.5 -25t8.5 -26.5t15 -21.5t23 -9q27 0 48.5 11.5t36.5 30t23.5 42t8.5 48.5q0 12 -2 24t-7 23l11 11q22 -14 35 -35.5t13 -47.5q0 -31 -15.5 -54.5t-40 -40t-53.5 -25t-56 -8.5q-25 0 -47 8.5t-38 23.5t-25 36.5t-9 47.5q0 54 28.5 94.5t72 67t95.5 40t98 13.5
q39 0 77.5 -9t69 -28.5t49.5 -51t19 -77.5zM180 23q0 -17 -12.5 -26.5t-28.5 -9.5q-18 0 -35 12.5t-17 32.5q0 17 13 26t29 9q18 0 34.5 -12t16.5 -32z" />
    <glyph glyph-name="at" unicode="@" horiz-adv-x="866" 
d="M875 495q0 -41 -12 -84.5t-33.5 -84.5t-51 -77t-64.5 -63t-73.5 -43t-77.5 -16q-30 0 -47 20t-17 49v12.5t2 12.5l-4 3q-13 -17 -32 -33.5t-41.5 -29.5t-46 -21t-44.5 -8q-36 0 -58 24t-22 60q0 45 25.5 96.5t66.5 95.5t91.5 73t100.5 29q32 0 54 -23.5t30 -55.5l50 41
l12 -10l-56 -115l-53 -117q-3 -8 -5 -16t-2 -18q0 -38 39 -38q16 0 31.5 6.5t27.5 14.5q32 21 58 50t44 63.5t27.5 72t9.5 75.5q0 66 -24.5 115.5t-66 82.5t-96.5 49.5t-116 16.5q-92 0 -170 -31.5t-135 -87t-89 -130t-32 -159.5q0 -76 28.5 -137.5t79 -105t120 -67.5
t152.5 -24q61 0 120 15.5t114 41.5l5 -9q-78 -48 -159.5 -72t-172.5 -24q-75 0 -138 25t-109 70t-71.5 107.5t-25.5 136.5q0 71 21 136.5t58.5 122.5t89 103.5t112 80t127.5 52t136 18.5q62 0 119 -17t100 -51t68.5 -85t25.5 -118zM580 418q0 26 -14.5 48t-43.5 22
q-32 0 -66 -25t-62 -61t-46 -75.5t-18 -69.5q0 -23 14 -44t40 -21q36 0 71 23t62.5 57t45 73.5t17.5 72.5z" />
    <glyph glyph-name="A" unicode="A" horiz-adv-x="959" 
d="M1042 782q-21 -5 -35.5 -20.5t-24 -36t-16 -42.5t-10.5 -40l-136 -551q-5 -20 -5 -32q0 -8 3 -15.5t12 -7.5q12 0 23 5.5t20.5 14t18 17.5l15.5 16l12 -11q-11 -12 -25.5 -26t-31 -26t-34 -20.5t-34.5 -8.5q-22 0 -30 16t-8 34t6 44l8 34q-14 -17 -34 -27.5t-43 -10.5
q-24 0 -47 10t-34 33l15 7q9 -19 28 -26.5t38 -7.5q18 0 33.5 7.5t27 20.5t18 29t6.5 34q0 26 -10.5 48.5t-27.5 41.5t-38.5 33.5t-42.5 25.5l-32 -88q-21 -59 -55 -107t-79 -82t-100 -52.5t-118 -18.5q-32 0 -71.5 5.5t-74 20.5t-58 41.5t-23.5 68.5q0 45 20 82.5t54 67
t77.5 51.5t90.5 36.5t93.5 22t86.5 7.5q80 0 145 -20l31 94q21 61 59 120t89.5 105t114 74t131.5 28l2 -18v0zM938 756q-41 -13 -77.5 -43.5t-66.5 -69.5t-52.5 -82t-35.5 -81l-42 -120q22 -11 43.5 -25t39 -32t29.5 -40t17 -47l103 426q8 30 18 58.5t24 55.5zM609 363
q-30 9 -64.5 14.5t-73.5 5.5q-34 0 -75.5 -6.5t-84 -20.5t-82.5 -34.5t-71 -48.5t-50 -63t-19 -78q0 -35 19 -57.5t47.5 -36t61 -18.5t59.5 -5q58 0 105.5 20t84.5 54.5t64.5 80.5t45.5 97l33 96v0z" />
    <glyph glyph-name="B" unicode="B" horiz-adv-x="932" 
d="M920 286q0 -52 -19.5 -93t-52 -73t-75.5 -54.5t-90 -37t-95 -21.5t-90 -7h-311v16q37 4 69 21.5t57 43.5t42 58.5t26 67.5l63 253q13 55 46.5 101t78 82.5t96.5 62.5t103 41q-38 20 -92 32t-126 12q-88 0 -172.5 -32.5t-151 -90.5t-107.5 -136.5t-41 -169.5
q0 -62 28.5 -109t81.5 -81l-8 -14q-68 36 -100 96.5t-32 131.5q0 64 21 120.5t57 103.5t84.5 84t104 63t115.5 39.5t118 13.5q86 0 151 -14.5t112 -37.5q19 4 39 6t47 2v-17q-28 0 -61 -6q42 -27 63 -61t21 -72q0 -33 -14 -57.5t-36.5 -42.5t-50.5 -29t-56 -17
q32 -9 60.5 -24t50 -37.5t34 -51.5t12.5 -65zM862 608q0 35 -17 66.5t-54 57.5q-50 -14 -96 -39t-84 -59.5t-65.5 -78t-40.5 -95.5l-64 -257q-7 -27 -19 -54.5t-28.5 -52t-37.5 -45.5t-46 -35h188q66 0 130 16.5t115 51t82.5 89t31.5 130.5q0 41 -13.5 69.5t-37.5 46.5
t-57 26t-71 8q-14 0 -28.5 -1.5t-28.5 -3.5v27q14 -1 28 -1.5t28 -0.5q34 0 67 6t59 21.5t42.5 41.5t16.5 66z" />
    <glyph glyph-name="C" unicode="C" horiz-adv-x="684" 
d="M696 566q0 -63 -22.5 -127t-65 -116.5t-103.5 -85.5t-138 -33q-29 0 -59 8t-54 24t-39.5 40.5t-15.5 58.5q0 35 16.5 68t43.5 56l11 -12q-23 -25 -34 -50.5t-11 -49.5q0 -29 12.5 -52t32.5 -39t45.5 -24.5t52.5 -8.5q62 0 113.5 32t89 82t58 111.5t20.5 121.5
q0 43 -11 82.5t-34 68.5t-60.5 46.5t-89.5 17.5q-76 0 -139.5 -43.5t-109 -112t-71 -152.5t-25.5 -165q0 -73 21 -128t56 -92t80.5 -55.5t94.5 -18.5q37 0 75 11t72.5 33.5t64.5 56.5t52 79l15 -7q-24 -52 -58.5 -90.5t-74.5 -64t-83.5 -38.5t-85.5 -13q-56 0 -108 20.5
t-92.5 61t-65 101.5t-24.5 142q0 57 12.5 116.5t37 114.5t60 103.5t81 84.5t100.5 57t119 21q60 0 105 -19.5t74.5 -52.5t44 -77t14.5 -92z" />
    <glyph glyph-name="D" unicode="D" horiz-adv-x="1028" 
d="M1028 407q0 -82 -36 -159t-108 -136q-63 -51 -150.5 -81.5t-201.5 -30.5h-205v16q37 4 64.5 22.5t46 45t30.5 59t20 64.5l83 353q14 61 55 110t95 81q-82 28 -186 28q-86 0 -167.5 -28t-144.5 -80.5t-101 -126.5t-38 -167q0 -101 57 -165.5t156 -79.5l-2 -16
q-56 5 -102 27.5t-78 58.5t-49.5 84.5t-17.5 105.5q0 97 42.5 173t110.5 128.5t154.5 79.5t174.5 27q63 0 117.5 -8.5t101.5 -24.5q71 34 147 34h11v-17q-35 0 -68.5 -6.5t-63.5 -20.5q55 -22 101.5 -56t80 -79t52.5 -99.5t19 -115.5zM966 421q0 112 -59.5 196t-160.5 125
q-43 -27 -70 -68t-39 -91l-90 -380q-6 -24 -13.5 -50.5t-19 -52t-27.5 -48t-38 -36.5h60q103 0 184 31t139 83q66 59 100 135.5t34 155.5z" />
    <glyph glyph-name="E" unicode="E" horiz-adv-x="748" 
d="M760 667q0 -24 -10.5 -41.5t-27 -29.5t-38 -18t-42.5 -6q-23 0 -47 8l6 15q17 -5 33 -5q14 0 28 4.5t25.5 13.5t18.5 21.5t7 29.5q0 28 -14 49t-36.5 35.5t-52 21.5t-59.5 7q-34 0 -67 -9t-59.5 -27t-42.5 -45t-16 -62q0 -31 12.5 -52t33 -34.5t46.5 -19.5t53 -6v-16h-83
q-58 0 -114.5 -15.5t-101 -47t-72 -79.5t-27.5 -114q0 -59 23.5 -102.5t61.5 -72t87 -42.5t100 -14t99 13t86 38.5t61 62.5t23 84q0 41 -17.5 71t-45.5 49.5t-63.5 29t-71.5 9.5q-26 0 -57 -6.5t-57.5 -20.5t-44.5 -36t-18 -53q0 -16 8 -28t20.5 -20t27 -12t28.5 -4v-17
q-19 0 -40.5 5t-39.5 15.5t-30 26.5t-12 39q0 36 24 61.5t58.5 41t72 23t65.5 7.5q40 0 85 -10t82.5 -32t62 -56t24.5 -83q0 -53 -28 -93.5t-74.5 -68.5t-106 -42t-121.5 -14q-63 0 -123.5 15t-108 46t-76.5 78.5t-29 111.5q0 55 25 107t75 91q54 43 119 58.5t132 15.5h4
q-19 7 -37 17.5t-31.5 25t-21.5 33t-8 40.5q0 40 21 70.5t55 50t77.5 29.5t87.5 10q41 0 79.5 -8.5t68.5 -24.5t48 -39.5t18 -53.5z" />
    <glyph glyph-name="F" unicode="F" horiz-adv-x="757" 
d="M825 723h-129q-50 -11 -87 -91.5t-73 -225.5h109l-4 -17h-110q-16 -65 -27.5 -105.5t-20.5 -65.5t-16.5 -39t-15.5 -25q19 5 39 15t37.5 24.5t29 33t12.5 39.5v14l16 2q1 -5 1 -7.5v-9.5q-2 -27 -17 -49t-36.5 -39t-47.5 -28t-50 -15q-29 -34 -66 -60.5t-79 -44.5
t-86.5 -27t-89.5 -9q-29 0 -58.5 5.5t-55.5 16.5l7 18q23 -13 49.5 -17.5t52.5 -4.5q76 0 146.5 32t119.5 90q-61 5 -114.5 29t-93.5 63.5t-63.5 93t-23.5 116.5q0 84 35.5 146.5t93 104.5t130.5 63t148 21h357l20 24l13 -11zM471 723q-68 0 -134 -17.5t-118 -53.5
t-84 -91.5t-32 -132.5q0 -57 22.5 -106t61 -86t88.5 -59.5t104 -26.5q3 -1 9 -1q9 12 17 27t17.5 40.5t21.5 66.5t28 106h-129l4 17h129q18 70 36.5 122t38.5 89.5t42.5 63t48.5 42.5h-171z" />
    <glyph glyph-name="G" unicode="G" horiz-adv-x="652" 
d="M694 680q0 -30 -14.5 -51t-37 -35t-49.5 -20.5t-51 -6.5q-23 0 -45 6l5 17q6 -2 12.5 -3.5t13.5 -1.5q20 0 41.5 6.5t39 18.5t28.5 30t11 41q0 59 -40.5 87.5t-101.5 28.5t-114.5 -19.5t-98 -52t-79 -76t-58 -92t-36 -99t-12.5 -97.5q0 -42 11.5 -78.5t35 -64t59 -43.5
t84.5 -16q48 0 90.5 17.5t77.5 47t62 68.5t45 82h51l-33 -83t-27 -86l-20 -86q17 -2 33.5 -5t33.5 -8l-5 -16q-16 5 -33 8t-34 5q-15 -60 -47 -108t-76 -81.5t-98.5 -51.5t-113.5 -18h-101q12 67 50 118t91 85.5t116 53t125 20.5l26 108q-44 -39 -98.5 -63.5t-114.5 -24.5
q-65 0 -112 19t-78 52t-45.5 77t-14.5 93q0 48 14 99t40.5 98.5t65 90t88.5 74.5t110.5 50.5t130.5 18.5q41 0 77 -8.5t62.5 -25t42 -41.5t15.5 -58zM480 104q-53 -2 -103.5 -20t-93 -50t-73.5 -76t-44 -98h38q54 0 99 19t80.5 52t60 77.5t36.5 95.5z" />
    <glyph glyph-name="H" unicode="H" horiz-adv-x="882" 
d="M1026 796q-12 -59 -29.5 -107t-46 -87.5t-70.5 -72t-103 -59.5q-27 -94 -49.5 -188l-46.5 -190q-5 -22 -5 -32q0 -8 3 -15.5t12 -7.5q10 0 20.5 5.5t21 14t19.5 17.5l16 16l12 -11l-25 -26t-30.5 -26t-34 -20.5t-34.5 -8.5q-21 0 -30 15.5t-9 35.5q0 12 2 23.5t4 19.5
l82 332q2 5 3 10.5l2 10.5q-45 -16 -90.5 -28.5l-90.5 -25.5q-24 -85 -58.5 -159t-100.5 -137q-54 -51 -111.5 -75t-114.5 -24q-21 0 -42.5 5t-39 15.5t-28 28t-10.5 41.5q0 42 23.5 78t61.5 67q-16 29 -25.5 62.5t-9.5 71.5q0 81 26.5 145t72 112t106 81t128.5 53.5
t139.5 30t139.5 9.5h19q-39 -41 -65 -87t-44.5 -95.5t-32.5 -101l-29 -103.5q46 14 91.5 26.5t90.5 28.5q20 72 49 126.5t62 96.5q46 57 96 83t93 26h10zM960 746q0 15 -7 15q-12 0 -39 -21.5t-61 -80.5q-17 -30 -34.5 -70t-34.5 -94q70 35 111 88t60 128q5 18 5 35z
M615 774q-59 -2 -120 -15.5t-118 -38t-107 -60t-87.5 -81.5t-59 -102.5t-21.5 -122.5q0 -64 24 -110q74 54 164.5 88.5t178.5 58.5l25.5 100t28.5 100t38 95.5t54 87.5zM464 373q-84 -24 -171.5 -58t-159.5 -86q39 -63 110 -80l-3 -16q-38 8 -69.5 30t-53.5 54
q-35 -29 -56 -61.5t-21 -69.5q0 -22 10 -36t26 -22.5t35 -12t36 -3.5q69 0 121.5 35.5t91 89.5t64 117.5t40.5 118.5z" />
    <glyph glyph-name="I" unicode="I" horiz-adv-x="530" 
d="M650 784q-30 -19 -53.5 -47.5t-31.5 -63.5l-114 -456q23 10 41 29t18 45v9l16 2q1 -3 1 -12q0 -34 -25.5 -58.5t-57.5 -34.5q-18 -45 -50 -81t-73 -61t-88 -38t-95 -13q-69 0 -138 12l3 16q48 -9 101 -9q45 0 87.5 10t78.5 30.5t64.5 52.5t46.5 76q-55 4 -104.5 25
t-87 56t-59.5 83t-22 105q0 66 29.5 127t78.5 108t111.5 75t127.5 28h191zM460 783q-61 0 -117.5 -26.5t-100 -70.5t-69.5 -100.5t-26 -117.5q0 -52 18 -97.5t50 -80t76 -56t96 -25.5q2 7 5 14.5t5 17.5l108 436q8 30 24.5 57.5t39.5 48.5h-109z" />
    <glyph glyph-name="J" unicode="J" horiz-adv-x="559" 
d="M659 785q-31 -19 -54 -47.5t-31 -63.5l-94 -378q47 27 81 66l12 -11q-20 -23 -45 -42t-54 -34l-31 -127q-13 -52 -43.5 -102.5t-73 -91t-95 -65.5t-109.5 -25q-32 0 -61 4t-61 10q29 69 87.5 114t131.5 60l5 -16q-52 -19 -96.5 -57t-64.5 -90q13 -3 25.5 -4t24.5 -1
q49 0 92 18.5t76.5 50t58 74t36.5 90.5l33 130q-47 -14 -87 -14q-50 0 -92.5 15.5t-74 44.5t-49.5 70.5t-18 92.5q0 87 39 151.5t101.5 107.5t139.5 64t154 21h132l5 -15v0zM536 784q-77 0 -150 -21t-130 -63t-91.5 -105t-34.5 -148q0 -91 51 -144.5t141 -53.5q43 0 92 17
l102 412q8 30 24.5 57.5t39.5 48.5h-44z" />
    <glyph glyph-name="K" unicode="K" horiz-adv-x="864" 
d="M1008 777q-39 -10 -69 -24.5t-53.5 -35t-41.5 -48.5t-33 -65l-29 -75t-32 -73t-41.5 -66.5t-57.5 -56.5q-53 -38 -114 -50q32 -14 56 -37.5t43.5 -52t36.5 -59.5t35 -59q5 -7 13.5 -14.5t16.5 -7.5q22 0 40.5 14t33.5 28l11 -12q-20 -22 -36.5 -37.5t-29.5 -26.5
q-26 -21 -43 -21q-15 0 -28.5 9.5t-25.5 22.5t-21.5 27.5l-16.5 25.5q-14 23 -26.5 47.5l-22.5 44.5l-17.5 34t-21.5 33t-27.5 25t-36.5 10h-13l-15 -59q-13 -51 -39.5 -92t-63 -70t-83 -44.5t-99.5 -15.5q-30 0 -68 12t-65 24l5 15l32 -11t27.5 -9t29 -6t36.5 -2
q47 0 85 16.5t66.5 45t48 66.5t30.5 81l47 181t38 133.5t31.5 95t28 64.5t26.5 43t27 30q-100 -2 -179 -32.5t-139 -81.5q-69 -60 -106 -134t-37 -149q0 -76 46.5 -120t119.5 -52l-1 -16q-45 0 -84 13t-67 37.5t-44 61t-16 84.5q0 79 39.5 154t109.5 132q66 54 151.5 86.5
t187.5 32.5h94l4 -15q-25 -15 -47.5 -44t-46 -83t-49 -139t-57.5 -213q85 0 145.5 40.5t90.5 119.5l54 144q15 39 41 72.5t60 59t73 41.5t81 19z" />
    <glyph glyph-name="L" unicode="L" horiz-adv-x="931" 
d="M967 552q0 -80 -34 -146.5t-90 -113.5t-128 -73t-148 -26q-45 0 -89 9.5t-85 29.5q-14 -35 -34 -66.5t-45 -59.5q49 -5 91 -13t81 -17q49 -11 97 -20.5t103 -9.5q42 0 74 18t58 49l18 -10q-36 -45 -81 -77t-106 -32q-49 0 -95.5 9t-93 21.5l-92.5 25t-94 18.5
q-43 -35 -92 -55.5t-99 -20.5q-44 0 -83 19q20 30 45.5 49.5t55 30.5t62.5 15.5t67 4.5q10 0 19 -0.5t18 -0.5q13 15 26 33t23.5 38t18.5 40.5t11 40.5q-42 32 -69 78.5t-27 100.5q0 62 33 112t84 82l10 -17q-43 -31 -69.5 -78t-26.5 -101q0 -43 18.5 -81.5t49.5 -67.5
q12 97 36 193q14 57 44 113t73 100t98 71t120 27q54 0 99.5 -17.5t78 -49t51 -76.5t18.5 -99zM924 565q0 48 -14 87t-40 66.5t-64 43t-87 15.5q-47 0 -89.5 -19t-75.5 -51t-54.5 -69.5t-35 -78.5t-21.5 -84.5t-15 -86.5l-9.5 -54t-9.5 -51q-2 -8 -4 -15t-5 -15
q38 -21 80 -30.5t85 -9.5q70 0 135 28.5t114.5 76.5t79.5 112t30 135zM228 72q-8 1 -15.5 1h-15.5q-44 0 -88.5 -11.5t-77.5 -43.5q21 -6 44 -6q39 0 78.5 16t74.5 44z" />
    <glyph glyph-name="M" unicode="M" horiz-adv-x="1188" 
d="M1268 787q-56 -56 -100 -131.5t-74.5 -160t-47 -172t-16.5 -165.5q0 -10 1 -29.5t4.5 -39t11.5 -34.5t23 -15q18 0 33.5 13.5t25.5 27.5l21 -14q-7 -10 -18 -23t-23.5 -24t-25.5 -19t-25 -8q-30 0 -47.5 19.5t-26.5 47t-12 57.5t-3 51q0 62 10 127t29 128.5t45.5 123
t59.5 111.5q-93 -109 -164.5 -235t-126.5 -260l-7 -14.5t-15.5 -37t-15.5 -50.5t-8 -55l-61 -20q4 88 17.5 171t34.5 168q25 101 60.5 198.5t83.5 189.5q-41 -29 -73.5 -66.5t-59.5 -81t-49.5 -91l-44.5 -95.5l-9 -20q22 -19 39 -40q18 -25 30 -52l-15 -6q-5 13 -12.5 25
t-15.5 23l-16 18t-18 17q-30 -65 -65.5 -130.5t-85.5 -117.5q-47 -48 -108 -76.5t-146 -28.5q-61 0 -105.5 14.5t-74 38.5t-44 56t-14.5 68q0 48 24 97t70.5 89t114 65.5t154.5 25.5q76 0 146.5 -18t120.5 -52q45 102 85.5 170.5t81.5 114.5q44 50 90 80t99 53l9 -13
q-31 -43 -57.5 -92.5t-49.5 -103.5q-44 -103 -73 -211t-46 -217q35 87 79.5 178t99.5 176t120 161t142 133l34 -17v0zM645 356q-39 27 -98 40.5t-125 13.5q-86 0 -154 -23t-115 -59.5t-72 -80.5t-25 -86q0 -30 12.5 -56.5t38 -46.5t65 -31.5t93.5 -11.5q78 0 137 30t104 78
t78.5 109t60.5 124z" />
    <glyph glyph-name="N" unicode="N" horiz-adv-x="1145" 
d="M1289 798l-23 -81.5t-26 -77t-37.5 -71t-58.5 -63.5q-28 -23 -59.5 -40t-64.5 -25q-12 -43 -28 -90.5t-37.5 -93.5t-49 -89t-62 -78t-76.5 -59.5t-92 -33.5q42 76 70.5 151t36.5 163q5 57 14 119t26 125q14 54 34.5 103.5t48.5 88.5q-54 -21 -93 -64.5t-66.5 -98.5
t-45.5 -113.5t-31 -109.5q45 -39 66 -92l-15 -6q-18 47 -56 80q-20 -71 -57 -134.5t-89 -111.5t-118 -76t-144 -28q-60 0 -104 13t-72.5 34.5t-42 51t-13.5 62.5q0 48 27 98t77.5 91t123 67.5t164.5 26.5q64 0 121 -12.5t99 -38.5q12 42 26 85t33 83.5t43.5 78t57.5 69.5
q46 43 95.5 64.5t100.5 36.5l8 -13q-48 -45 -75 -102t-44 -120t-25 -128l-15 -125q-8 -69 -25.5 -135t-49.5 -127q60 37 120 127q33 51 62 115t50 142q-8 -1 -16 -1.5t-16 -0.5t-14.5 0.5t-14.5 1.5l2 17q5 -1 10.5 -1.5t16.5 -0.5q9 0 18.5 1t18.5 3l3 9l17.5 68.5
t20.5 65.5t29.5 62t43.5 58q64 70 154 91zM1223 767q-47 -18 -79.5 -51.5t-55 -75.5t-37 -88.5t-26.5 -90.5q57 19 91.5 51t55.5 72t31.5 87t19.5 96zM630 364q-36 25 -89 36.5t-113 11.5q-86 0 -155.5 -24.5t-119 -63t-76 -85t-26.5 -89.5q0 -28 11.5 -53t36.5 -44
t63.5 -30t91.5 -11q79 0 140 29.5t106.5 78.5t77 112.5t52.5 131.5z" />
    <glyph glyph-name="O" unicode="O" horiz-adv-x="838" 
d="M822 487q0 -94 -34 -184t-95 -160t-146 -112.5t-187 -42.5q-68 0 -125 21t-98.5 60.5t-65 97t-23.5 130.5q0 75 28 143t78 123q21 56 58 101.5t85 77.5t104 49.5t116 17.5q72 0 128.5 -24t95.5 -66.5t60 -102t21 -129.5zM758 503q0 56 -15.5 107.5t-46 91t-76 63
t-106.5 23.5q-47 0 -88.5 -12t-76.5 -33t-63.5 -49t-49.5 -59q32 22 67 40.5t71 30.5l5 -16q-51 -19 -95.5 -46t-80.5 -69q-11 -26 -19 -56.5t-8 -65.5q0 -34 9.5 -63.5t28.5 -51.5t48 -35t68 -13q31 0 58 13t47.5 34.5t32 50t11.5 58.5q0 32 -15 58t-42 43l11 14
q37 -19 61.5 -50t24.5 -74q0 -36 -16.5 -67t-43 -53t-60 -34.5t-67.5 -12.5q-45 0 -81.5 13t-62.5 37t-40 58t-14 76v10q-15 -38 -23 -78t-8 -85q0 -65 19.5 -118.5t55 -92t84 -59.5t107.5 -21q62 0 115 22.5t96.5 60.5t76.5 88t55.5 104.5t34 110.5t11.5 107z" />
    <glyph glyph-name="P" unicode="P" horiz-adv-x="699" 
d="M435 231q2 5 3 10.5t3 11.5l73 313q12 54 39.5 96t66.5 74q-29 17 -67.5 27t-86.5 10q-91 0 -156.5 -24.5t-108.5 -60.5q-27 -22 -46 -48t-30 -54t-16 -56.5t-5 -55.5q0 -42 12 -74.5t32 -54.5t47 -33.5t56 -11.5q42 0 84 22.5t74 70.5l14 -8q-32 -53 -78 -77.5
t-95 -24.5q-36 0 -70 12.5t-60.5 37t-42.5 60t-16 81.5q0 70 38 131.5t99 106.5t135.5 71t148.5 26q51 0 98.5 -10t87.5 -32q64 34 139 34h12v-17q-78 0 -131 -29q39 -26 63 -68t24 -103q0 -45 -22 -88.5t-64 -78.5q-31 -25 -70.5 -42t-90.5 -22l-23 -104q-2 -6 -3.5 -13
t-4.5 -15q-14 -53 -41 -97t-65.5 -75.5t-86.5 -49t-102 -17.5q-26 0 -57.5 5.5t-59.5 18t-46.5 34.5t-18.5 55q0 30 16.5 50.5t41.5 33t53 18.5t51 6q12 0 23 -0.5t22 -2.5l-3 -17q-17 3 -32 3q-20 0 -41.5 -6t-39.5 -17.5t-30 -29t-12 -40.5q0 -27 14 -44.5t35.5 -27.5
t46 -14t45.5 -4q48 0 85 18.5t64.5 50t46 73t29.5 86.5zM717 571q0 42 -17.5 80t-53.5 67l-3 2q-43 -45 -63 -131l-48 -218q38 6 71.5 22t59 41.5t40 60t14.5 76.5z" />
    <glyph glyph-name="Q" unicode="Q" horiz-adv-x="839" 
d="M839 487q0 -95 -34 -183.5t-94 -157t-143 -110t-182 -41.5q-40 0 -76 6q-10 -20 -29 -42q31 -6 59 -14.5l55 -16.5q42 -13 81.5 -23t81.5 -10t76.5 12.5t64.5 42.5l12 -11q-32 -45 -82 -64t-104 -19q-38 0 -73.5 7t-70.5 17l-70 20.5t-71 17.5q-39 -32 -88 -50t-106 -18
q-25 0 -48 4t-46 11q42 55 101.5 79.5t128.5 24.5q21 0 41 -2t40 -5l16 21t14 22q-51 12 -93 37t-72 62t-46.5 85.5t-16.5 107.5q0 75 27.5 143t78.5 123q21 56 58 100.5t84.5 75.5t103.5 47.5t115 16.5q72 0 128.5 -23t96.5 -64.5t61 -100t21 -128.5zM775 503
q0 56 -15.5 106.5t-46.5 89t-77 61t-107 22.5q-47 0 -88 -11.5t-76 -31t-63 -46.5t-49 -58q32 22 67 40.5t71 30.5l5 -16q-51 -19 -95.5 -46t-80.5 -69q-11 -26 -19 -56.5t-8 -65.5q0 -34 9.5 -63.5t28.5 -51.5t48 -35t68 -13q31 0 58 13t47.5 34.5t32 50t11.5 58.5
q0 32 -15 58t-42 43l11 14q37 -19 61.5 -50t24.5 -74q0 -36 -16.5 -67t-43 -53t-60 -34.5t-67.5 -12.5q-91 0 -144.5 49.5t-53.5 134.5v10q-15 -38 -23 -76.5t-8 -80.5v-6q1 -103 49.5 -174t136.5 -97q19 41 19 94q0 40 -12 76l15 6q14 -44 14 -82q0 -50 -20 -98
q34 -9 76 -9q58 0 108.5 22t92.5 59t75 86t55.5 103t34 109.5t11.5 106.5zM219 -78q-36 6 -77 6q-40 0 -82 -13t-70 -43q14 -3 28 -4t28 -1q49 0 93 14.5t80 40.5z" />
    <glyph glyph-name="R" unicode="R" horiz-adv-x="895" 
d="M943 546q0 -50 -22 -99t-65.5 -89.5t-108 -69.5t-149.5 -39q37 -17 60 -51t45 -73l9.5 -18.5t15 -25t17.5 -22t18 -9.5q10 0 20.5 5.5t20.5 13t19 16t15 15.5l13 -11l-21.5 -24.5t-29.5 -30.5t-32 -26t-29 -11q-24 0 -45 21t-38.5 49.5t-31 58t-22.5 46.5q-12 23 -26 43
t-42 27q-16 -53 -52.5 -98t-85 -79t-104.5 -53t-110 -19q-14 0 -31.5 3t-35.5 8t-36 11.5t-31 13.5l6 15l29.5 -9.5l26.5 -8.5t27 -6t32 -2q55 0 104 18t89.5 49.5t70 75.5t44.5 96l82 284q18 63 54 124.5t91 100.5q-62 21 -144 21q-106 0 -190 -32t-142 -83.5t-88.5 -116
t-30.5 -129.5q0 -35 11.5 -66t32.5 -53.5t51 -36t66 -13.5q29 0 57 11l6 -15q-14 -5 -29.5 -8.5t-35.5 -3.5q-39 0 -75.5 10t-65.5 41q-29 30 -41.5 67.5t-12.5 68.5q0 76 36.5 145.5t103 123t159 85.5t204.5 32q94 0 167 -25q43 19 83 19q13 0 25.5 -2.5t23.5 -6.5l-5 -16
q-22 8 -44 8q-28 0 -56 -11q37 -15 68.5 -38t54.5 -52.5t36.5 -65.5t13.5 -78zM883 535q0 78 -41.5 135t-110.5 86q-21 -17 -37 -39.5t-29 -48t-22.5 -52.5t-16.5 -52l-86 -302q60 0 121 17t110.5 51.5t80.5 85.5t31 119z" />
    <glyph glyph-name="S" unicode="S" horiz-adv-x="734" 
d="M782 690q0 -24 -13 -40.5t-32.5 -27t-42 -15t-41.5 -4.5q-24 0 -51 8l4 16q13 -4 34 -4q15 0 30 4t27 12.5t20 21t8 29.5q0 21 -12 36.5t-30 25.5t-38.5 15t-37.5 5q-26 0 -51.5 -8t-46 -23t-33 -37.5t-12.5 -50.5q0 -26 12.5 -49t29.5 -43q30 -33 64 -66.5t63 -70
t48 -77.5t19 -90q0 -59 -29.5 -110t-79.5 -88.5t-116.5 -58.5t-139.5 -21q-59 0 -115 15t-99.5 43t-70 68t-26.5 90q0 52 24 92.5t62.5 69t85.5 43.5t94 15q60 0 104 -15t72.5 -38.5t42.5 -52.5t14 -57q0 -34 -17 -57.5t-42.5 -38t-56 -21t-57.5 -6.5l-1 16q22 2 47 8.5
t45.5 19t34 32t13.5 47.5q0 33 -17 57t-42.5 39.5t-56 22.5t-58.5 7q-64 0 -113.5 -16t-83 -42t-51 -59t-17.5 -66q0 -41 23 -76t61.5 -60.5t88.5 -40t104 -14.5q61 0 117 18t99 50t68.5 76t25.5 97q0 43 -17 79.5t-42.5 68t-55.5 61t-55.5 59t-42.5 60.5t-17 66q0 39 19 68
t48.5 48t65.5 28.5t70 9.5q22 0 51.5 -5.5t56.5 -17.5t45.5 -32t18.5 -48z" />
    <glyph glyph-name="T" unicode="T" horiz-adv-x="767" 
d="M860 723h-88q-33 0 -63 -22.5t-61 -77t-64.5 -145t-75.5 -226.5q-12 -40 -35 -77q38 12 71 37.5t52 62.5q5 -3 8 -4.5l5 -2.5t2 0q-26 -54 -69.5 -89t-101.5 -46q-60 -67 -144.5 -103.5t-174.5 -36.5q-31 0 -61.5 5.5t-59.5 19.5l7 15h7q23 -13 49.5 -17.5t52.5 -4.5
q75 0 143 31.5t118 87.5q-61 4 -113 29t-90 65.5t-59.5 94t-21.5 114.5q0 84 36 147t94.5 105t132 63.5t148.5 21.5h374l20 24l13 -11zM488 723q-68 0 -134.5 -17.5t-119.5 -54t-85.5 -92.5t-32.5 -133q0 -57 25.5 -104.5t66.5 -82t93 -53.5t105 -20q30 44 44 91
q41 130 73.5 213.5t61.5 135t57.5 77t60.5 40.5h-215z" />
    <glyph glyph-name="U" unicode="U" 
d="M958 802l-21.5 -53.5t-19.5 -62.5l-150 -600q-5 -22 -5 -32q0 -7 2.5 -15t12.5 -8t21 5.5t21 14t19 17.5l16 16l12 -11l-25.5 -26.5t-31 -26.5t-34.5 -20.5t-35 -8.5q-23 0 -30.5 15.5t-7.5 35.5q0 12 2 24t4 20l21 85q-25 -38 -56.5 -70.5t-68.5 -57t-80 -38.5t-90 -14
q-50 0 -90.5 16.5t-70.5 46t-49 69.5t-25 88q-37 13 -65 37.5t-47 56t-29 68.5t-10 75q0 72 33 137.5t96 116.5q58 46 136 73t175 27h207l2 -16q-105 -28 -183.5 -78.5t-132.5 -116.5q-60 -73 -89.5 -158.5t-29.5 -176.5v-20.5t2 -19.5h13q48 0 89 20t70 56l12 -10
q-31 -38 -75.5 -60.5t-95.5 -22.5h-11q6 -39 21.5 -72t40.5 -57t58.5 -37.5t74.5 -13.5q46 0 90.5 21.5t84.5 58.5q38 35 73 81.5t49 103.5l100 401q8 29 11 58t5 59h84zM493 756q-90 0 -165 -25.5t-132 -68.5q-60 -46 -94 -104.5t-34 -121.5q0 -67 33 -123.5t96 -81.5v21
q0 81 29 157t77.5 142t112.5 118.5t133 86.5h-56z" />
    <glyph glyph-name="V" unicode="V" horiz-adv-x="1012" 
d="M1048 570q0 -118 -63.5 -221t-175.5 -181q-62 -44 -131.5 -76t-143 -53t-149 -31t-150.5 -10l-10 24q49 21 70.5 59t32.5 87l4 17q-5 -1 -9 -1h-9q-53 0 -101 17t-85 49t-58.5 76.5t-21.5 100.5q0 70 35 141t104 128q64 54 144.5 80t165.5 26h186l1 -16
q-39 -6 -70.5 -26.5t-56.5 -52t-44.5 -71.5t-34.5 -84t-26.5 -90.5t-20.5 -91l-16.5 -84.5t-14.5 -71q40 11 73 34.5t56 58.5l17 -9q-28 -39 -66.5 -65.5t-84.5 -38.5l-9 -37q-8 -38 -25 -74t-46 -63q133 7 250 48.5t208 110.5q97 73 154 168t57 204q0 54 -13 94.5t-34 69.5
q-25 32 -57 48.5t-65 16.5q-66 0 -108.5 -38t-42.5 -105q0 -35 17.5 -65.5t45.5 -50.5l-9 -12l-2 -3q-34 22 -54 55.5t-20 75.5q0 40 15.5 72.5t41.5 55t61 34.5t73 12q52 0 92 -19.5t67.5 -53t41.5 -77.5t14 -92zM506 786q-57 0 -106 -10t-92 -28q-47 -20 -87.5 -52.5
t-71 -74t-48 -90t-17.5 -100.5q0 -50 18.5 -91.5t50.5 -71.5t75 -46.5t92 -16.5h17q7 29 14.5 66l16 78.5t18.5 85.5t23 88q13 43 28.5 84t35 75.5t43.5 61.5t53 42h-63z" />
    <glyph glyph-name="W" unicode="W" horiz-adv-x="1232" 
d="M1268 595q0 -121 -54 -231t-156 -195q-108 -90 -240.5 -130t-271.5 -41l-10 24q22 9 41 30t34.5 50t28 63.5t22.5 71.5t18 74.5t14 71.5t10.5 63l7.5 50q6 37 13.5 76.5t21 77t34 70t53.5 55.5q-62 -20 -117.5 -58t-100.5 -88.5t-78 -110t-50 -121.5l-35 -119.5
t-47 -113.5q42 8 77.5 30.5t63.5 54.5l13 -10q-64 -82 -168 -99q-33 -52 -75 -86t-102 -52l-8 22q42 17 71 46t52 68q-59 4 -110 29t-89.5 65t-60.5 92t-22 111q0 72 35 142t104 124q60 46 141.5 73.5t190.5 27.5h174l3 -16q-53 -14 -84.5 -44t-51 -69.5t-30 -85
l-20.5 -90.5q30 61 74 117.5t99 99t120 68.5t137 27l3 -16q-49 -24 -80 -63.5t-50 -87.5t-30 -100.5t-20 -103.5l-21 -113.5t-27 -116.5t-37.5 -105.5t-50.5 -78.5q124 13 224 56t175 109q85 75 131.5 173.5t46.5 210.5q0 36 -9.5 71.5t-29.5 64t-50 46.5t-71 18
q-27 0 -50 -9.5t-39 -26t-25 -39t-9 -49.5q0 -53 42 -90l-14 -14q-23 20 -35.5 45t-12.5 59q0 36 14 64.5t37 49t54 31.5t66 11q45 0 81 -17t61.5 -45.5t39.5 -67t14 -80.5zM532 786q-103 0 -181 -27t-135 -72q-63 -51 -94.5 -118.5t-31.5 -140.5q0 -53 19.5 -100t54 -82.5
t80 -58t98.5 -26.5q20 34 34 74.5t25 85t20.5 91.5t20.5 93q10 45 22.5 88t30.5 80t42.5 66t58.5 47h-64z" />
    <glyph glyph-name="X" unicode="X" horiz-adv-x="890" 
d="M970 803l-38 -117t-52 -109.5t-80 -81.5t-121 -32v16q38 0 67.5 15t51.5 39.5t38 56t27.5 66t20.5 68.5l17 63q-68 -8 -123 -45t-95.5 -90.5t-65.5 -117.5t-32 -127h138l-4 -16h-136q-1 -10 -1 -19v-19q0 -48 11.5 -96.5t35 -90.5t59 -74.5t84.5 -47.5l53 48l11 -13
l-103 -91q-42 17 -75.5 44t-58.5 61t-42 74t-26 83q-25 -58 -60 -103q-53 -69 -127.5 -110t-165.5 -41q-25 0 -56 5t-58 17.5t-45.5 33t-18.5 52.5q0 28 16.5 48t40.5 32.5t51.5 18t50.5 5.5q11 0 22 -0.5t22 -2.5l-3 -16q-17 3 -32 3q-19 0 -40 -5.5t-39 -17t-29.5 -28.5
t-11.5 -39q0 -26 13.5 -43t34 -26.5t44 -13t44.5 -3.5q39 0 73.5 11t65 30.5t56.5 46t48 57.5q37 53 60.5 113t34.5 117h-123l4 16h122q7 38 12.5 77t5.5 77q0 42 -10 82.5t-32 71.5t-55.5 50t-81.5 19q-29 0 -57.5 -8.5t-54.5 -23.5q-38 -21 -65.5 -51.5t-46 -66.5
t-27.5 -76.5t-9 -82.5q0 -32 11.5 -65t32 -59.5t49 -43.5t63.5 -17q39 0 66.5 24t43.5 57l18 -9q-19 -42 -51.5 -67.5t-80.5 -25.5q-43 0 -78 19.5t-60 51t-39 70.5t-14 79q0 66 23.5 123t65.5 99.5t98.5 66.5t122.5 24q45 0 84.5 -13.5t69 -39t47 -62.5t18.5 -83
q24 40 57 77t72.5 65t85.5 45t96 17q17 0 33 -1t32 -4z" />
    <glyph glyph-name="Y" unicode="Y" horiz-adv-x="911" 
d="M1031 793q-32 -3 -55 -31.5t-39 -66t-25 -76t-13 -62.5l-60 -338q-17 -95 -54.5 -163t-88.5 -114q-63 -57 -136.5 -81.5t-143.5 -24.5q-21 0 -53 4t-62 14.5t-51.5 29t-21.5 47.5q0 21 13.5 36t33 24t41.5 13.5t38 4.5q14 0 30 -2t30 -7l-5 -15q-11 3 -21 5t-21 2
q-14 0 -28 -3t-25 -10t-18.5 -17.5t-7.5 -26.5q0 -24 15 -39t36.5 -22.5t45.5 -10t41 -2.5q104 0 179 51t120 141q-23 -24 -53.5 -44t-65.5 -20q-31 0 -54 8t-46 19q-27 13 -61 24t-90 11q-27 0 -54 -2.5t-54 -6.5q-20 -2 -40 -2.5t-40 -0.5v16q93 0 174.5 26.5t149.5 89.5
q59 55 92 128t33 156q0 63 -23.5 118.5t-64.5 96.5t-96.5 64.5t-119.5 23.5q-52 0 -95 -17t-74.5 -47.5t-49 -74t-17.5 -95.5q0 -43 15.5 -79.5t43.5 -63.5t65 -42t81 -15q40 0 72 13t54.5 36.5t35 55.5t12.5 71h27q0 -42 -15.5 -79.5t-42.5 -65.5t-63.5 -44t-79.5 -16
q-49 0 -91.5 14.5t-74 42t-49.5 68t-18 92.5q0 62 24 114.5t64.5 90.5t95 59t114.5 21q70 0 130.5 -24t105 -67.5t70 -103t25.5 -129.5q0 -63 -20 -119.5t-54.5 -105t-81.5 -87t-101 -64.5q46 0 79.5 -12t62.5 -25q21 -10 40.5 -17t41.5 -7q33 0 55.5 17.5t38 44t24.5 58.5
t15 62l48 264q4 25 11.5 58.5t19 70t27.5 72t37.5 63.5t49 45.5t61.5 17.5v-16z" />
    <glyph glyph-name="Z" unicode="Z" horiz-adv-x="971" 
d="M971 690q0 -20 -15.5 -32.5t-37 -19.5t-44 -9.5t-36.5 -2.5q-35 0 -68 7t-65 18q-28 -26 -50 -57t-40.5 -64.5t-34 -69l-30.5 -69.5h132l-4 -16h-135l-44 -100q-25 -57 -58 -103.5t-72 -81.5l120 -34t125 -17q55 0 96.5 14.5t69.5 38t41.5 52.5t13.5 58q0 23 -9 44
t-27.5 37t-46 25.5t-63.5 9.5q-27 0 -51 -8t-41.5 -23.5t-28 -37.5t-10.5 -49h-16q0 31 12 59t33 48.5t49 32.5t60 12q40 0 70 -12.5t50 -33.5t30.5 -48.5t10.5 -57.5q0 -42 -18.5 -82.5t-60.5 -69.5q-33 -25 -80 -40t-108 -15q-72 0 -137.5 19l-132.5 39
q-42 -27 -85.5 -41.5t-91.5 -14.5q-12 0 -36 1.5t-47.5 6.5t-41.5 16t-18 31q0 21 22.5 34.5t52.5 21t59.5 10t43.5 2.5q45 0 84.5 -6t75.5 -14q38 40 61.5 88t43.5 99q16 43 36 90h-102l4 16h105q33 77 76 150.5t104 124.5l-72 30t-73 27.5t-75 20.5t-79 8t-82 -12
t-73.5 -36t-52.5 -59t-20 -81q0 -31 12 -57t33 -45.5t48 -30.5t57 -11q31 0 54 10t39 25.5t24 35t8 39.5q0 32 -21 57.5t-63 25.5l2 18q56 0 84.5 -30.5t28.5 -69.5q0 -24 -9.5 -47t-29 -41.5t-48.5 -30t-67 -11.5t-71 13.5t-57 37t-38 56t-14 70.5q0 54 25.5 95.5t65 70
t88.5 43.5t97 15q47 0 88 -9t79 -24t74.5 -34.5l75.5 -40.5q36 23 78 35.5t93 12.5q11 0 27.5 -2t31.5 -8t26 -16t11 -26zM940 693q0 10 -7 15.5t-16.5 8.5t-20 3.5t-17.5 0.5q-40 0 -75 -10t-67 -33q25 -11 51.5 -18t58.5 -7q9 0 24.5 1t30.5 5t26.5 12t11.5 22zM292 59
q-39 11 -80 18t-87 7q-7 0 -23 -1.5t-32.5 -5t-29.5 -10.5t-13 -18q0 -12 16 -18.5t36 -9.5t39 -3.5t25 -0.5q42 0 78.5 10t70.5 32z" />
    <glyph glyph-name="bracketleft" unicode="[" horiz-adv-x="145" 
d="M260 801h-83l-231 -928h83l-4 -17h-145l240 962h145z" />
    <glyph glyph-name="backslash" unicode="\" horiz-adv-x="467" 
d="M272 -144l-165 862h30l223 -862h-88z" />
    <glyph glyph-name="bracketright" unicode="]" horiz-adv-x="145" 
d="M25 -144h-145l4 17h83l232 928h-83l4 17h145z" />
    <glyph glyph-name="asciicircum" unicode="^" horiz-adv-x="262" 
d="M179 556l-78 177l-77 -177h-54l105 239h53l105 -239h-54z" />
    <glyph glyph-name="underscore" unicode="_" horiz-adv-x="499" 
d="M0 -25v24h499v-24h-499z" />
    <glyph glyph-name="grave" unicode="`" horiz-adv-x="369" 
d="M240 251l-77 48q-8 5 -18 12t-10 17q0 7 5 12t13 5q9 0 17.5 -6.5t19.5 -17.5l70 -70h-20z" />
    <glyph glyph-name="a" unicode="a" horiz-adv-x="334" 
d="M304 67q-5 -10 -13 -22t-18.5 -22.5t-22.5 -17.5t-24 -7q-17 0 -24.5 12t-7.5 27q0 3 1 4q-18 -19 -42.5 -31t-50.5 -12q-38 0 -64 23.5t-26 63.5q0 28 14 52.5t36.5 42.5t50.5 28t57 10h110l-40 -159q-3 -9 -3 -17q0 -5 2 -8.5t7 -3.5q7 0 13.5 5t12.5 12.5t10.5 15
l7.5 12.5l14 -8v0zM175 202q-22 0 -43 -10t-37.5 -26.5t-26.5 -37.5t-10 -43q0 -25 13.5 -46t40.5 -21q36 0 62 23.5t34 57.5l25 103h-58z" />
    <glyph glyph-name="b" unicode="b" horiz-adv-x="331" 
d="M307 674q0 -44 -11.5 -83.5t-32.5 -75t-49 -67t-61 -57.5l-51 -201q17 14 37.5 22.5t41.5 8.5q47 0 78 -27t31 -75q0 -28 -12.5 -50t-32.5 -37.5t-45.5 -23.5t-52.5 -8h-135l89 353l-39 -26l-9 14l54 36l39 155q6 24 22.5 52t38.5 52.5t45 40.5t43 16q8 0 10 -6.5
t2 -12.5zM264 617q0 7 -2 15.5t-12 8.5q-14 0 -25 -15t-19 -35.5t-13 -40t-7 -28.5l-26 -103q21 18 39.5 40.5t33 48t23 53t8.5 56.5zM239 120q0 32 -18 56.5t-54 24.5q-22 0 -41 -13.5t-32 -30.5l-35 -141h74q45 0 75 29t31 75z" />
    <glyph glyph-name="c" unicode="c" horiz-adv-x="280" 
d="M250 169q0 -19 -17 -35.5t-56 -20.5l-3 16q16 5 24.5 17.5t8.5 23.5q0 18 -11 27.5t-25 9.5t-30.5 -8t-30.5 -23t-23.5 -36t-9.5 -48q0 -26 17 -46t44 -20q26 0 49 14.5t37 34.5l17 -10q-21 -29 -53 -48.5t-71 -19.5q-38 0 -65.5 23.5t-27.5 65.5q0 28 12.5 53t33 44
t46.5 29.5t54 10.5q38 0 59 -16.5t21 -37.5z" />
    <glyph glyph-name="d" unicode="d" horiz-adv-x="342" 
d="M390 644q0 -22 -3 -34q-17 -69 -32 -138.5l-31 -138.5t-34.5 -138t-40.5 -136q-2 -8 -2 -14q0 -5 2 -9.5t8 -4.5t12 5.5t11.5 13t10 14.5t7.5 11l14 -8q-6 -10 -14.5 -22t-19 -23t-22.5 -18.5t-24 -7.5q-16 0 -22.5 11t-6.5 25v6.5t1 7.5q-19 -22 -45 -35t-54 -13
q-47 0 -68 21.5t-21 52.5q0 24 12 49.5t34.5 47t54.5 35.5t72 14h58l96 390q2 8 2 17q0 8 -2 13.5t-10 5.5q-6 0 -13 -4t-14.5 -10t-14 -12.5l-10.5 -10.5l-12 11q7 9 19 20.5t25.5 22.5t27 18.5t23.5 7.5q14 0 20 -14t6 -29zM189 202q-26 0 -48 -12.5t-38 -32t-25 -42
t-9 -41.5q0 -23 11.5 -37.5t37.5 -14.5q41 0 67.5 28.5t35.5 64.5l22 87h-54z" />
    <glyph glyph-name="e" unicode="e" horiz-adv-x="263" 
d="M239 169q0 -21 -12.5 -35.5t-31.5 -23.5t-40 -13t-38 -4h-53v-5q0 -29 17 -45t46 -16q26 0 46.5 14.5t36.5 33.5l19 -11q-23 -29 -52.5 -47.5t-67.5 -18.5q-40 0 -68.5 22.5t-28.5 64.5q0 29 13 54t34.5 43.5t48.5 29t55 10.5q12 0 25.5 -3t24.5 -9t18.5 -16t7.5 -25z
M193 168q0 16 -10.5 23t-24.5 7q-18 0 -33.5 -7.5t-27.5 -20t-20 -28.5t-11 -32h31q13 0 29.5 3t31.5 10t25 18t10 27z" />
    <glyph glyph-name="f" unicode="f" horiz-adv-x="200" 
d="M320 671q0 -80 -38.5 -136t-105.5 -91l-47 -226h48l-4 -16h-47l-20 -98q-13 -64 -42 -124t-74 -108l-22 14q45 49 64.5 104t32.5 118l18 94h-56l4 16h55l42 205q-19 -8 -38.5 -13l-39.5 -10l-4 17q23 5 44.5 11t41.5 14l13 62q6 32 22 65.5t38 61t47.5 45t50.5 17.5
q8 0 12.5 -6.5t4.5 -15.5zM277 617q0 2 -1 8.5t-2.5 13t-4.5 12t-6 5.5q-15 0 -27 -16t-21 -37.5t-14 -43t-7 -31.5l-13 -63q44 25 70 62.5t26 89.5z" />
    <glyph glyph-name="g" unicode="g" horiz-adv-x="309" 
d="M235 -2q-7 -28 -20.5 -56t-33.5 -50.5t-46 -36.5t-58 -14q-17 0 -26.5 9t-9.5 24q0 24 15.5 43t38.5 33.5t48.5 23.5t46.5 12l3 12h-50q-62 0 -90.5 27t-28.5 62q0 23 13 46.5t36 42t56 30.5t72 12h90zM204 200q-27 0 -50 -11.5t-40 -29t-26.5 -38.5t-9.5 -41
q0 -27 16.5 -46.5t57.5 -19.5h45l46 186h-39zM186 -31q-15 -3 -35.5 -10.5t-38.5 -18.5t-30.5 -25.5t-12.5 -31.5q0 -22 25 -22q19 0 34.5 11t27 27.5t19 35t11.5 34.5z" />
    <glyph glyph-name="h" unicode="h" horiz-adv-x="329" 
d="M329 668q0 -38 -13 -72t-35 -62.5t-51 -51.5t-60 -40l-77 -311q10 16 24.5 32t31 29t35.5 21t39 8q18 0 31.5 -8.5t13.5 -28.5q0 -4 -1 -11.5t-3 -12.5l-24 -99q-1 -4 -2 -8.5t-1 -8.5q0 -13 10 -13q6 0 12 5.5t12 13t10.5 15t6.5 10.5l14 -8q-6 -10 -14.5 -22t-19 -23
t-22.5 -18.5t-24 -7.5q-14 0 -22.5 10.5t-8.5 25.5q0 9 2 18t4 17l25 102q2 10 2 15q0 17 -13 17q-17 0 -39 -14t-43 -38q-21 -23 -36 -50.5t-23 -58.5l-10 -40h-42l104 421q-14 -5 -28 -9.5t-28 -6.5l-3 16q17 3 32.5 8t31.5 11l16 64q8 32 26.5 65t42.5 60t50 44.5
t48 17.5q8 0 13 -7t6 -16zM278 619q0 8 -1 19.5t-8 11.5q-14 0 -26.5 -15.5t-23 -36t-18 -40.5t-9.5 -30l-16 -64q19 12 37.5 29t32.5 37.5t23 43t9 45.5z" />
    <glyph glyph-name="i" unicode="i" horiz-adv-x="183" 
d="M153 365q0 -12 -10 -19.5t-22 -7.5q-14 0 -21.5 7.5t-7.5 17.5q0 13 10 20t22 7q11 0 20 -7t9 -18zM149 67q-5 -10 -13 -22t-18 -23t-21.5 -18.5t-23.5 -7.5q-14 0 -22 11t-8 25q0 9 1.5 17.5t3.5 17.5l26 107q1 4 1.5 6.5t0.5 4.5q0 7 -4 7q-3 0 -10.5 -6t-15 -14
l-14 -15t-8.5 -10l-12 11l16 18.5t21 22t23 18t22 7.5q16 0 20.5 -9.5t4.5 -22.5q0 -6 -2 -16t-5 -22l-20 -78l-4 -18t-2 -14q0 -13 10 -13q5 0 10.5 5.5t11 12.5t10 14.5t7.5 11.5z" />
    <glyph glyph-name="j" unicode="j" horiz-adv-x="160" 
d="M148 365q0 -12 -11 -19.5t-22 -7.5t-20 7t-9 18q0 12 10.5 19.5t22.5 7.5t20.5 -7t8.5 -18zM118 192q0 -4 -0.5 -10.5t-2.5 -11.5l-31 -123q-8 -32 -20 -62t-27.5 -55t-35 -43t-43.5 -24l-6 15q22 12 36.5 31.5t24.5 42.5t16.5 48l12.5 48l31 126q2 8 2 12q0 7 -4 7
q-5 0 -11 -5.5t-10 -10.5l-27 -30l-12 11l15.5 18.5t20.5 22t22.5 18t21.5 7.5q16 0 21.5 -9.5t5.5 -22.5z" />
    <glyph glyph-name="k" unicode="k" horiz-adv-x="330" 
d="M324 668q0 -38 -13 -71.5t-35 -62t-51 -52t-61 -40.5l-81 -324q12 17 29.5 35.5t38 34.5t42.5 26t45 10q17 0 30.5 -9t13.5 -27q0 -24 -21 -37t-42 -15l-2 16q23 5 23 30q0 9 -6.5 13t-14.5 4q-19 0 -37 -10t-31 -24l66 -133q4 -12 18 -12q17 0 28 15t18 28l15 -7
q-5 -11 -12.5 -22t-17.5 -20.5t-21.5 -15.5t-24.5 -6q-27 0 -40 26l-59 120q-15 -16 -27 -33.5t-23 -36.5l-17 -68h-42l104 421q-14 -5 -28 -9.5t-28 -6.5l-3 16q17 3 32.5 8t31.5 11l14 57q8 34 26 68.5t41 62.5t49.5 45.5t51.5 17.5q9 0 15 -6.5t6 -16.5zM272 619
q0 11 -1.5 21t-8.5 10q-14 0 -26.5 -14.5t-22.5 -34t-17 -40t-10 -33.5l-16 -64q19 12 37 29t32.5 37.5t23.5 43t9 45.5z" />
    <glyph glyph-name="l" unicode="l" horiz-adv-x="191" 
d="M311 674q0 -42 -12.5 -82t-34 -76t-50 -67t-61.5 -56l-84 -334q-2 -10 -2 -14q0 -5 2.5 -9.5t7.5 -4.5q6 0 12 5.5t11 12.5t9 14.5l6 11.5l15 -8q-5 -10 -13 -22t-17.5 -23t-21 -18.5t-23.5 -7.5t-21.5 11t-9.5 25q0 13 2 22.5t3 12.5l73 292q-15 -8 -30 -14.5t-30 -11.5
l-5 15q18 6 35.5 14.5t34.5 19.5l16 62q9 35 29 78t45.5 81t52 64t48.5 26q8 0 10.5 -6t2.5 -13zM270 619q0 6 -1.5 15t-9.5 9q-15 0 -30 -25.5t-28 -60.5t-23.5 -71t-15.5 -58l-2 -8q21 18 41 40.5t35 48t24.5 53.5t9.5 57z" />
    <glyph glyph-name="m" unicode="m" horiz-adv-x="508" 
d="M478 67q-5 -10 -13.5 -22t-18.5 -23t-21.5 -18.5t-22.5 -7.5q-16 0 -25 11t-9 25q0 9 1.5 18t3.5 17l26 102q1 5 1 13t-3.5 13.5t-11.5 5.5q-21 0 -42.5 -16.5t-40.5 -40t-33 -50t-19 -46.5l-13 -48h-44l43 169q1 4 1 11q0 8 -4 14.5t-13 6.5q-16 0 -37.5 -14t-42.5 -38
q-19 -21 -34 -47t-22 -53l-13 -49h-42l42 168q2 8 2 12q0 6 -5 6q-7 0 -25 -18l-18 -21l-13 11q6 7 15 18.5t19.5 22t21.5 18t22 7.5q17 0 22 -11t5 -24q0 -10 -3 -19l-9 -39q10 16 24.5 32t31 29t35.5 21t39 8q5 0 9 -0.5t9 -1.5q13 -4 21 -13t8 -23q0 -5 -2 -15l-9 -35
q10 16 24 31.5t30 28t34.5 20.5t38.5 8q19 0 32.5 -10t13.5 -31q0 -4 -0.5 -7.5t-1.5 -8.5l-26 -102q-3 -11 -3 -18q0 -13 11 -13q5 0 11 5.5t12 13t10.5 14.5t6.5 11z" />
    <glyph glyph-name="n" unicode="n" horiz-adv-x="348" 
d="M318 67q-6 -10 -14 -22t-17.5 -23t-21 -18.5t-23.5 -7.5q-15 0 -25 11t-10 25q0 9 2 18t4 17l26 104q1 3 1 11q0 19 -17 19t-39 -14t-44 -38q-42 -48 -58 -106l-11 -43h-42l42 168q0 2 1 5.5t1 6.5q0 6 -5 6q-7 0 -25 -18l-18 -21l-13 11q6 7 15 18.5t19.5 22t21.5 18
t22 7.5q17 0 22 -11t5 -24q0 -10 -3 -19l-10 -39q11 16 25 32t31 29t36 21t39 8t34 -11t14 -32q0 -4 -0.5 -7.5t-1.5 -8.5l-26 -104q-2 -10 -2 -13q0 -5 2 -9.5t8 -4.5t12 5.5t11.5 13t10 14.5t7.5 11z" />
    <glyph glyph-name="o" unicode="o" horiz-adv-x="302" 
d="M266 119q0 -31 -12 -54.5t-31 -39t-43 -23.5t-48 -8q-23 0 -43.5 6.5t-37 19.5t-26 33.5t-9.5 47.5q0 31 12 54.5t31.5 39.5t43.5 24t49 8q22 0 42.5 -6.5t36.5 -20t25.5 -33.5t9.5 -48zM218 122q0 33 -17 59.5t-52 26.5q-20 0 -35.5 -9.5t-26 -24.5t-16 -34t-5.5 -38
q0 -33 16.5 -60t51.5 -27q20 0 36 9.5t26.5 25t16 34.5t5.5 38z" />
    <glyph glyph-name="p" unicode="p" horiz-adv-x="330" 
d="M294 134q0 -24 -10 -48t-29.5 -43.5t-49 -31.5t-67.5 -12q-34 0 -61 14q-15 -61 -42 -101q-15 -21 -34 -35.5t-43 -21.5l-6 15q21 12 35 28.5t23 35.5t15 40t11 43l37 149q2 10 2 13q0 8 -7 8t-14.5 -5.5t-14.5 -13.5l-18 -20l-12 11q12 14 23.5 26t21.5 20q22 20 37 20
q22 0 27 -23q17 11 35 17t38 6q52 0 77.5 -27.5t25.5 -63.5zM244 138q0 28 -15 48t-48 20q-18 0 -34 -8t-29 -19l-36 -146q18 -15 43 -15q28 0 50 11.5t37.5 29t23.5 38.5t8 41z" />
    <glyph glyph-name="q" unicode="q" horiz-adv-x="306" 
d="M294 218q-9 -6 -14.5 -16.5t-8.5 -20.5l-62 -249q-2 -5 -2 -13q0 -17 10 -32l-80 -51l-11 12l19 26t14 29l24 96h-28q-22 0 -46 4.5t-44.5 15t-33.5 28.5t-13 45q0 31 13.5 55t35.5 39.5t50 23.5t56 8h121v0zM179 200q-45 0 -75.5 -29.5t-30.5 -74.5q0 -38 22.5 -59.5
t59.5 -21.5h32l46 185h-54z" />
    <glyph glyph-name="r" unicode="r" horiz-adv-x="268" 
d="M244 182q0 -30 -23.5 -48t-50.5 -23l-4 16q12 4 23 14.5t11 25.5q0 14 -17 14q-15 0 -30 -11.5t-27.5 -28.5t-22 -37.5t-13.5 -38.5l-17 -65h-42l43 173q2 10 2 12q0 7 -5 7q-6 0 -13 -6t-13 -13.5t-11 -16t-8 -12.5l-14 7q5 10 13.5 23.5t19.5 24.5t23.5 19t24.5 8
q16 0 21.5 -10.5t5.5 -24.5q0 -5 -2 -15.5t-9 -31.5q23 34 49.5 55.5t48.5 21.5q18 0 27.5 -11t9.5 -28z" />
    <glyph glyph-name="s" unicode="s" horiz-adv-x="261" 
d="M231 172q0 -22 -18 -22q-8 0 -10 3.5t-4 10.5q-6 24 -20 33t-34 9q-23 0 -36.5 -8t-13.5 -19q0 -13 16.5 -21.5l30.5 -15.5l26.5 -14t25 -15t18.5 -19t7 -26q0 -18 -9.5 -31.5t-25 -22.5t-35 -13.5t-39.5 -4.5q-39 0 -68.5 16.5t-29.5 48.5q0 16 8 27.5t20 11.5
q18 0 18 -15q0 -7 -6 -11t-11 -4h-4q-1 -3 -1 -9q0 -10 6.5 -17.5t17 -13t23 -8t25.5 -2.5q26 0 45 10t19 27q0 9 -5 15t-12.5 10.5t-16.5 8t-16 7.5l-24 11t-24.5 14.5t-19.5 19t-8 24.5q0 15 8.5 26t22 18.5t30 11t33.5 3.5q37 0 64 -16.5t27 -37.5z" />
    <glyph glyph-name="t" unicode="t" horiz-adv-x="167" 
d="M147 208h-43l-37 -148q-2 -10 -2 -15t2 -9t8 -4q5 0 11 5.5t12 13t10.5 14.5t6.5 11l14 -9q-5 -9 -13 -21.5t-18 -23t-21.5 -18t-23.5 -7.5q-13 0 -23.5 10.5t-10.5 25.5q0 8 1.5 17.5t3.5 17.5l35 140h-43l5 17h43l25 101q1 5 1.5 8t0.5 6q0 4 -1.5 9t-6.5 5
q-10 0 -21 -10.5t-18 -16.5l-11 12q7 7 21 19t29.5 24t29.5 20.5t21 8.5q8 0 11 -5.5t3 -13.5q0 -4 -1 -9.5t-4 -16.5l-35 -141h43z" />
    <glyph glyph-name="u" unicode="u" horiz-adv-x="323" 
d="M299 65l-12 -19.5t-16 -22.5t-19.5 -19t-20.5 -8q-15 0 -23.5 13.5t-8.5 27.5q0 13 3 25l6 25q-11 -16 -25 -32.5t-31.5 -29.5t-36.5 -21t-40 -8q-19 0 -32.5 10.5t-13.5 31.5q0 7 3 18l23 78q2 6 3 10t1 8q0 8 -6 8q-8 0 -15.5 -9.5t-11.5 -15.5l-14 10q5 7 15.5 20
t23.5 25.5t25.5 21.5t21.5 9q17 0 17 -22q0 -7 -2.5 -18t-5.5 -21l-31 -107q-1 -3 -2.5 -9.5t-1.5 -8.5q0 -19 18 -19q23 0 45.5 15.5t41.5 39t33.5 52t20.5 54.5l9 37h44l-40 -161q-2 -8 -2 -13q0 -3 0.5 -6t4.5 -3q6 0 11.5 5t11 12t9.5 14t6 11l14 -8v0z" />
    <glyph glyph-name="v" unicode="v" horiz-adv-x="317" 
d="M281 144q0 -39 -20 -66t-51 -44.5t-67 -25.5t-67 -8h-57l42 166q2 10 2 14q0 3 -0.5 6.5t-5.5 3.5q-6 0 -12.5 -5.5t-12.5 -13t-10.5 -15t-6.5 -11.5l-15 7q4 10 12.5 22.5t19 23.5t23 18.5t24.5 7.5q14 0 21 -8.5t7 -22.5q0 -4 -1.5 -14t-6.5 -27q18 25 46 46.5t60 21.5
q35 0 55.5 -22t20.5 -54zM236 133q0 22 -12.5 37.5t-37.5 15.5q-23 0 -41.5 -13t-32 -32t-22.5 -41t-14 -41l-11 -43h8q25 0 53.5 6.5t53 21t40.5 36.5t16 53z" />
    <glyph glyph-name="w" unicode="w" horiz-adv-x="483" 
d="M447 144q0 -38 -20 -65.5t-50.5 -45t-66.5 -25.5t-68 -8h-56l8 33q-23 -15 -52.5 -24t-65.5 -9h-57l41 164q1 3 2 8t1 8t-0.5 6.5t-5.5 3.5q-6 0 -12.5 -5.5t-12.5 -13t-10.5 -15t-6.5 -11.5l-15 7q4 10 12.5 22.5t19 23.5t23 18.5t24.5 7.5q28 0 28 -33q0 -4 -2 -15.5
t-9 -37.5q9 13 21.5 27.5t27.5 26.5t32 20t35 8q28 0 43 -17.5t15 -44.5q18 23 44.5 42.5t57.5 19.5q39 0 57 -23t18 -53zM402 135q0 20 -11.5 35.5t-38.5 15.5q-23 0 -41.5 -13t-32 -32t-22.5 -41t-13 -41l-11 -43h7q27 0 55.5 7t52.5 21.5t39.5 37t15.5 53.5zM221 148
q0 13 -5 26.5t-21 13.5t-34.5 -11.5t-35.5 -31t-31 -44t-20 -50.5l-9 -35h8q27 0 53.5 7.5t47.5 23.5t34 41t13 60z" />
    <glyph glyph-name="x" unicode="x" horiz-adv-x="290" 
d="M278 189q0 -17 -11.5 -35t-28.5 -29l-9 11q7 5 12.5 16.5t5.5 22.5q0 7 -3.5 12t-13.5 5q-15 0 -28 -7.5t-24 -19t-19.5 -25.5t-14.5 -27h44l-4 -17h-46q-4 -9 -7.5 -21t-3.5 -23q0 -13 7 -22t26 -9t37.5 12.5t28.5 26.5l14 -8q-5 -11 -15.5 -21t-23 -17.5t-26 -12
t-25.5 -4.5q-26 0 -46 15.5t-22 42.5q-31 -42 -76 -58l-6 16q29 10 52 33t36 50h-52l4 17h52q5 12 11 30t6 33q0 10 -3.5 16.5t-14.5 6.5q-9 0 -18 -4.5t-17.5 -11.5t-16 -15.5l-13.5 -15.5l-13 10q17 26 42.5 43.5t57.5 17.5q19 0 31 -12t12 -31q0 -5 -0.5 -8.5t-1.5 -7.5
q6 8 15 18.5t20.5 19.5t24 15t24.5 6q21 0 30.5 -10t9.5 -24z" />
    <glyph glyph-name="y" unicode="y" horiz-adv-x="301" 
d="M236 23q-7 -29 -21 -59.5t-35 -56t-48.5 -42t-60.5 -16.5q-17 0 -27 9t-10 24q0 25 16.5 46t40 36t50 24.5t47.5 12.5l21 82q-11 -15 -24.5 -30.5t-29.5 -28t-34 -20.5t-38 -8t-33.5 11.5t-13.5 32.5q0 12 1 15l23 107q0 1 1 5t1 9q0 7 -4 7t-8.5 -4.5t-9 -10t-8.5 -11.5
l-6 -9l-14 8q5 9 12 20.5t16 21t19.5 16.5t22.5 7q15 0 20 -10t5 -23q0 -21 -5 -36l-22 -106q-2 -8 -2 -10q0 -8 4.5 -14t13.5 -6q21 0 43 16t40 39.5t31.5 49t18.5 45.5l13 51h43zM183 -17q-16 -3 -37 -10.5t-39.5 -19t-31.5 -27.5t-13 -36q0 -21 24 -21q18 0 34 12.5
t28 30.5t21 37.5t14 33.5z" />
    <glyph glyph-name="z" unicode="z" horiz-adv-x="288" 
d="M272 213q-5 -20 -21.5 -36t-37.5 -29.5t-43.5 -25t-38.5 -21.5q-19 -11 -37 -24.5t-35 -28.5q11 2 21 2.5t20 0.5q15 0 27 -2.5t24 -6t24 -6t26 -2.5q7 0 13 3.5t6 11.5q0 7 -3.5 12t-8.5 9l9 15q11 -8 19 -18t8 -24t-6.5 -23.5t-16.5 -15.5t-22 -9t-23 -3q-31 0 -60 9
t-61 9q-23 0 -47 -9l-8 15q27 28 58 55t65 46l66 37q-22 1 -36 6.5t-24 12t-18.5 11.5t-18.5 5t-19 -6.5t-9 -17.5t8.5 -20.5t18.5 -12.5l-4 -16q-18 5 -31.5 18.5t-13.5 33.5q0 26 20.5 40.5t42.5 14.5q14 0 27 -4t25.5 -9t25 -9t26.5 -4q17 0 30 4.5t17 15.5l16 -4v0z" />
    <glyph glyph-name="braceleft" unicode="{" horiz-adv-x="355" 
d="M445 798q-26 -4 -51.5 -14t-48 -25.5t-39.5 -36.5t-25 -48q-12 -41 -13 -82t-13 -82q-9 -32 -28 -59.5t-44.5 -49t-55 -38t-60.5 -26.5q41 -18 68.5 -50t27.5 -79q0 -23 -7 -45q-6 -21 -15 -41l-19 -40.5t-18.5 -40.5t-14.5 -41q-5 -14 -5 -31q0 -20 8 -35.5t21 -27.5
t30.5 -20t36.5 -13l-5 -18q-62 8 -101 47.5t-39 99.5q0 27 7 54q6 20 15.5 40t20 39.5t19.5 39.5t15 40q2 7 3 13t1 12q0 19 -8 33.5t-21.5 25t-30 17.5t-34.5 10l5 20q22 4 46 12.5t45.5 22t38 32t23.5 42.5q6 20 8 40t3 40t3 40t8 41q12 40 37 75t59 61.5t73.5 43
t79.5 21.5z" />
    <glyph glyph-name="bar" unicode="|" horiz-adv-x="347" 
d="M149 -164v1000h49v-1000h-49z" />
    <glyph glyph-name="braceright" unicode="}" horiz-adv-x="355" 
d="M327 326q-21 -4 -45 -12.5t-45.5 -22t-38 -32t-23.5 -42.5q-6 -20 -8 -40t-3.5 -40t-3.5 -40t-8 -41q-12 -41 -37 -75.5t-59 -61t-73 -43.5t-79 -21l6 19q25 4 51 14t48.5 25.5t39 36.5t24.5 48q12 41 13.5 81.5t13.5 82.5q9 32 28 59.5t44 49t55 37.5t61 26
q-41 19 -68.5 50.5t-27.5 79.5q0 23 7 45q12 42 33.5 81.5t33.5 81.5q5 18 5 31q0 19 -8 35t-21.5 28t-30.5 20t-36 13l5 18q61 -8 100.5 -47.5t39.5 -99.5q0 -13 -1.5 -26.5t-6.5 -27.5q-6 -20 -15 -40t-19.5 -39.5t-19.5 -39.5t-15 -40q-4 -12 -4 -26q0 -18 8 -32.5
t21.5 -25t30 -17.5t34.5 -10z" />
    <glyph glyph-name="asciitilde" unicode="~" horiz-adv-x="447" 
d="M423 343q-26 -25 -51.5 -35.5t-53.5 -10.5q-24 0 -48.5 7.5t-48.5 16l-47 16t-44 7.5q-18 0 -35.5 -7.5t-35.5 -24.5l-35 35q26 26 52 36t55 10q23 0 47.5 -7.5t48.5 -16l47 -16t44 -7.5q18 0 35.5 7.5t34.5 24.5l35 -35v0z" />
    <glyph glyph-name="currency" unicode="&#xa4;" horiz-adv-x="579" 
d="M579 366q0 -27 -15.5 -46.5t-38 -32t-49 -19t-48.5 -7.5l-4 16q18 5 35.5 13.5t31 21.5t22 29.5t8.5 38.5q0 21 -10.5 37t-26.5 27t-35.5 16.5t-38.5 5.5q-44 0 -83.5 -15.5t-71 -42.5t-54.5 -63t-34 -77h228l-13 -17h-219q-3 -12 -4 -24.5t-1 -24.5h173l-13 -17h-160
q3 -36 19 -62.5t40.5 -43t55.5 -24.5t64 -8q29 0 55 8t50 22l-11 -43q-32 -17 -67.5 -26.5t-72.5 -9.5q-42 0 -78.5 11.5t-63.5 34.5t-43 57.5t-16 79.5v4h-78l14 17h65q2 25 9 49h-71l13 17h62q16 50 46 91t70 70.5t88.5 45.5t101.5 16q27 0 56.5 -7.5t54 -22.5t41 -38.5
t17.5 -56.5z" />
    <glyph glyph-name="brokenbar" unicode="&#xa6;" horiz-adv-x="347" 
d="M149 348v488h49v-488h-49zM149 -164v488h49v-488h-49z" />
    <glyph glyph-name="section" unicode="&#xa7;" horiz-adv-x="1058" 
d="M1037 379q0 -32 -11.5 -60t-31 -49.5t-47 -35.5t-58.5 -17q0 -37 -18.5 -63t-46.5 -42t-62 -23t-65 -7q-84 0 -147 28t-115 72.5t-97.5 100.5l-94.5 112q-10 11 -23 22.5t-28 21.5t-30.5 16t-30.5 6q-32 0 -55 -23t-23 -55q0 -27 16 -48t42 -27q0 8 7.5 13.5t20.5 5.5
q11 0 19 -5.5t8 -13.5q0 -13 -13 -16.5t-22 -3.5q-20 0 -37 7.5t-30 20.5t-20.5 30t-7.5 37q0 24 10 43.5t27 32.5t38.5 20t45.5 7q32 0 62 -12.5t53 -35.5q-4 11 -6 21.5t-2 24.5q0 29 12.5 52.5t32.5 40.5t46 26t53 9q49 0 88 -27.5t73.5 -68t66.5 -88.5t68 -88.5t78 -68
t96 -27.5q29 0 55 10t45.5 28t31 42.5t11.5 54.5q0 24 -9.5 45.5t-25 37t-37 25t-45.5 9.5q-26 0 -49.5 -13t-34.5 -36q14 -5 14 -27q0 -11 -5.5 -19.5t-13.5 -8.5t-13.5 8.5t-5.5 19.5q0 21 10 38t25.5 29t35 19t37.5 7q27 0 51.5 -10.5t42.5 -28.5t28.5 -42.5t10.5 -52.5z
M868 215q-62 0 -110.5 27t-88.5 67.5t-74 87.5t-68 87.5t-70 67.5t-79 27q-40 0 -69 -27t-29 -68q0 -24 8.5 -42.5t24.5 -35.5l51.5 -58.5l58 -67t64 -67t68 -58.5t70.5 -41.5t72 -15.5q28 0 58.5 6t56 19.5t42.5 36t19 55.5h-5z" />
    <glyph glyph-name="copyright" unicode="&#xa9;" horiz-adv-x="695" 
d="M661 312q0 -65 -24.5 -122t-67.5 -100t-100 -67.5t-121 -24.5q-65 0 -122 24.5t-100 67.5t-67.5 100t-24.5 122t24.5 122t67.5 100t100 67.5t122 24.5q64 0 121 -25t100 -67.5t67.5 -100t24.5 -121.5zM645 312q0 61 -23.5 115t-64 94.5t-94.5 64t-115 23.5
q-62 0 -116 -23.5t-94.5 -63.5t-64 -94.5t-23.5 -115.5q0 -62 23.5 -116t64 -94.5t94.5 -64t116 -23.5q61 0 115 23.5t94.5 64t64 94.5t23.5 116zM560 418q0 -37 -40 -65q-17 -11 -40.5 -18.5t-52.5 -9.5l-3 16q15 4 30 11.5t27 18t19.5 24.5t7.5 32t-8.5 31.5t-21.5 22.5
t-29 13.5t-31 4.5q-47 0 -85 -18.5t-67 -47.5q-34 -35 -52 -78t-18 -85q0 -27 9.5 -51t29.5 -41q18 -15 45 -24t63 -9q45 0 85.5 23t69.5 55l24 -14q-41 -47 -99 -77.5t-121 -30.5q-40 0 -70 10.5t-51 29.5q-23 20 -34 49t-11 61q0 50 22.5 101.5t64.5 92.5q36 35 85.5 56.5
t109.5 21.5q32 0 56.5 -8t42.5 -21q21 -15 32 -35t11 -41z" />
    <glyph glyph-name="guillemotleft" unicode="&#xab;" horiz-adv-x="269" 
d="M164 133l26 -109h-20l-61 109l116 109h20zM79 133l26 -109h-20l-61 109l115 109h21z" />
    <glyph glyph-name="logicalnot" unicode="&#xac;" horiz-adv-x="429" 
d="M336 124v104h-293v50h343v-154h-50z" />
    <glyph glyph-name="registered" unicode="&#xae;" horiz-adv-x="397" 
d="M367 619q0 -35 -13.5 -65.5t-36.5 -53.5t-53.5 -36.5t-65.5 -13.5t-65.5 13.5t-53.5 36.5t-36.5 53.5t-13.5 65.5t13.5 66t36.5 54t53.5 36t65.5 13t65.5 -13t53.5 -36t36.5 -54t13.5 -66zM348 619q0 31 -12 58t-32.5 47.5t-47.5 32.5t-58 12t-58 -12t-47.5 -32.5
t-32 -47.5t-11.5 -58t11.5 -58t32 -47.5t47.5 -32t58 -11.5t58 11.5t47.5 32t32.5 47.5t12 58zM296 532q0 -13 -9.5 -20.5t-21.5 -7.5q-11 0 -20 8.5t-15.5 20t-12 24t-8.5 20.5q-12 29 -39 42v17q10 -3 20 -3q17 0 32 9.5t15 29.5t-17 33q-12 9 -26 11t-29 2q-8 0 -8 -8
v-180q0 -7 8 -7h17v-12h-68v12h11q7 0 7 7v180q0 8 -7 8h-11v11h75q13 0 27 -3t25 -10t18.5 -18t7.5 -26q0 -26 -18.5 -39t-41.5 -15q20 -14 31.5 -36t19.5 -45q2 -5 5.5 -9t8.5 -4q7 0 7 9t-6 15l7 9q7 -4 11.5 -10.5t4.5 -14.5z" />
    <glyph glyph-name="degree" unicode="&#xb0;" horiz-adv-x="227" 
d="M200 443q0 -18 -7 -33.5t-18.5 -27t-27.5 -18.5t-34 -7t-33.5 7t-27 18.5t-18.5 27t-7 33.5t7 34t18.5 27.5t27 18.5t33.5 7q36 0 61.5 -25.5t25.5 -61.5zM168 443q0 23 -16 39t-39 16t-38.5 -16t-15.5 -39t15.5 -38.5t38.5 -15.5t39 15.5t16 38.5z" />
    <glyph glyph-name="plusminus" unicode="&#xb1;" horiz-adv-x="460" 
d="M236 228v-146h-49v146h-146v50h146v146h49v-146h146v-50h-146zM41 -2v49h341v-49h-341z" />
    <glyph glyph-name="mu1" unicode="&#xb5;" horiz-adv-x="358" 
d="M335 65q-4 -8 -11 -19.5t-16 -22.5t-19 -19t-20 -8q-16 0 -24.5 13.5t-8.5 30.5q0 12 2.5 23.5t4.5 23.5q-10 -16 -23.5 -32.5t-30 -29.5t-35 -21t-39.5 -8q-8 0 -17 3l-8 -34q-6 -26 -15 -43.5t-28 -17.5q-8 0 -15.5 9t-13.5 21.5t-10 25t-5 20.5l19 9q1 -5 3.5 -14.5
t10.5 -9.5q10 0 17 26l36 143q1 5 1.5 8t0.5 7q0 11 -6 11q-8 0 -15 -9.5t-11 -15.5l-14 10q5 7 15.5 20t22.5 25.5t24 21.5t20 9q11 0 15 -6t4 -17q0 -7 -2.5 -18l-4.5 -20l-29 -114q-2 -8 -2 -12q0 -18 19 -18q24 0 45.5 15.5t39.5 39t31 52t19 54.5l8 37h45l-35 -160
q-2 -8 -2 -14q0 -3 1 -6t5 -3q6 0 11.5 5t10 12t8.5 14t7 11l14 -8v0z" />
    <glyph glyph-name="paragraph" unicode="&#xb6;" horiz-adv-x="1146" 
d="M1122 134q0 -48 -17.5 -87t-46 -66.5t-65.5 -42.5t-76 -15q-55 0 -105.5 18t-92.5 52t-75 81t-53 106q-12 -55 -38 -102.5t-62.5 -83t-81.5 -55.5t-96 -20q-63 0 -116 30t-91.5 80t-60 114.5t-21.5 134.5q0 108 36 203t97.5 166t143.5 112t175 41h462h9v-19
q-76 0 -143 -34t-116.5 -92.5t-78 -136t-28.5 -165.5q0 -84 24.5 -158.5t69 -130.5t106 -89t136.5 -33q36 0 69.5 13.5t60 38.5t42 60.5t15.5 79.5q0 30 -9.5 57t-26 48t-38.5 34.5t-48 17.5q8 -10 13.5 -23t5.5 -27q0 -32 -20.5 -52.5t-47.5 -20.5q-26 0 -47.5 15.5
t-21.5 50.5q0 21 10.5 35.5t25.5 24t32.5 13.5t32.5 4q32 0 60.5 -13.5t50 -37.5t34 -56.5t12.5 -69.5zM476 781q-55 0 -101.5 -25.5t-81 -69t-54 -100t-19.5 -117.5q0 -60 19 -114.5t52 -96t78 -66t98 -24.5q64 0 116 41q-20 69 -20 144q0 73 20 141t56 124.5t86 98.5
t110 64h-359z" />
    <glyph glyph-name="periodcentered" unicode="&#xb7;" horiz-adv-x="145" 
d="M119 204q0 -17 -12.5 -26.5t-28.5 -9.5q-18 0 -35 12.5t-17 32.5q0 17 12.5 26t29.5 9t34 -12t17 -32z" />
    <glyph glyph-name="guillemotright" unicode="&#xbb;" horiz-adv-x="233" 
d="M80 133l-26 109h20l61 -109l-115 -109h-20zM166 133l-26 109h20l61 -109l-116 -109h-20z" />
    <glyph glyph-name="endash" unicode="&#x2013;" horiz-adv-x="404" 
d="M376 151h-356l8 33h356z" />
    <glyph glyph-name="emdash" unicode="&#x2014;" horiz-adv-x="804" 
d="M776 151h-756l8 33h756z" />
    <glyph glyph-name="quoteleft" unicode="&#x2018;" horiz-adv-x="209" 
d="M120 610q0 27 11.5 55t29 54.5t37.5 49t38 38.5l9 -16q-28 -31 -43 -65.5t-22 -69.5q12 -2 22 -15.5t10 -28.5q0 -23 -16.5 -34.5t-36.5 -11.5q-15 0 -27 13t-12 31z" />
    <glyph glyph-name="quoteright" unicode="&#x2019;" horiz-adv-x="257" 
d="M245 763q0 -27 -11.5 -55t-29 -54.5t-37.5 -49t-38 -38.5l-9 16q28 31 43 65.5t22 69.5q-12 2 -21.5 15.5t-9.5 27.5q0 24 16.5 35.5t35.5 11.5q16 0 27.5 -13t11.5 -31z" />
    <glyph glyph-name="quotesinglbase" unicode="&#x201a;" horiz-adv-x="146" 
d="M134 43q0 -27 -11.5 -55t-29 -54.5t-37.5 -49t-38 -38.5l-9 16q28 31 43 65.5t22 69.5q-12 2 -21.5 15.5t-9.5 27.5q0 23 16.5 35t35.5 12q16 0 27.5 -13t11.5 -31z" />
    <glyph glyph-name="quotedblleft" unicode="&#x201c;" horiz-adv-x="319" 
d="M230 610q0 27 11.5 55t29 54.5t37.5 49t38 38.5l9 -16q-28 -31 -43 -65.5t-22 -69.5q12 -2 22 -15.5t10 -28.5q0 -23 -16.5 -34.5t-36.5 -11.5q-15 0 -27 13t-12 31zM120 610q0 27 11.5 55t29 54.5t37.5 49t38 38.5l9 -16q-28 -31 -43 -65.5t-22 -69.5q12 -2 22 -15.5
t10 -28.5q0 -23 -16.5 -34.5t-36.5 -11.5q-15 0 -27 13t-12 31z" />
    <glyph glyph-name="quotedblright" unicode="&#x201d;" horiz-adv-x="371" 
d="M245 763q0 -27 -11.5 -55t-29 -54.5t-37.5 -49t-38 -38.5l-9 16q28 31 43 65.5t22 69.5q-12 2 -21.5 15.5t-9.5 27.5q0 24 16.5 35.5t35.5 11.5q16 0 27.5 -13t11.5 -31zM355 763q0 -27 -11.5 -55t-29 -54.5t-37.5 -49t-38 -38.5l-9 16q28 31 43 65.5t22 69.5
q-12 2 -21.5 15.5t-9.5 27.5q0 24 16.5 35.5t35.5 11.5q16 0 27.5 -13t11.5 -31z" />
    <glyph glyph-name="quotedblbase" unicode="&#x201e;" horiz-adv-x="260" 
d="M134 43q0 -27 -11.5 -55t-29 -54.5t-37.5 -49t-38 -38.5l-9 16q28 31 43 65.5t22 69.5q-12 2 -21.5 15.5t-9.5 27.5q0 24 16.5 35.5t35.5 11.5q16 0 27.5 -13t11.5 -31zM244 43q0 -27 -11.5 -55t-29 -54.5t-37.5 -49t-38 -38.5l-9 16q28 31 43 65.5t22 69.5
q-12 2 -21.5 15.5t-9.5 27.5q0 24 16.5 35.5t35.5 11.5q16 0 27.5 -13t11.5 -31z" />
    <glyph glyph-name="dagger" unicode="&#x2020;" horiz-adv-x="467" 
d="M489 477q0 -20 -15 -33t-36 -13q-14 0 -29 4.5t-31.5 10.5t-34 10.5t-35.5 4.5h-11q0 -21 1 -45.5t4.5 -49t11 -48.5t20.5 -45q-9 -14 -15 -42t-10 -65t-6.5 -79t-3.5 -83.5t-1.5 -78.5t-0.5 -64l-33 3q0 27 -0.5 64t-1.5 78t-3.5 82.5t-6.5 78t-10 64.5t-15 42
q13 20 20.5 44t11 49t4.5 49.5t1 45.5h-11q-18 0 -35.5 -4.5t-34 -10.5t-31.5 -10.5t-29 -4.5q-21 0 -35.5 13t-14.5 33q0 19 14.5 32.5t35.5 13.5q14 0 29 -4.5t31.5 -10.5t34 -10.5t35.5 -4.5h11v40q0 18 -4.5 35.5t-10.5 33.5t-10.5 31t-4.5 29q0 21 13.5 36t33.5 15
q19 0 32.5 -15t13.5 -36q0 -14 -4.5 -29t-10.5 -31t-10.5 -33.5t-4.5 -35.5v-40h11q18 0 35.5 4.5t34 10.5t31.5 10.5t29 4.5q21 0 36 -13.5t15 -32.5z" />
    <glyph glyph-name="daggerdbl" unicode="&#x2021;" horiz-adv-x="567" 
d="M496 102q0 -20 -15.5 -33.5t-36.5 -13.5q-14 0 -29.5 4.5t-32 10.5t-34.5 10.5t-36 4.5h-12v-40q0 -19 5 -36.5t10.5 -34l10.5 -32t5 -29.5q0 -21 -13.5 -36.5t-33.5 -15.5t-34 15.5t-14 36.5q0 14 5 29.5l10.5 32t10.5 34t5 36.5v40h-12q-18 0 -36 -4.5t-34.5 -10.5
t-32 -10.5t-29.5 -4.5q-21 0 -36.5 13.5t-15.5 33.5t15.5 33.5t36.5 13.5q14 0 29.5 -4.5t32 -10.5t34.5 -10.5t36 -4.5l12 1q0 42 -6 83.5t-32 83.5q26 42 32 84t6 85h-12q-18 0 -36 -5t-34.5 -10.5l-32 -10.5t-29.5 -5q-21 0 -36.5 13.5t-15.5 33.5t15.5 34t36.5 14
q14 0 29.5 -5l32 -10.5t34.5 -10.5t36 -5h12v40q0 19 -5 36.5t-10.5 34l-10.5 32t-5 29.5q0 22 14 37t34 15t33.5 -15t13.5 -37q0 -14 -5 -29.5l-10.5 -32t-10.5 -34t-5 -36.5v-40h12q18 0 36 5t34.5 10.5l32 10.5t29.5 5q21 0 36.5 -14t15.5 -34t-15.5 -33.5t-36.5 -13.5
q-14 0 -29.5 5l-32 10.5t-34.5 10.5t-36 5h-12q0 -42 6 -84.5t32 -84.5q-26 -42 -32 -84t-6 -84h12q18 0 36 4.5t34.5 10.5t32 10.5t29.5 4.5q21 0 36.5 -13.5t15.5 -33.5z" />
    <glyph glyph-name="bullet" unicode="&#x2022;" horiz-adv-x="330" 
d="M301 232q0 -28 -10.5 -53t-29 -43.5t-43.5 -29.5t-53 -11t-53 11t-43.5 29.5t-29.5 43.5t-11 53t11 53t29.5 43.5t43.5 29.5t53 11t53 -11t43.5 -29.5t29 -43.5t10.5 -53z" />
    <glyph glyph-name="ellipsis" unicode="&#x2026;" horiz-adv-x="438" 
d="M119 23q0 -17 -12.5 -26.5t-28.5 -9.5q-18 0 -35 12.5t-17 32.5q0 17 12.5 26t29.5 9t34 -12t17 -32zM265 23q0 -17 -12.5 -26.5t-28.5 -9.5q-18 0 -35 12.5t-17 32.5q0 17 12.5 26t29.5 9t34 -12t17 -32zM411 23q0 -17 -12.5 -26.5t-28.5 -9.5q-18 0 -35 12.5t-17 32.5
q0 17 12.5 26t29.5 9t34 -12t17 -32z" />
    <glyph glyph-name="perthousand" unicode="&#x2030;" horiz-adv-x="677" 
d="M637 166q0 -24 -8.5 -49.5t-24 -46.5t-37 -35t-47.5 -14q-32 0 -46 22.5t-14 51.5q0 22 8 47.5t23 47.5t35.5 36t45.5 14q32 0 48.5 -22.5t16.5 -51.5zM594 140q0 9 -2.5 19.5t-7.5 20.5t-12.5 16.5t-18.5 6.5q-14 0 -24 -9t-17 -22t-10 -27.5t-3 -25.5q0 -9 2.5 -19.5
t7.5 -19t13.5 -14t19.5 -5.5q13 0 23 8.5t16.5 20.5t9.5 25.5t3 24.5zM442 166q0 -24 -8.5 -49.5t-24 -46.5t-37 -35t-47.5 -14q-33 0 -47 22.5t-14 51.5q0 22 8 47.5t23 47.5t35.5 36t46.5 14q31 0 48 -22.5t17 -51.5zM398 140q0 9 -2.5 19.5t-7.5 20.5t-12.5 16.5
t-18.5 6.5q-14 0 -24 -9t-16.5 -22t-10 -27.5t-3.5 -25.5q0 -9 2.5 -19.5t7.5 -19t13.5 -14t19.5 -5.5q13 0 23 8.5t16.5 20.5t9.5 25.5t3 24.5zM142 -60h-71l252 477q-24 -18 -53.5 -27.5t-60.5 -9.5q6 -11 8 -21.5t2 -21.5q0 -24 -8.5 -49.5t-24 -46.5t-37 -35t-47.5 -14
q-32 0 -46 22.5t-14 51.5q0 22 8 47.5t23 47.5t35.5 36t45.5 14q12 0 24 -2.5t24 -2.5q45 0 84.5 18.5t65.5 55.5h28zM176 310q0 9 -2.5 20t-7.5 21t-12.5 16.5t-18.5 6.5q-14 0 -24 -9t-17 -22t-10 -27.5t-3 -25.5q0 -20 10 -39t33 -19q13 0 23 8t16.5 20t9.5 25.5t3 24.5z
" />
    <glyph glyph-name="guilsinglleft" unicode="&#x2039;" horiz-adv-x="184" 
d="M79 133l26 -109h-20l-61 109l115 109h21z" />
    <glyph glyph-name="guilsinglright" unicode="&#x203a;" horiz-adv-x="170" 
d="M104 133l-26 109h21l61 -109l-116 -109h-20z" />
    <glyph glyph-name="Euro" unicode="&#x20ac;" horiz-adv-x="579" 
d="M579 366q0 -27 -15.5 -46.5t-38 -32t-49 -19t-48.5 -7.5l-4 16q18 5 35.5 13.5t31 21.5t22 29.5t8.5 38.5q0 21 -10.5 37t-26.5 27t-35.5 16.5t-38.5 5.5q-44 0 -83.5 -15.5t-71 -42.5t-54.5 -63t-34 -77h228l-13 -17h-219q-3 -12 -4 -24.5t-1 -24.5h173l-13 -17h-160
q3 -36 19 -62.5t40.5 -43t55.5 -24.5t64 -8q29 0 55 8t50 22l-11 -43q-32 -17 -67.5 -26.5t-72.5 -9.5q-42 0 -78.5 11.5t-63.5 34.5t-43 57.5t-16 79.5v4h-78l14 17h65q2 25 9 49h-71l13 17h62q16 50 46 91t70 70.5t88.5 45.5t101.5 16q27 0 56.5 -7.5t54 -22.5t41 -38.5
t17.5 -56.5z" />
    <glyph glyph-name="trademark" unicode="&#x2122;" horiz-adv-x="689" 
d="M634 767q-10 0 -21.5 -6.5t-11.5 -19.5l6 -202q0 -10 10 -10h14v-13h-78v13h14q10 0 10 9l-5 187q-8 -10 -16 -23t-16 -28q-17 -32 -29.5 -66.5t-23.5 -70.5h-15l10 31l-84 160l-9 -190q0 -9 10 -9h14v-13h-64v13h14q10 0 10 10l10 213q0 6 -7 10.5t-12 4.5h-22v13h62
l92 -174q9 26 19.5 49.5t22.5 43.5q16 27 38 52t56 36l15 -20h-13v0zM289 744q-20 0 -40 5l-40 10v-221q0 -9 10 -9h14v-13h-78v13h14q10 0 10 9v228q-17 4 -44 4q-13 0 -23.5 -3.5t-18.5 -8.5q-17 -12 -17 -27q0 -10 5 -17t15 -7q15 0 22 20l12 -1q1 -4 1 -8q0 -17 -13 -28
t-30 -11q-20 0 -33 13.5t-13 32.5q0 14 7.5 25.5t20.5 19.5q26 17 64 17q26 0 46 -2.5t39 -5.5l32.5 -4t33.5 -2q15 0 18.5 5.5t12.5 5.5q6 0 9 -4t3 -9q0 -15 -14 -21t-25 -6z" />
    <glyph glyph-name="afii10017" unicode="&#x410;" horiz-adv-x="959" 
d="M1042 782q-21 -5 -35.5 -20.5t-24 -36t-16 -42.5t-10.5 -40l-136 -551q-5 -20 -5 -32q0 -8 3 -15.5t12 -7.5q12 0 23 5.5t20.5 14t18 17.5l15.5 16l12 -11q-11 -12 -25.5 -26t-31 -26t-34 -20.5t-34.5 -8.5q-22 0 -30 16t-8 34t6 44l8 34q-14 -17 -34 -27.5t-43 -10.5
q-24 0 -47 10t-34 33l15 7q9 -19 28 -26.5t38 -7.5q18 0 33.5 7.5t27 20.5t18 29t6.5 34q0 26 -10.5 48.5t-27.5 41.5t-38.5 33.5t-42.5 25.5l-32 -88q-21 -59 -55 -107t-79 -82t-100 -52.5t-118 -18.5q-32 0 -71.5 5.5t-74 20.5t-58 41.5t-23.5 68.5q0 45 20 82.5t54 67
t77.5 51.5t90.5 36.5t93.5 22t86.5 7.5q80 0 145 -20l31 94q21 61 59 120t89.5 105t114 74t131.5 28zM938 756q-41 -13 -77.5 -43.5t-66.5 -69.5t-52.5 -82t-35.5 -81l-42 -120q22 -11 43.5 -25t39 -32t29.5 -40t17 -47l103 426q8 30 18 58.5t24 55.5zM609 363
q-30 9 -64.5 14.5t-73.5 5.5q-34 0 -75.5 -6.5t-84 -20.5t-82.5 -34.5t-71 -48.5t-50 -63t-19 -78q0 -35 19 -57.5t47.5 -36t61 -18.5t59.5 -5q58 0 105.5 20t84.5 54.5t64.5 80.5t45.5 97z" />
    <glyph glyph-name="afii10019" unicode="&#x412;" horiz-adv-x="932" 
d="M920 286q0 -52 -19.5 -93t-52 -73t-75.5 -54.5t-90 -37t-95 -21.5t-90 -7h-311v16q37 4 69 21.5t56.5 43.5t42 58.5t26.5 67.5l63 253q13 55 46.5 101t78 82.5t96.5 62.5t103 41q-38 20 -92 32t-126 12q-88 0 -172.5 -32.5t-151 -90.5t-107.5 -136.5t-41 -169.5
q0 -63 28 -109.5t82 -80.5l-8 -14q-69 36 -100.5 96t-31.5 132q0 64 21 120.5t57 103.5t84.5 84t104 63t115.5 39.5t118 13.5q87 0 151 -14.5t112 -37.5q19 4 39 6t47 2v-17q-28 0 -61 -6q84 -54 84 -133q0 -33 -14 -57.5t-36.5 -42.5t-50.5 -29t-56 -17q32 -9 60.5 -24.5
t50 -37.5t34 -51t12.5 -65zM862 608q0 35 -17 66.5t-54 57.5q-50 -14 -96 -39t-84 -59.5t-65.5 -78t-40.5 -95.5l-64 -257q-7 -27 -19 -54.5t-28.5 -52t-37.5 -45.5t-46 -35h188q66 0 130 16.5t115 51t82.5 89t31.5 130.5q0 41 -13.5 69.5t-37.5 46.5t-57 26t-71 8
q-14 0 -28.5 -1.5t-28.5 -3.5v27q14 -1 28 -1.5t28 -0.5q34 0 67 6t59 21.5t42.5 41.5t16.5 66z" />
    <glyph glyph-name="afii10020" unicode="&#x413;" horiz-adv-x="767" 
d="M860 723h-88q-34 0 -63.5 -22.5t-60 -77t-64.5 -145t-76 -226.5q-6 -20 -15 -39t-20 -38q38 12 71 37.5t52 62.5q11 -6 13 -7q2 -2 2 0q-26 -54 -69.5 -89t-101.5 -46q-60 -67 -144.5 -103.5t-174.5 -36.5q-31 0 -61.5 5.5t-59.5 19.5l7 15h7q23 -13 49.5 -17.5
t52.5 -4.5q75 0 142.5 31t118.5 88q-61 4 -113 29t-90 65.5t-59.5 94t-21.5 114.5q0 84 36 147t94.5 105t132 63.5t148.5 21.5h374l20 24l13 -11zM488 723q-68 0 -134.5 -17.5t-119.5 -54t-85.5 -92.5t-32.5 -133q0 -57 25.5 -104.5t66.5 -81.5t93 -53.5t105 -20.5
q30 44 44 91q27 87 50.5 152.5t44.5 114t40.5 82t38.5 56.5t38.5 37t40.5 24h-215z" />
    <glyph glyph-name="afii10021" unicode="&#x414;" horiz-adv-x="1057" 
d="M1028 407q0 -82 -36 -159t-108 -136q-63 -51 -150.5 -81.5t-201.5 -30.5h-205v16q37 4 64.5 22.5t46 45t30.5 59t20 64.5l83 353q14 61 55 110t95 81q-82 28 -186 28q-86 0 -167.5 -28t-144.5 -80.5t-101 -126.5t-38 -167q0 -101 57 -165.5t156 -79.5l-2 -16
q-56 5 -102 27.5t-78 58.5t-49.5 84.5t-17.5 105.5q0 97 42.5 173t110.5 128.5t154.5 79.5t174.5 27q63 0 117.5 -8.5t101.5 -24.5q71 34 147 34h11v-17q-35 0 -68.5 -6.5t-63.5 -20.5q55 -22 101.5 -56t80 -79t52.5 -99.5t19 -115.5zM966 421q0 112 -59.5 196t-160.5 125
q-43 -27 -70 -68t-39 -91l-90 -380q-6 -24 -13.5 -50.5t-19 -52t-27.5 -48t-38 -36.5h60q103 0 184 31t139 83q66 59 100 135.5t34 155.5z" />
    <glyph glyph-name="afii10022" unicode="&#x415;" horiz-adv-x="748" 
d="M760 667q0 -24 -10.5 -41.5t-27 -29.5t-38 -18t-42.5 -6t-47 8l6 15q18 -5 33 -5q14 0 28 4.5t25.5 13.5t18.5 21.5t7 29.5q0 28 -14 49t-36.5 35.5t-52 21.5t-59.5 7q-34 0 -67 -9t-59.5 -27t-42.5 -45t-16 -62q0 -31 12.5 -52t33 -34.5t46.5 -19.5t53 -6v-16h-83
q-58 0 -114.5 -15.5t-101 -47t-72 -79.5t-27.5 -114q0 -59 23.5 -102.5t61.5 -72t87 -42.5t100 -14t99 13t86 38.5t61 62.5t23 84q0 41 -17.5 71t-45.5 49.5t-63.5 29t-71.5 9.5q-26 0 -57 -6.5t-57.5 -20.5t-44.5 -36t-18 -53q0 -16 8 -28t20.5 -20t27 -12t28.5 -4v-17
q-19 0 -40.5 5t-39.5 15.5t-30 26.5t-12 39q0 36 24 61.5t58.5 41t72 23t65.5 7.5q40 0 85 -10t82.5 -32t62 -56t24.5 -83q0 -53 -28 -93.5t-74.5 -68.5t-106 -42t-121.5 -14q-63 0 -123.5 15t-108 46t-76.5 78t-29 112q0 55 24.5 107t75.5 91q54 43 119 58.5t132 15.5h4
q-39 14 -68.5 42.5t-29.5 73.5q0 40 21 70.5t55 50t77.5 29.5t87.5 10q41 0 79.5 -8.5t68.5 -24.5t48 -39.5t18 -53.5z" />
    <glyph glyph-name="afii10026" unicode="&#x418;" 
d="M958 802l-11.5 -27t-10.5 -26.5t-9.5 -28.5t-9.5 -34l-150 -600q-5 -20 -5 -32q0 -7 2.5 -15t12.5 -8t21 5.5t21 14t19 17.5l16 16l12 -11l-25.5 -26.5t-31 -26.5t-34.5 -20.5t-35 -8.5q-23 0 -30.5 15.5t-7.5 35.5q0 12 2 24t4 20l21 85q-25 -38 -56.5 -70.5t-68.5 -57
t-80 -38.5t-90 -14q-50 0 -90.5 16.5t-71 46t-49 69.5t-24.5 88q-37 13 -65 37.5t-47 56t-29 68.5t-10 75q0 72 33.5 138t95.5 116q58 46 136 73t175 27h207l2 -16q-104 -28 -183 -78.5t-133 -116.5q-60 -73 -89.5 -158.5t-29.5 -176.5v-20.5t2 -19.5h13q47 0 88.5 20
t70.5 56l12 -10q-31 -38 -75.5 -60.5t-95.5 -22.5h-11q6 -39 22 -72t40.5 -57t57.5 -37.5t75 -13.5q46 0 90.5 21.5t84.5 58.5q38 35 73 81.5t49 103.5l100 401q8 29 11 58t5 59h84zM493 756q-89 0 -164.5 -25.5t-132.5 -68.5q-60 -46 -94 -105t-34 -121q0 -67 33.5 -123.5
t95.5 -81.5v21q0 81 29 157t77.5 141.5t112.5 118.5t133 87h-56z" />
    <glyph glyph-name="afii10027" unicode="&#x419;" 
d="M958 802l-21.5 -53.5t-19.5 -62.5l-150 -600q-5 -22 -5 -32q0 -7 2.5 -15t12.5 -8t21 5.5t21 14t19 17.5l16 16l12 -11l-25.5 -26.5t-31 -26.5t-34.5 -20.5t-35 -8.5q-23 0 -30.5 15.5t-7.5 35.5q0 12 2 24t4 20l21 85q-25 -38 -56.5 -70.5t-68.5 -57t-80 -38.5t-90 -14
q-50 0 -90.5 16.5t-70.5 46t-49 69.5t-25 88q-37 13 -65 37.5t-47 56t-29 68.5t-10 75q0 72 33 137.5t96 116.5q58 46 136 73t175 27h207l2 -16q-105 -28 -183.5 -78.5t-132.5 -116.5q-60 -73 -89.5 -158.5t-29.5 -176.5v-20.5t2 -19.5h13q48 0 89 20t70 56l12 -10
q-31 -38 -75.5 -60.5t-95.5 -22.5h-11q6 -39 21.5 -72t40.5 -57t58.5 -37.5t74.5 -13.5q46 0 90.5 21.5t84.5 58.5q38 35 73 81.5t49 103.5l100 401q8 29 11 58t5 59h84zM493 756q-90 0 -165 -25.5t-132 -68.5q-60 -46 -94 -104.5t-34 -121.5q0 -67 33 -123.5t96 -81.5v21
q0 81 29 157t77.5 142t112.5 118.5t133 86.5h-56zM941 968q-4 -34 -23.5 -58.5t-47 -38t-58.5 -16t-58 7t-45 32t-19 59.5v7l54 1q-3 -32 7.5 -51t28.5 -26t40 -4t41.5 14.5t34.5 30t19 41.5z" />
    <glyph glyph-name="afii10028" unicode="&#x41a;" horiz-adv-x="909" 
d="M202 -4q-25 0 -56 5t-58 17.5t-45.5 33t-18.5 52.5q0 28 16.5 48t40.5 32.5t51.5 18t50.5 5.5q11 0 22 -0.5t22 -2.5l-3 -16q-17 3 -32 3q-19 0 -40 -5.5t-39 -17t-29.5 -28.5t-11.5 -39q0 -26 13.5 -43t34 -26.5t44 -13t44.5 -3.5q47 0 83.5 17t63.5 46t45 67.5t29 81.5
l47 182t38.5 135t32 96.5t28 66t26 43t26.5 27.5q-94 -2 -168.5 -28t-131.5 -68q-66 -50 -100.5 -112t-34.5 -125t44 -100t113 -44l-1 -13q-43 0 -80 10.5t-64.5 31.5t-43 51.5t-15.5 70.5q0 66 37 128.5t103 110.5q63 46 145.5 73t178.5 27h93l4 -15q-25 -15 -47.5 -44
t-46 -83t-49 -139t-57.5 -213q85 0 145.5 40.5t90.5 119.5l54 144q15 39 41 72.5t60 59t73 41.5t81 19l2 -16q-39 -10 -69 -24.5t-53.5 -35t-41.5 -48.5t-33 -65l-29 -75t-32 -73t-41.5 -66.5t-57.5 -56.5q-53 -38 -114 -50q32 -14 56 -37.5t43.5 -52t36.5 -59.5t35 -59
q5 -7 13.5 -14.5t16.5 -7.5q22 0 40.5 14t33.5 28l11 -12q-20 -22 -36.5 -37.5t-29.5 -26.5q-26 -21 -43 -21q-15 0 -28.5 9.5t-25.5 22.5t-21.5 27.5l-16.5 25.5q-14 23 -26.5 47.5l-22.5 44.5l-17.5 34t-21.5 33t-27.5 25t-36.5 10h-13l-15 -59q-13 -51 -39.5 -92t-63 -70
t-83 -44.5t-99.5 -15.5z" />
    <glyph glyph-name="afii10030" unicode="&#x41c;" horiz-adv-x="1188" 
d="M1268 787q-56 -56 -100 -131.5t-74.5 -160t-47 -172t-16.5 -165.5q0 -10 1 -29.5t4.5 -39t11.5 -34.5t23 -15q18 0 33.5 13.5t25.5 27.5l21 -14q-7 -10 -18 -23t-23.5 -24t-25.5 -19t-25 -8q-30 0 -47.5 19.5t-26.5 47t-12 57.5t-3 51q0 62 10 127t29 128.5t45.5 123
t59.5 111.5q-94 -109 -165 -234.5t-126 -260.5q-20 -41 -31.5 -76.5t-14.5 -80.5l-61 -20q4 88 17.5 171t34.5 168q25 102 60.5 198.5t83.5 189.5q-41 -29 -73.5 -67t-59 -81t-49.5 -90.5l-45 -95.5l-9 -20q24 -21 39 -40q19 -26 30 -52l-15 -6q-5 13 -12.5 25t-15.5 23
l-16 18t-18 17q-30 -65 -65.5 -130.5t-85.5 -117.5q-48 -48 -108.5 -76.5t-145.5 -28.5q-61 0 -105.5 14.5t-74 38.5t-44 56t-14.5 68q0 48 24 97t70.5 89t114 65.5t154.5 25.5q76 0 146 -18t121 -52q45 103 85 171t82 114q44 50 90 80t99 53l9 -13q-31 -43 -57.5 -92.5
t-49.5 -103.5q-45 -103 -73.5 -211t-45.5 -217q35 87 79.5 177.5t99 176t120 161.5t142.5 133zM645 356q-39 27 -98 40.5t-125 13.5q-86 0 -154 -23t-115 -59.5t-72 -80.5t-25 -86q0 -30 12.5 -56.5t38 -46.5t65 -31.5t93.5 -11.5q78 0 137 30t104 78t78.5 109t60.5 124z
" />
    <glyph glyph-name="afii10029" unicode="&#x41b;" horiz-adv-x="977" 
d="M966 752q-42 -23 -82 -63t-77 -92t-69.5 -113.5t-59.5 -128.5q24 -21 39 -40q19 -26 30 -52l-15 -6q-5 13 -12.5 25t-15.5 23l-16 18t-18 17q-30 -65 -65.5 -130.5t-85.5 -117.5q-48 -48 -108.5 -76.5t-145.5 -28.5q-61 0 -105.5 14.5t-74 38.5t-44 56t-14.5 68
q0 48 24 97t70.5 89t114 65.5t154.5 25.5q76 0 146 -18t121 -52q38 85 72.5 150.5t75.5 116.5t93 91t125 75l34 -17q-56 -56 -100 -131.5t-74.5 -160t-47 -172t-16.5 -165.5q0 -10 1 -29.5t4.5 -39t11.5 -34.5t23 -15q18 0 33.5 13.5t25.5 27.5l21 -14q-7 -10 -18 -23
t-23.5 -24t-25.5 -19t-25 -8q-30 0 -47.5 19.5t-26.5 47t-12 57.5t-3 51q0 159 55.5 306.5t152.5 277.5zM648 352q-39 27 -98 40.5t-125 13.5q-86 0 -154 -23t-115 -59.5t-72 -80.5t-25 -86q0 -30 12.5 -56.5t38 -46.5t65 -31.5t93.5 -11.5q78 0 137 30t104 78t78.5 109
t60.5 124z" />
    <glyph glyph-name="afii10031" unicode="&#x41d;" horiz-adv-x="882" 
d="M1026 796q-12 -59 -29.5 -107t-46 -87.5t-70.5 -72t-103 -59.5q-27 -94 -49.5 -188.5l-46.5 -189.5q-5 -20 -5 -32q0 -8 3 -15.5t12 -7.5q10 0 20.5 5.5t21 14t19.5 17.5l16 16l12 -11l-25 -26t-30.5 -26t-34 -20.5t-34.5 -8.5q-21 0 -30 15.5t-9 35.5q0 12 2 23.5
t4 19.5l82 332q2 5 3 10.5l2 10.5q-45 -16 -90.5 -28.5l-90.5 -25.5q-12 -42 -26 -82t-32.5 -77t-43 -71.5t-57.5 -65.5q-53 -50 -111.5 -74.5t-114.5 -24.5q-21 0 -42.5 5t-39 15.5t-28 28t-10.5 41.5q0 42 23.5 78t61.5 67q-16 29 -25.5 62.5t-9.5 71.5q0 81 26.5 145
t72 112t106 81t128.5 53.5t139.5 30t139.5 9.5h19q-39 -41 -65 -87t-44.5 -95.5t-32.5 -101l-29 -103.5q46 14 91.5 26.5t90.5 28.5q20 72 49 127t62 96q46 56 96 82.5t93 26.5h10zM960 746q0 15 -7 15q-12 0 -39 -21.5t-61 -80.5q-17 -30 -34.5 -70t-34.5 -94q70 35 111 88
t60 128q2 8 3.5 17.5t1.5 17.5zM615 774q-59 -2 -120 -15t-118 -37.5t-107 -60.5t-87.5 -82t-59 -102.5t-21.5 -122.5q0 -64 24 -110q37 27 79 48.5t86 39.5t89 32.5t89 26.5l25.5 100.5t29 99.5t38 95.5t53.5 87.5zM464 373q-42 -12 -85.5 -26.5t-86 -31.5t-83 -38.5
t-76.5 -47.5q19 -31 47 -51.5t63 -28.5l-3 -16q-38 8 -69.5 30t-53.5 54q-35 -29 -56 -61.5t-21 -69.5q0 -22 10 -36t26 -22.5t35 -12t36 -3.5q46 0 84.5 17t70.5 44.5t57.5 64t45.5 76.5t34.5 81t24.5 78z" />
    <glyph glyph-name="afii10032" unicode="&#x41e;" horiz-adv-x="838" 
d="M822 487q0 -95 -34 -184.5t-95 -159.5t-146 -112.5t-187 -42.5q-68 0 -125 21t-98.5 60.5t-65 97t-23.5 130.5q0 75 27.5 143t78.5 123q21 56 58 101.5t85 77.5t104 49.5t116 17.5q72 0 128.5 -24t95.5 -66.5t60 -102t21 -129.5zM758 503q0 56 -15.5 107.5t-46 91t-76 63
t-106.5 23.5q-47 0 -88.5 -12t-76.5 -33t-63.5 -49t-49.5 -59q32 22 67 40.5t71 30.5l5 -16q-51 -19 -95.5 -46t-80.5 -69q-11 -26 -19 -56.5t-8 -65.5q0 -34 9.5 -63.5t28.5 -51.5t48 -35t68 -13q31 0 58 13t47.5 34.5t32 50t11.5 58.5q0 32 -15 58t-42 43l11 14
q37 -19 61.5 -50t24.5 -74q0 -36 -16.5 -67t-43 -53t-60 -34.5t-67.5 -12.5q-91 0 -144.5 49.5t-53.5 134.5v10q-15 -38 -23 -78t-8 -85q0 -65 19.5 -118.5t55 -92t84 -59.5t107.5 -21q62 0 115 22.5t96.5 60.5t76.5 88t55.5 104.5t34 111t11.5 106.5z" />
    <glyph glyph-name="afii10034" unicode="&#x420;" horiz-adv-x="699" 
d="M435 231q2 5 3 10.5t3 11.5l73 313q12 54 39.5 96t66.5 74q-29 17 -67.5 27t-86.5 10q-91 0 -156.5 -24.5t-108.5 -60.5q-27 -22 -46 -48t-30 -54t-16 -56.5t-5 -55.5q0 -42 12 -74.5t32 -54.5t47 -33.5t56 -11.5q42 0 84 22.5t74 70.5l14 -8q-32 -53 -78 -77.5
t-95 -24.5q-36 0 -70 12.5t-60.5 37t-42.5 60t-16 81.5q0 70 37.5 130.5t97.5 105.5q61 46 136 72.5t150 26.5q51 0 98.5 -10t87.5 -32q64 34 139 34h12v-17q-78 0 -131 -29q39 -26 63 -68t24 -103q0 -45 -22 -88.5t-64 -78.5q-31 -25 -70.5 -42t-90.5 -22l-23 -104
q-2 -6 -3.5 -13t-4.5 -15q-14 -53 -41 -97t-65.5 -75.5t-86.5 -49t-102 -17.5q-26 0 -57.5 5.5t-59.5 18t-46.5 34.5t-18.5 55q0 30 16.5 50.5t41.5 33t53 18.5t51 6q12 0 23 -0.5t22 -2.5l-3 -17q-17 3 -32 3q-20 0 -41.5 -6t-39.5 -17.5t-30 -29t-12 -40.5q0 -27 14 -44.5
t35.5 -27.5t46 -14t45.5 -4q48 0 85 18.5t64.5 50t46 73t29.5 86.5zM717 571q0 42 -17.5 80t-53.5 67l-3 2q-43 -45 -63 -131l-48 -218q38 6 71.5 22t59 41.5t40 60t14.5 76.5z" />
    <glyph glyph-name="afii10035" unicode="&#x421;" horiz-adv-x="684" 
d="M696 566q0 -63 -22.5 -127t-65 -116.5t-103.5 -85.5t-138 -33q-29 0 -59 8t-54 24t-39.5 40.5t-15.5 58.5q0 35 16.5 68t43.5 56l11 -12q-23 -25 -34 -50.5t-11 -49.5q0 -29 12.5 -52t32.5 -39t45.5 -24.5t52.5 -8.5q62 0 113.5 32t89 82t58 111.5t20.5 121.5
q0 43 -11 82.5t-34 68.5t-60.5 46.5t-89.5 17.5q-76 0 -139.5 -43.5t-109 -112t-71 -152.5t-25.5 -165q0 -73 21 -128t56 -92t80.5 -55.5t94.5 -18.5q37 0 75 11t72.5 33.5t64.5 56.5t52 79l15 -7q-24 -52 -58.5 -90.5t-74.5 -64t-83.5 -38.5t-85.5 -13q-56 0 -108 20.5
t-92.5 61t-65 101.5t-24.5 142q0 57 12.5 116.5t37 114.5t60 103.5t81 84.5t100.5 57t119 21q60 0 105 -19.5t74.5 -52.5t44 -77t14.5 -92z" />
    <glyph glyph-name="afii10037" unicode="&#x423;" horiz-adv-x="911" 
d="M1031 793q-32 -3 -55 -31.5t-39 -66t-25 -76t-13 -62.5l-60 -338q-17 -96 -54.5 -163.5t-88.5 -113.5q-63 -57 -136.5 -81.5t-143.5 -24.5q-21 0 -53 4t-62 14.5t-51.5 29t-21.5 47.5q0 21 13.5 36t33 24t41 13.5t38.5 4.5q14 0 30 -2t30 -7l-5 -15q-11 3 -21 5t-21 2
q-14 0 -28 -3t-25 -10t-18.5 -17.5t-7.5 -26.5q0 -24 15 -39t36.5 -22.5t45.5 -10t41 -2.5q105 0 179.5 50.5t119.5 141.5q-23 -24 -53.5 -44t-65.5 -20q-31 0 -54 8t-46 19q-27 13 -61 24t-90 11q-27 0 -54 -2.5t-54 -6.5q-20 -2 -40 -2.5t-40 -0.5v16q94 0 174.5 26.5
t149.5 89.5q60 55 92.5 127.5t32.5 156.5q0 63 -23.5 118.5t-64.5 96.5t-96.5 64.5t-119.5 23.5q-52 0 -95 -17t-74.5 -47.5t-49 -74t-17.5 -95.5q0 -43 15.5 -79.5t43.5 -63.5t65 -42t81 -15q40 0 72 13t54.5 36.5t35 55.5t12.5 71h27q0 -42 -15.5 -79.5t-42.5 -65.5
t-63.5 -44t-79.5 -16q-49 0 -91.5 14.5t-74 42t-49.5 68t-18 92.5q0 62 24 114.5t64.5 90.5t95 59t114.5 21q70 0 130.5 -24t105 -67.5t70 -103t25.5 -129.5q0 -63 -20 -119.5t-54.5 -105t-81.5 -87t-101 -64.5q46 0 79.5 -12t62.5 -25q21 -10 40.5 -17t41.5 -7
q33 0 55.5 17.5t38 44t24.5 58.5t15 62l48 264q4 25 11.5 58.5t19 70t27.5 72t37.5 63.5t49 45.5t61.5 17.5v-16z" />
    <glyph glyph-name="afii10039" unicode="&#x425;" horiz-adv-x="890" 
d="M970 803l-38 -117t-52 -109.5t-80 -81.5t-121 -32v16q38 0 67.5 15t51.5 39.5t38 56t27.5 66t20.5 68.5l17 63q-68 -8 -123 -45t-95.5 -90.5t-65.5 -117.5t-32 -127h138l-4 -16h-136q-1 -10 -1 -19v-19q0 -48 11.5 -96.5t35 -90.5t59 -74.5t84.5 -47.5l53 48l11 -13
l-103 -91q-42 17 -75.5 44t-58.5 61t-42 74t-26 83q-25 -58 -60 -103q-53 -69 -127.5 -110t-165.5 -41q-25 0 -56 5t-58 17.5t-45.5 33t-18.5 52.5q0 28 16.5 48t40.5 32.5t51.5 18t50.5 5.5q11 0 22 -0.5t22 -2.5l-3 -16q-17 3 -32 3q-19 0 -40 -5.5t-39 -17t-29.5 -28.5
t-11.5 -39q0 -26 13.5 -43t34 -26.5t44 -13t44.5 -3.5q39 0 73.5 11t65 30.5t56.5 46t48 57.5q37 53 60.5 113t34.5 117h-123l4 16h122q7 38 12.5 77t5.5 77q0 42 -10 82.5t-32 71.5t-55.5 50t-81.5 19q-29 0 -57.5 -8.5t-54.5 -23.5q-38 -21 -65.5 -51.5t-46 -66.5
t-27.5 -76.5t-9 -82.5q0 -32 11.5 -65t32 -59.5t49 -43.5t63.5 -17q39 0 66.5 24t43.5 57l18 -9q-19 -42 -51.5 -67.5t-80.5 -25.5q-43 0 -78 19.5t-60 51t-39 70.5t-14 79q0 66 23.5 123t65.5 99.5t98.5 66.5t122.5 24q45 0 84.5 -13.5t69 -39t47 -62.5t18.5 -83
q24 40 57 77t72.5 65t85.5 45t96 17q17 0 33 -1t32 -4z" />
    <glyph glyph-name="afii10041" unicode="&#x427;" horiz-adv-x="928" 
d="M876 685q8 29 11 58t5 59h84l-21.5 -53.5t-19.5 -62.5l-150 -600q-5 -22 -5 -32q0 -7 2.5 -15t12.5 -8t21 5.5t21 14t19 17.5l16 16l12 -11l-25.5 -26.5t-31 -26.5t-34.5 -20.5t-35 -8.5q-23 0 -33 15.5t-10 35.5q0 26 5 44l88 341q-20 -29 -46.5 -58.5t-58.5 -54.5
t-69.5 -42t-78.5 -21q-56 -5 -97 8t-69 39t-42.5 62t-15.5 76t10 81t34 78q29 45 71 84.5t90 76.5h-62q-90 0 -165 -25.5t-132 -68.5q-60 -46 -94 -104.5t-34 -121.5q0 -51 18 -95t51 -73t80 -39.5t106 5.5l5 -16q-71 -18 -123.5 -5t-87.5 46.5t-52 83t-17 105.5
q0 72 33 137.5t96 116.5q58 46 136 73t175 27h127l-7 -30q-54 -34 -98.5 -82t-69.5 -105q-14 -32 -20 -68.5t-3.5 -72t15 -66.5t35.5 -53.5t57 -32.5t80 -2q42 5 81 28t72 56t57.5 73t37.5 81z" />
    <glyph glyph-name="afii10069" unicode="&#x434;" horiz-adv-x="319" 
d="M265 528q15 -58 23.5 -117.5t8.5 -119.5q0 -45 -8.5 -98t-30 -98t-59 -75t-94.5 -30q-37 0 -63 19.5t-26 58.5q0 35 17 63.5t43.5 49t59 32t64.5 11.5q11 0 22.5 -2t21.5 -7q5 33 7.5 66t2.5 66q0 87 -15 173l-4 16q-6 30 -15.5 60t-25.5 56l13 9q19 -24 32 -56t21 -61z
M240 191q-11 8 -24.5 10.5t-27.5 2.5q-24 0 -46 -15t-39 -37.5t-27.5 -48.5t-10.5 -48q0 -44 46 -44q31 0 53 19t37.5 46.5t24.5 59t14 55.5z" />
    <glyph glyph-name="afii10018" unicode="&#x411;" horiz-adv-x="909" 
d="M1012 811q-7 -53 -36 -77.5t-68 -30.5t-83 1.5t-81 19.5l-18 6t-17 5q-38 -22 -74.5 -88.5t-79.5 -184.5q-2 -5 -3.5 -9.5t-3.5 -9.5q47 31 102.5 37t103.5 -12.5t80.5 -60t32.5 -104.5q0 -81 -36 -145.5t-98.5 -104.5t-147 -52t-181.5 12v17q94 -21 167 -8t122.5 52.5
t75.5 101t26 136.5q0 55 -24 91t-62 49t-84 2t-90 -48l-34 -104t-36 -96t-46.5 -83.5t-64 -66.5t-89.5 -45t-123 -19q-31 -1 -61.5 5t-59.5 20l7 15h7q23 -13 49.5 -18t52.5 -4q68 1 116 21t82 53.5t56.5 78t40 94.5t32.5 103t34 103q25 65 48 113t45 81.5t44 54t46 32.5
q-55 16 -107 25.5t-102.5 6.5t-101 -20.5t-103.5 -54.5q-40 -28 -73.5 -65t-57.5 -80.5t-37 -92.5t-13 -101q0 -63 28 -109.5t82 -80.5l-8 -14q-69 36 -102.5 96t-33.5 132q0 55 17 105t46.5 93.5t69 79.5t85.5 64q67 41 142 62.5t149 21.5q58 1 113.5 -10t105.5 -32
q15 -7 34 -14.5t38 -13.5t37 -10t32 -2q21 3 43 20.5t30 59.5z" />
    <glyph glyph-name="afii10036" unicode="&#x422;" horiz-adv-x="1288" 
d="M526 336q38 101 76.5 186t77.5 147t79 96.5t82 34.5q28 0 46 -15t18 -41q0 -19 -8 -48l-108 -349q40 92 87 173.5t99.5 142.5t109 96.5t116.5 35.5q19 0 42 -4t34 -12l6 -4q-58 -60 -106 -128t-82.5 -143t-54 -157t-19.5 -169q0 -78 27.5 -123.5t93.5 -45.5
q31 0 63.5 22.5t51.5 64.5l14 -16q-6 -9 -19 -25t-32.5 -31.5t-46 -27t-60.5 -11.5q-80 0 -122 53.5t-42 142.5q0 57 15 120t48.5 132.5t88.5 147.5t136 165q-15 5 -28.5 6.5t-27.5 1.5q-52 0 -100 -29.5t-91 -79t-81 -114t-70 -134t-57 -139.5t-44 -130l-39 -128h-76
l218 706q3 11 4 20t2 17q0 17 -4.5 23.5t-19.5 6.5q-29 0 -62 -34.5t-67 -91t-67 -128t-62.5 -145t-53.5 -143t-40 -121.5l-32 -110h-75l79 258q25 79 44.5 151.5t19.5 152.5q0 63 -15.5 108t-42.5 73t-64 41t-79 13q-47 0 -86.5 -17.5t-69.5 -46t-50.5 -65t-28.5 -74.5
q-10 -41 -5.5 -75.5t19.5 -60.5t38 -43t52 -23q42 -10 87.5 3.5t87.5 51.5l12 -10q-43 -45 -93.5 -58.5t-98.5 -2.5q-35 8 -65 28t-50 49.5t-28 67.5t2 83q10 43 37 82t65 68.5t83.5 47t92.5 17.5q50 0 97.5 -16.5t84 -50t59 -84t22.5 -119.5q0 -24 -2 -45.5t-6.5 -45.5
t-13.5 -53.5t-22 -68.5z" />
    <glyph glyph-name="afii10033" unicode="&#x41f;" horiz-adv-x="1033" 
d="M528 335q37 93 85 178.5t102.5 151t114 105t119.5 39.5q9 0 21.5 -1t24.5 -3t22 -5t16 -7l6 -4q-58 -60 -108.5 -129t-88 -145.5t-59.5 -159t-22 -169.5q0 -78 27.5 -123t93.5 -45q31 0 63.5 22.5t51.5 64.5l19 -16q-6 -9 -19 -25t-32.5 -31.5t-46 -27t-60.5 -11.5
q-80 0 -122 53t-42 142q0 57 14.5 122t48 136t88.5 148.5t137 159.5q-15 5 -28.5 6.5t-27.5 1.5q-52 0 -101 -31.5t-93.5 -84t-83.5 -120.5t-72.5 -140.5t-59.5 -144.5t-45 -132l-32 -110h-75l79 258q25 79 44.5 151.5t19.5 152.5q0 63 -15.5 108t-42.5 73t-64 41t-79 13
q-47 0 -86.5 -17.5t-69.5 -46t-50.5 -65t-28.5 -74.5q-10 -41 -5.5 -75.5t19.5 -60.5t38 -43t52 -23q42 -10 87.5 3.5t87.5 51.5l12 -10q-43 -45 -93.5 -58.5t-98.5 -2.5q-35 8 -65 28t-50 49.5t-28 67.5t2 83q10 43 37 82t65 68.5t83.5 47t92.5 17.5q50 0 97.5 -16.5
t84 -50t59 -84t22.5 -119.5q0 -24 -1.5 -45.5t-6 -46t-13 -54t-21.5 -68.5z" />
    <glyph glyph-name="afii10025" unicode="&#x417;" horiz-adv-x="734" 
d="M682 636q-11 -43 -39 -74.5t-64 -52.5q33 -19 59 -47t42 -63.5t20 -77.5t-7 -90q-12 -52 -44 -97t-83 -78.5t-120.5 -53t-156.5 -19.5q-56 -1 -107.5 15t-90 45.5t-60.5 69t-19 86.5q3 48 28 84.5t63 61t83.5 36.5t89.5 10q57 -3 98 -19t67 -39t37.5 -50t10.5 -53
q-2 -32 -19 -53t-42.5 -33.5t-54.5 -17.5t-55 -3v15q22 1 45.5 5.5t44 15.5t34 28.5t15.5 43.5q1 31 -13.5 54t-38.5 38.5t-53 23.5t-55 9q-61 3 -109 -10t-81 -35.5t-51 -52t-19 -60.5q-2 -38 16.5 -73.5t52.5 -62.5t79.5 -43.5t96.5 -17.5q61 -1 117.5 16.5t102 48.5
t76.5 74t42 93q20 91 5 159t-70 103q-29 -15 -58 -24.5t-63 -11.5q-15 -2 -34 1t-36.5 8t-29 12.5t-11.5 15.5q1 16 14.5 25.5t33 14t43 6t44.5 1.5q49 -3 88 -19q2 2 5 4t5 4q26 23 44 53.5t20 65.5q2 31 -6 54.5t-23 39.5t-35.5 25.5t-43.5 12.5q-30 4 -61.5 -1.5
t-56.5 -18.5t-39.5 -32.5t-11.5 -44.5q1 -15 9.5 -25t20 -16t25 -8t25.5 0q8 2 15 3t14 4l6 -13q-11 -6 -22 -9t-22 -5q-16 -3 -35.5 -3.5t-37 5t-31 19.5t-16.5 40q3 33 25 58t54 41.5t69.5 24t73.5 6.5q36 -2 69.5 -13t57 -32t35 -52.5t4.5 -74.5zM435 478q21 1 44.5 9.5
t46.5 22.5q-15 6 -32 10t-37 6q-4 0 -20.5 -1t-33.5 -4t-30 -8.5t-9 -14.5q5 -14 25 -18t46 -2z" />
    <glyph glyph-name="afii10024" unicode="&#x416;" horiz-adv-x="1199" 
d="M1247 808q17 0 33 -1t32 -4l-38 -117t-52 -109.5t-80 -81.5t-121 -32v16q38 0 67.5 15t51.5 39.5t38 56t27.5 66t20.5 68.5l17 63q-78 -9 -139.5 -55.5t-103.5 -115.5q-24 -40 -41 -86t-25 -94h65l-7 -19h-61q-8 -57 -2.5 -114t27 -107t60.5 -89.5t98 -62.5l53 48l11 -13
l-103 -91q-63 26 -107 71.5t-68 105.5q-26 63 -31.5 127t4.5 125h-100l-110 -417h-60l109 417h-97q-17 -80 -49 -152.5t-71 -122.5q-51 -66 -123 -106t-166 -40q-25 0 -56 5t-58 17.5t-45.5 33t-18.5 52.5q0 28 16.5 48t40.5 32.5t51.5 18t50.5 5.5q11 0 22 -0.5t22 -2.5
l-3 -16q-17 3 -32 3q-19 0 -40 -5.5t-39 -17t-29.5 -28.5t-11.5 -39q0 -26 13.5 -43t34 -26.5t44 -13t44.5 -3.5q39 0 73.5 11t65 30.5t56.5 46t48 57.5q40 57 65 122t38 134h-142l6 19h139q5 32 7.5 63t2.5 62q0 42 -10 82.5t-32 71.5t-55.5 50t-81.5 19q-29 0 -57.5 -8.5
t-54.5 -23.5q-38 -21 -65.5 -51.5t-46 -66.5t-27.5 -76.5t-9 -82.5q0 -32 11.5 -65t32 -59.5t49 -43.5t63.5 -17q39 0 66.5 24t43.5 57l18 -9q-19 -42 -51.5 -67.5t-80.5 -25.5q-43 0 -78 19.5t-60 51t-39 70.5t-14 79q0 66 23.5 123t65.5 99.5t98.5 66.5t122.5 24
q77 -5 124.5 -37.5t72 -83.5t28 -115t-8.5 -130h99l99 361h59l-97 -361h97q15 77 52 144.5t87.5 118t110 80t121.5 29.5z" />
    <glyph glyph-name="afii10038" unicode="&#x424;" horiz-adv-x="883" 
d="M495 628q32 -11 52.5 -42.5t26.5 -75.5q3 11 6.5 21.5l6.5 19.5q32 94 96 162q-44 8 -82 17t-64 14q-65 12 -128 17.5t-115.5 -2.5t-89 -34t-46.5 -78q-3 -12 -1.5 -24.5t9 -23.5t22.5 -20t39 -14l-12 -15q-21 4 -37 15.5t-26.5 26.5t-15 31.5t-2.5 31.5q4 49 24 80.5
t50.5 50t70 25.5t84.5 5.5t93 -10t96 -19.5q31 -7 74 -19.5t91 -23.5q34 26 76 45t82 24q11 1 27.5 1.5t32.5 -3.5t27 -12.5t11 -24.5q-4 -34 -27 -51.5t-57.5 -24t-77 -4t-86.5 10.5q-39 -50 -61 -102.5t-39 -117.5q18 35 45.5 65.5t62.5 50.5q25 16 54 23.5t56 4t49 -19.5
t34 -48q12 -33 12 -76.5t-11.5 -89t-34 -88.5t-55.5 -75t-76 -48.5t-95 -8.5q-36 5 -58.5 40t-28.5 83l-6 -21l-33 -119q-13 -51 -40.5 -92t-66 -70.5t-86.5 -45t-101 -15.5q-25 0 -55.5 5t-57.5 17.5t-45 33t-18 52.5q0 28 17.5 48t42.5 32.5t53.5 18t51.5 5.5
q11 0 22 -0.5t22 -2.5l-3 -16q-17 3 -32 3q-19 0 -39.5 -5.5t-38 -17t-28.5 -28.5t-11 -39q0 -26 12 -43t30 -26.5t40 -13t43 -3.5q47 0 84.5 17t65.5 46.5t47 68t30 81.5l16 61l16 63q-17 -27 -40.5 -50t-50.5 -39q-27 -17 -56 -24.5t-56 -2.5q-36 7 -57 32.5t-30 59
t-8 69.5t8 63q14 54 43 103.5t70 82.5q45 34 88.5 43.5t72.5 -1.5zM482 286q17 25 26.5 44.5t15.5 39.5q20 38 25.5 76.5t0 71.5t-21.5 57t-39.5 33t-53.5 -0.5t-63 -42.5q-29 -28 -48 -72t-30 -95q-6 -24 -10.5 -55.5t-3.5 -61.5t8.5 -53.5t27.5 -29.5q23 -8 52.5 0.5
t53.5 26.5q35 25 60 61zM671 518q-17 -25 -27 -44.5t-15 -39.5q-21 -39 -26.5 -79t1.5 -73.5t24.5 -57t42.5 -30.5q26 -8 48.5 -1t42 23.5t35 40.5t28 50t20.5 52t13 47q6 24 10.5 55.5t4 61.5t-8.5 53.5t-27 29.5q-23 8 -52.5 -0.5t-53.5 -26.5q-33 -23 -60 -61zM883 800
q-38 -5 -70 -21.5t-61 -42.5q39 -9 75 -13.5t63.5 -1.5t44.5 15t17 38q-1 10 -9.5 15.5t-19 8t-22 3t-18.5 -0.5z" />
    <glyph glyph-name="afii10040" unicode="&#x426;" 
d="M493 756q-90 0 -165 -25.5t-132 -68.5q-60 -46 -94 -104.5t-34 -121.5q0 -67 33 -123.5t96 -81.5v21q0 81 29 157t77.5 142t112.5 118.5t133 86.5h-56zM886 85q-11 -71 -34.5 -124t-64 -85.5t-101.5 -42.5t-148 6q-3 1 -2 0.5t3 -1t3 -1t-2 0.5q-43 9 -86 21.5t-82.5 13
t-74.5 -19t-62 -73.5l-17 1q23 47 56.5 78t70.5 45q47 18 95.5 15.5t96.5 -12.5l95 -20t91 -6q48 5 82.5 46t54.5 135q-11 -12 -24.5 -24.5t-29 -23t-32.5 -17t-34 -6.5q-23 0 -30.5 15.5t-7.5 35.5q0 12 2 24t4 20l21 85q-25 -38 -56.5 -70.5t-68.5 -57t-80 -38.5t-90 -14
q-50 0 -90.5 16.5t-70.5 46t-49 69.5t-25 88q-37 13 -65 37.5t-47 56t-29 68.5t-10 75q0 72 33 137.5t96 116.5q58 46 136 73t175 27h207l2 -16q-105 -28 -183.5 -78.5t-132.5 -116.5q-60 -73 -89.5 -158.5t-29.5 -176.5v-20.5t2 -19.5h13q48 0 89 20t70 56l12 -10
q-31 -38 -75.5 -60.5t-95.5 -22.5h-11q6 -39 21.5 -72t40.5 -57t58.5 -37.5t74.5 -13.5q46 0 90.5 21.5t84.5 58.5q38 35 73 81.5t49 103.5l100 401q8 29 11 58t5 59h84l-21.5 -53.5t-19.5 -62.5l-150 -600q-5 -22 -5 -32q0 -7 2.5 -17.5t12.5 -10.5t23.5 8.5t26.5 20
t24.5 23.5l18.5 19z" />
    <glyph glyph-name="afii10043" unicode="&#x429;" horiz-adv-x="1370" 
d="M493 756q-90 0 -165 -25.5t-132 -68.5q-60 -46 -94 -104.5t-34 -121.5q0 -67 33 -123.5t96 -81.5v21q0 81 29 157t77.5 142t112.5 118.5t133 86.5h-56zM1243 56q0 -7 2.5 -17.5t12.5 -10.5t23.5 8.5t26.5 20t24.5 23.5l18.5 19l16 -12q-13 -74 -40 -128t-74 -86t-118 -41
t-173 8q-3 1 -1.5 0.5t3.5 -1t3.5 -1t-2.5 0.5q-51 10 -101 23t-96.5 13t-87.5 -20t-72 -77l-20 1q27 49 65 80.5t81 46.5q55 19 112 16.5t114 -12.5l112 -20t107 -6q28 2 52.5 12t45 31t37 54.5t27.5 82.5q-11 -12 -24.5 -24.5t-29 -23t-32.5 -17t-34 -6.5
q-23 0 -30.5 15.5t-7.5 35.5q0 12 2 24t4 20l21 85q-25 -38 -57 -71.5t-70 -59t-81.5 -40.5t-90.5 -15q-50 0 -86 15t-58.5 40.5t-31.5 58.5t-5 70q-25 -38 -56.5 -70.5t-69 -57t-80.5 -38.5t-90 -14q-50 0 -90.5 16.5t-70.5 46t-49 69.5t-25 88q-37 13 -65 37.5t-47 56
t-29 68.5t-10 75q0 72 33 137.5t96 116.5q58 46 136 73t175 27h202l2 -16q-105 -28 -181 -78.5t-130 -116.5q-60 -73 -89.5 -158.5t-29.5 -176.5v-20.5t2 -19.5h13q48 0 89 20t70 56l12 -10q-31 -38 -75.5 -60.5t-95.5 -22.5h-11q6 -39 21.5 -72t40.5 -57t58.5 -37.5
t74.5 -13.5q46 0 88 21.5t82 58.5q38 35 72.5 81.5t48.5 103.5l101 401q8 29 11 58t5 59h84l-21.5 -53.5t-19.5 -62.5l-91 -363q-12 -47 -18 -78.5t-8.5 -53t-2 -34.5t1.5 -22q8 -58 44 -90t99 -32q46 0 95 26t91 65.5t73.5 88t42.5 93.5l100 401q8 29 11 58t5 59h84
l-21.5 -53.5t-19.5 -62.5l-150 -600q-5 -22 -5 -32z" />
    <glyph glyph-name="afii10042" unicode="&#x428;" horiz-adv-x="1370" 
d="M493 756q-90 0 -165 -25.5t-132 -68.5q-60 -46 -94 -104.5t-34 -121.5q0 -67 33 -123.5t96 -81.5v21q0 81 29 157t77.5 142t112.5 118.5t133 86.5h-56zM1210 173q-25 -38 -57 -71.5t-70 -59t-81.5 -40.5t-90.5 -15q-50 0 -86 15t-58.5 40.5t-31.5 58.5t-5 70
q-25 -38 -56.5 -70.5t-69 -57t-80.5 -38.5t-90 -14q-50 0 -90.5 16.5t-70.5 46t-49 69.5t-25 88q-37 13 -65 37.5t-47 56t-29 68.5t-10 75q0 72 33 137.5t96 116.5q58 46 136 73t175 27h202l2 -16q-105 -28 -181 -78.5t-130 -116.5q-60 -73 -89.5 -158.5t-29.5 -176.5v-20.5
t2 -19.5h13q48 0 89 20t70 56l12 -10q-31 -38 -75.5 -60.5t-95.5 -22.5h-11q6 -39 21.5 -72t40.5 -57t58.5 -37.5t74.5 -13.5q46 0 88 21.5t82 58.5q38 35 72.5 81.5t48.5 103.5l101 401q8 29 11 58t5 59h84l-21.5 -53.5t-19.5 -62.5l-91 -363q-12 -47 -18 -78.5t-8.5 -53
t-2 -34.5t1.5 -22q8 -58 44 -90t99 -32q46 0 95 26t91 65.5t73.5 88t42.5 93.5l100 401q8 29 11 58t5 59h84l-21.5 -53.5t-19.5 -62.5l-150 -600q-5 -22 -5 -32q0 -7 2.5 -15t12.5 -8t21 5.5t21 14t19 17.5l16 16l12 -11l-25.5 -26.5t-31 -26.5t-34.5 -20.5t-35 -8.5
q-23 0 -30.5 15.5t-7.5 35.5q0 12 2 24t4 20z" />
    <glyph glyph-name="afii10046" unicode="&#x42c;" 
d="M488 802h214l2 -16q-108 -28 -189 -78.5t-137 -116.5q-63 -73 -93 -158.5t-30 -176.5q0 -47 11 -90.5t34 -78t60 -55t90 -20.5q81 1 139.5 31.5t96 76.5t55 100.5t16.5 103.5q0 36 -14 67.5t-36.5 54.5t-51 37t-59.5 14q-69 0 -111 -38.5t-42 -105.5q0 -35 18 -65.5
t47 -50.5l-9 -12l-2 -3q-35 22 -56 55.5t-21 75.5q0 40 16 72.5t43 55t63 34.5t75 12q42 0 80 -16t66 -44t45 -66t17 -83q1 -60 -27.5 -118.5t-81 -104.5t-126 -74.5t-161.5 -29.5q-52 0 -94 17.5t-73 48.5t-50.5 72t-25.5 89q-5 96 26.5 179.5t85 151.5t123 120.5
t141.5 86.5h-69q-43 2 -91 -5.5t-95 -24.5t-89 -42t-73 -58q-30 -31 -48.5 -70.5t-22.5 -82t9 -84.5t46 -78l-12 -10q-44 43 -56 98.5t-0.5 112t43 107.5t75.5 85q57 45 136 70.5t173 25.5v2z" />
    <glyph glyph-name="afii10044" unicode="&#x42a;" horiz-adv-x="884" 
d="M390 591q-62 -74 -92.5 -160t-30.5 -178q0 -47 11.5 -91t36 -78.5t62.5 -55.5t91 -21q81 1 137.5 32t91.5 77.5t50.5 101.5t14.5 104q0 36 -14 68t-36.5 55t-51 37t-59.5 14q-69 0 -111 -38.5t-42 -106.5q0 -35 18 -66t47 -51l-9 -12l-2 -3q-35 22 -55.5 56t-20.5 76
q0 41 16 73.5t43 55.5t62.5 35t74.5 12q42 0 78.5 -16.5t63.5 -45.5t42.5 -68t15.5 -84q1 -61 -24 -119.5t-73 -104t-117.5 -74t-157.5 -29.5q-51 0 -94 18t-75 48.5t-52.5 72.5t-26.5 90q-3 61 8 116.5t33.5 106t55 95t71.5 82.5q21 22 50 45.5t67 46.5l-125.5 31.5
t-133.5 15.5q-48 0 -85 -12t-61 -32.5t-36 -47t-11 -55.5q1 -37 23.5 -63.5t72.5 -26.5q37 0 62.5 28.5t25.5 72.5h16q0 -26 -8.5 -47.5t-23 -37.5t-34 -25t-41.5 -9q-55 0 -82.5 34.5t-27.5 84.5q0 17 3.5 36.5t12 39t21.5 37t31 31.5q29 22 69.5 36t94.5 14q40 0 76 -8
t69.5 -19.5t66.5 -25t66 -24.5q20 14 48 27.5t57.5 23.5t58.5 15t52 2.5t37 -14t15 -35.5q0 -20 -16 -33.5t-38 -22t-45.5 -12t-37.5 -3.5q-38 0 -74 5t-71 13q-36 -23 -67 -51.5t-57 -58.5zM668 709q9 0 25 2.5t32 8t27.5 14.5t11.5 23q0 10 -7 16t-17 9t-21 3.5t-18 0.5
q-35 0 -75 -19t-73 -40q27 -8 55.5 -13t59.5 -5z" />
    <glyph glyph-name="afii10045" unicode="&#x42b;" horiz-adv-x="1254" 
d="M1265 801q-60 -60 -110.5 -132.5t-88 -152.5t-58.5 -166t-21 -174q0 -77 28.5 -123.5t96.5 -46.5q32 0 65.5 22.5t52.5 65.5l15 -16l-20 -25t-33.5 -32t-47.5 -27.5t-62 -11.5q-83 0 -126.5 54t-43.5 144q0 57 14 121t48 135.5t89.5 150.5t138.5 167q-26 -6 -67 -49
t-92 -105.5l-108.5 -134.5t-115.5 -136q0 -3 0.5 -5.5t0.5 -5.5q1 -61 -27.5 -120t-80.5 -105.5t-125 -75t-162 -29.5q-51 0 -94 18t-75.5 48.5t-52.5 72.5t-26 90q-5 97 26 181t84.5 152.5t123 121t141.5 87.5h-68q-43 2 -91 -5.5t-95 -24.5t-89.5 -42.5t-73.5 -58.5
q-30 -31 -48 -71t-22 -82.5t9 -85t46 -78.5l-12 -11q-44 43 -56 99.5t-0.5 113t42.5 108t75 86.5q57 45 136.5 70.5t173.5 25.5v2h214l2 -16q-109 -28 -189.5 -79t-136.5 -117q-63 -74 -93 -160t-30 -178q0 -47 11 -91t34 -78.5t60 -55.5t90 -21q66 0 116.5 21t86.5 54.5
t58.5 75.5t33.5 85q-1 -1 -1.5 -1t-1.5 -1q-31 -28 -72.5 -43.5t-84 -17.5t-79.5 10.5t-59 40.5q-21 27 -27 60t1 65.5t24.5 63t43.5 54.5t58.5 38t69.5 14t72 -13t62.5 -35.5t47 -54t26.5 -68.5l75.5 90l79.5 98l79.5 95.5t74.5 82t65 57.5t52 22zM745 324q0 55 -28 96
t-69 59t-87 9t-83 -52q-35 -42 -41.5 -91t17.5 -87q15 -23 42.5 -37.5t64 -16t80 13t88.5 51.5q3 2 6.5 5.5l6.5 6.5q3 22 3 43z" />
    <glyph glyph-name="afii10047" unicode="&#x42d;" horiz-adv-x="709" 
d="M497 802q109 -13 168.5 -91t65.5 -213q3 -65 -10.5 -129t-40.5 -121.5t-67.5 -106t-92 -83t-112.5 -53t-130 -14.5q-48 0 -94 12.5t-81.5 35.5t-57 56t-21.5 75q0 43 18 78t47 60t66 38.5t75 13.5q49 0 84.5 -13.5t59 -34.5t35 -46t11.5 -49q0 -28 -14 -47.5t-35 -31.5
t-45.5 -17.5t-46.5 -5.5l-1 14q18 1 38.5 6.5t37.5 16t28 26.5t11 39q0 28 -14 48t-35 32.5t-46 18.5t-48 6q-52 0 -90.5 -13.5t-64 -35t-38 -48.5t-12.5 -55q0 -34 20 -62t53 -48.5t75 -31.5t87 -11q79 -2 142.5 31.5t110 89.5t76 128.5t42.5 150.5q-51 -33 -88 -36.5
t-65.5 7.5t-52 29t-47.5 28.5t-52.5 5.5t-66.5 -40l-18 6q43 37 76.5 52.5t60.5 17t49 -8t41.5 -22t37.5 -25.5t37.5 -18t42 0.5t49.5 28.5q8 43 5 90.5t-15.5 91t-35 79.5t-53.5 57q-18 13 -43.5 18.5t-53 3.5t-54 -10t-46.5 -21t-32 -31t-9 -39q1 -15 9.5 -25t20 -16
t25 -8t25.5 0q8 2 15 3t14 4l6 -13q-11 -6 -22 -9t-22 -5q-16 -3 -35.5 -3.5t-37 5t-31 19.5t-16.5 40q3 33 25 59t54.5 43t71.5 24t77 3z" />
    <glyph glyph-name="afii10048" unicode="&#x42e;" horiz-adv-x="1347" 
d="M909 -8q-68 0 -121 21t-90.5 60.5t-57 97t-19.5 130.5q0 51 12 96l-109 1l-22.5 -84.5l-23.5 -95.5q-13 -51 -39.5 -92t-63 -70t-83 -44.5t-99.5 -15.5q-30 0 -68 12t-65 24l5 15l32 -11t27.5 -9t29 -6t36.5 -2q47 0 85 16.5t66.5 45t48 66.5t30.5 81l22.5 90t21.5 80
h-87l6 19h86q25 94 45 156t37.5 101t33 61.5t33.5 39.5q-100 -2 -179 -32.5t-139 -81.5q-69 -60 -106 -134t-37 -149q0 -76 46.5 -120t119.5 -52l-1 -16q-45 0 -84 13t-67 37.5t-44 61t-16 84.5q0 79 39.5 154t109.5 132q66 54 151.5 86.5t187.5 32.5h94l4 -15
q-20 -12 -39.5 -36.5t-40 -66.5t-42 -104.5t-46.5 -151.5h109q16 51 43.5 95t64.5 80q2 38 20.5 73.5t47.5 65t67 49.5t80 28q68 12 135.5 4t118.5 -32q75 -38 115.5 -113.5t40.5 -175.5q0 -95 -34 -184.5t-95 -159.5t-146 -112.5t-187 -42.5zM769 397h-82q-11 -47 -11 -92
q0 -65 16 -118.5t46.5 -92t75.5 -59.5t104 -21q62 0 115 22.5t96.5 60.5t76.5 88t55.5 104.5t34 111t11.5 106.5q0 69 -23 130.5t-70 101.5q-23 19 -52 31.5t-61.5 18.5t-67 5t-67.5 -8q-25 -6 -50 -20t-47.5 -33.5t-40.5 -44t-29 -51.5q69 51 148 73l5 -16
q-48 -12 -89.5 -40t-76.5 -67q-3 -31 6 -63t33 -62l-8 -18q-27 23 -43 47t-23 50q-20 -29 -34 -60t-24 -64h78z" />
    <glyph glyph-name="afii10049" unicode="&#x42f;" horiz-adv-x="900" 
d="M940 736q46 -36 81 -92t41 -131l-25 3q-4 58 -36.5 109t-74.5 86q-42 -57 -75.5 -126t-57 -142t-36 -146t-12.5 -139q0 -10 1 -29.5t4.5 -39t12 -34.5t23.5 -15q18 0 34 13.5t26 27.5l21 -14q-7 -10 -18 -23t-24 -24t-26.5 -19t-25.5 -8q-30 0 -48 19.5t-27.5 47
t-12.5 57.5t-3 51q0 27 1 50.5t3.5 46t7 46t11.5 49.5q-4 1 -14 1h-12q-66 -4 -107.5 -24t-68 -50t-43.5 -67.5l-33.5 -77.5t-38 -80t-57.5 -74q-29 -27 -66 -43t-76 -25q-28 -6 -62.5 -6t-66 9.5t-54.5 29t-28 52.5q-5 30 10 53t39.5 39.5t54 27t54.5 13.5q13 2 26.5 3.5
t27.5 0.5l-6 -16q-10 0 -18 -0.5t-17 -1.5q-21 -3 -43.5 -12t-40 -24t-27 -34.5t-6.5 -43.5q4 -27 20.5 -43t39 -23t48 -6.5t47.5 5.5q37 10 62.5 34t45.5 56t35.5 69t33.5 74t39.5 71t52.5 59q26 20 62 35.5t87 23.5q-65 2 -112.5 24t-77 54t-42 69.5t-7.5 72.5
q8 55 36 95.5t70 67.5t94 41.5t108 17.5q62 3 125 -9t112 -41q12 13 20.5 24t21.5 23l35 -17l-25 -24t-23 -27zM891 736q-45 26 -99.5 37.5t-108.5 9.5q-38 -2 -74 -12.5t-66.5 -30.5t-53.5 -50t-36 -70q-14 -45 -9.5 -89.5t31 -79t75 -54t121.5 -14.5q6 0 20 0.5t20 1.5
q12 45 30.5 92t42 92.5t50.5 88t57 78.5z" />
    <glyph glyph-name="afii10065" unicode="&#x430;" horiz-adv-x="313" 
d="M304 67q-5 -10 -13 -22t-18.5 -22.5t-22.5 -17.5t-24 -7q-17 0 -24.5 12t-7.5 27q0 3 1 4q-18 -19 -42.5 -31t-50.5 -12q-38 0 -64 23.5t-26 63.5q0 28 14 52.5t36.5 42.5t50.5 28t57 10h110l-40 -159q-3 -9 -3 -17q0 -5 2 -8.5t7 -3.5q7 0 13.5 5t12.5 12.5t10.5 15
l7.5 12.5zM175 202q-22 0 -43 -10t-37.5 -26.5t-26.5 -37.5t-10 -43q0 -25 13.5 -46t40.5 -21q36 0 62 23.5t34 57.5l25 103h-58z" />
    <glyph glyph-name="afii10067" unicode="&#x432;" horiz-adv-x="331" 
d="M307 674q0 -44 -11.5 -83.5t-32.5 -75t-49 -67t-61 -57.5l-51 -201q17 14 37.5 22.5t41.5 8.5q47 0 78 -27t31 -75q0 -28 -12.5 -50t-32.5 -37.5t-45.5 -23.5t-52.5 -8h-135l89 353l-39 -26l-9 14l54 36l39 155q6 24 22.5 52t38.5 52.5t45 40.5t43 16q8 0 10 -6.5
t2 -12.5zM264 617q0 7 -2 15.5t-12 8.5q-14 0 -25 -15t-19 -35.5t-13 -40t-7 -28.5l-26 -103q21 18 39.5 40.5t33 48t23 53t8.5 56.5zM239 120q0 32 -18 56.5t-54 24.5q-22 0 -41 -13.5t-32 -30.5l-35 -141h74q45 0 75 29t31 75z" />
    <glyph glyph-name="afii10070" unicode="&#x435;" horiz-adv-x="263" 
d="M239 169q0 -21 -12.5 -35.5t-31.5 -23.5t-40 -13t-38 -4h-53v-5q0 -29 17 -45t46 -16q26 0 46.5 14.5t36.5 33.5l19 -11q-23 -29 -52.5 -47.5t-67.5 -18.5q-40 0 -68.5 22.5t-28.5 64.5q0 29 13 54t34.5 43.5t48.5 29t55 10.5q12 0 25.5 -3t24.5 -9t18.5 -16t7.5 -25z
M193 168q0 16 -10.5 23t-24.5 7q-18 0 -33.5 -7.5t-27.5 -20t-20 -28.5t-11 -32h31q13 0 29.5 3t31.5 10t25 18t10 27z" />
    <glyph glyph-name="afii10074" unicode="&#x438;" horiz-adv-x="311" 
d="M299 65l-12 -19.5t-16 -22.5t-19.5 -19t-20.5 -8q-15 0 -23.5 13.5t-8.5 27.5q0 13 3 25l6 25q-11 -16 -25 -32.5t-31.5 -29.5t-36.5 -21t-40 -8q-19 0 -32.5 10.5t-13.5 31.5q0 7 3 18l23 78q2 6 3 10t1 8q0 8 -6 8q-8 0 -15.5 -9.5t-11.5 -15.5l-14 10q5 7 15.5 20
t23.5 25.5t25.5 21.5t21.5 9q17 0 17 -22q0 -7 -2.5 -18t-5.5 -21l-31 -107q-1 -3 -2.5 -9.5t-1.5 -8.5q0 -19 18 -19q23 0 45.5 15.5t41.5 39t33.5 52t20.5 54.5l9 37h44l-40 -161q-2 -8 -2 -13q0 -3 0.5 -6t4.5 -3q6 0 11.5 5t11 12t9.5 14t6 11z" />
    <glyph glyph-name="afii10075" unicode="&#x439;" horiz-adv-x="313" 
d="M299 65l-12 -19.5t-16 -22.5t-19.5 -19t-20.5 -8q-15 0 -23.5 13.5t-8.5 27.5q0 13 3 25l6 25q-11 -16 -25 -32.5t-31.5 -29.5t-36.5 -21t-40 -8q-19 0 -32.5 10.5t-13.5 31.5q0 7 3 18l23 78q2 6 3 10t1 8q0 8 -6 8q-8 0 -15.5 -9.5t-11.5 -15.5l-14 10q5 7 15.5 20
t23.5 25.5t25.5 21.5t21.5 9q17 0 17 -22q0 -7 -2.5 -18t-5.5 -21l-31 -107q-1 -3 -2.5 -9.5t-1.5 -8.5q0 -19 18 -19q23 0 45.5 15.5t41.5 39t33.5 52t20.5 54.5l9 37h44l-40 -161q-2 -8 -2 -13q0 -3 0.5 -6t4.5 -3q6 0 11.5 5t11 12t9.5 14t6 11zM290 378
q-8 -30 -25 -49.5t-38.5 -29.5t-43.5 -11t-39.5 8t-28.5 26.5t-9 44.5l45 5q-7 -36 8 -49t37 -9.5t43 20.5t25 42z" />
    <glyph glyph-name="afii10076" unicode="&#x43a;" horiz-adv-x="336" 
d="M245 205q-24 -4 -43 -17t-36 -32l69 -124q3 -12 17 -12q17 0 28.5 15t19.5 28l14 -7q-11 -21 -31.5 -42.5t-46.5 -21.5q-25 0 -39 26l-57 103l-39 -60l-15 -61h-42l44 185q1 4 1.5 6.5t0.5 4.5q0 7 -4 7q-3 0 -10.5 -6t-15 -14l-14 -15t-8.5 -10l-12 11l16 18.5t21 22
t23 18t22 7.5q16 0 20.5 -9.5t4.5 -22.5q0 -6 -1.5 -18t-5.5 -24l-12 -49q11 18 27.5 38.5t36 38t41.5 29.5t44 14q17 2 30.5 -6t14.5 -26q1 -12 -4.5 -21.5t-14.5 -17t-20 -12.5t-21 -7l-3 16q22 6 22 32q-1 9 -7.5 12.5t-14.5 2.5z" />
    <glyph glyph-name="afii10080" unicode="&#x43e;" horiz-adv-x="302" 
d="M266 119q0 -31 -12 -54.5t-31 -39t-43 -23.5t-48 -8q-23 0 -43.5 6.5t-37 19.5t-26 33.5t-9.5 47.5q0 31 12 54.5t31.5 39.5t43.5 24t49 8q22 0 42.5 -6.5t36.5 -20t25.5 -33.5t9.5 -48zM218 122q0 33 -17 59.5t-52 26.5q-20 0 -35.5 -9.5t-26 -24.5t-16 -34t-5.5 -38
q0 -33 16.5 -60t51.5 -27q20 0 36 9.5t26.5 25t16 34.5t5.5 38z" />
    <glyph glyph-name="afii10079" unicode="&#x43d;" horiz-adv-x="343" 
d="M260 223h43l-42 -170q-2 -10 -2 -12q0 -6 5 -6q7 0 25 18l18 21l13 -11q-6 -8 -15 -19t-19.5 -21.5t-21.5 -18t-22 -7.5q-17 0 -22 11t-5 24q0 5 1 9.5t2 9.5l17 69h-129l-27 -120h-45l44 185q1 4 1.5 6.5t0.5 4.5q0 7 -4 7q-3 0 -10.5 -6t-15 -14l-14 -15t-8.5 -10
l-12 11l16 18.5t21 22t23 18t22 7.5q16 0 20.5 -9.5t4.5 -22.5q0 -6 -1.5 -18t-5.5 -24l-6 -24h129z" />
    <glyph glyph-name="afii10081" unicode="&#x43f;" horiz-adv-x="348" 
d="M318 67q-6 -10 -14 -22t-17.5 -23t-21 -18.5t-23.5 -7.5q-15 0 -25 11t-10 25q0 9 2 18t4 17l26 104q1 3 1 11q0 19 -17 19t-39 -14t-44 -38q-42 -48 -58 -106l-12 -43h-42l12 44l31 124q0 2 1 5.5t1 6.5q0 6 -5 6q-7 0 -25 -18l-18 -21l-13 11q6 7 15 18.5t19.5 22
t21.5 18t22 7.5q17 0 22 -11t5 -24q0 -10 -3 -19l-10 -39q11 16 25 32t31 29t36 21t39 8t34 -11t14 -32q0 -4 -0.5 -7.5t-1.5 -8.5l-26 -104q-2 -10 -2 -13q0 -5 2 -9.5t8 -4.5t12 5.5t11.5 13t10 14.5t7.5 11z" />
    <glyph glyph-name="afii10082" unicode="&#x440;" horiz-adv-x="330" 
d="M294 134q0 -24 -10 -48t-29.5 -43.5t-49 -31.5t-67.5 -12q-34 0 -61 14q-15 -61 -42 -101q-15 -21 -34 -35.5t-43 -21.5l-6 15q21 12 35 28.5t23 35.5t15 40t11 43l37 149q2 10 2 13q0 8 -7 8t-14.5 -5.5t-14.5 -13.5l-18 -20l-12 11q12 14 23.5 26t21.5 20q22 20 37 20
q22 0 27 -23q17 11 35 17t38 6q52 0 77.5 -27.5t25.5 -63.5zM244 138q0 28 -15 48t-48 20q-18 0 -34 -8t-29 -19l-36 -146q18 -15 43 -15q28 0 50 11.5t37.5 29t23.5 38.5t8 41z" />
    <glyph glyph-name="afii10083" unicode="&#x441;" horiz-adv-x="280" 
d="M250 169q0 -19 -17 -35.5t-56 -20.5l-3 16q16 5 24.5 17.5t8.5 23.5q0 18 -11 27.5t-25 9.5t-30.5 -8t-30.5 -23t-23.5 -36t-9.5 -48q0 -26 17 -46t44 -20q26 0 49 14.5t37 34.5l17 -10q-21 -29 -53 -48.5t-71 -19.5q-38 0 -65.5 23.5t-27.5 65.5q0 28 12.5 53t33 44
t46.5 29.5t54 10.5q38 0 59 -16.5t21 -37.5z" />
    <glyph glyph-name="afii10084" unicode="&#x442;" horiz-adv-x="508" 
d="M478 67q-5 -10 -13.5 -22t-18.5 -23t-21.5 -18.5t-22.5 -7.5q-16 0 -25 11t-9 25q0 9 1.5 18t3.5 17l26 102q1 5 1 13t-3.5 13.5t-11.5 5.5q-21 0 -42.5 -16.5t-40.5 -40t-33 -50t-19 -46.5l-13 -48h-44l43 169q1 4 1 11q0 8 -4 14.5t-13 6.5q-16 0 -37.5 -14t-42.5 -38
q-19 -21 -34 -47t-22 -53l-13 -49h-42l42 168q2 8 2 12q0 6 -5 6q-7 0 -25 -18l-18 -21l-13 11q6 7 15 18.5t19.5 22t21.5 18t22 7.5q17 0 22 -11t5 -24q0 -10 -3 -19l-9 -39q10 16 24.5 32t31 29t35.5 21t39 8q5 0 9 -0.5t9 -1.5q13 -4 21 -13t8 -23q0 -5 -2 -15l-9 -35
q10 16 24 31.5t30 28t34.5 20.5t38.5 8q19 0 32.5 -10t13.5 -31q0 -4 -0.5 -7.5t-1.5 -8.5l-26 -102q-3 -11 -3 -18q0 -13 11 -13q5 0 11 5.5t12 13t10.5 14.5t6.5 11z" />
    <glyph glyph-name="afii10085" unicode="&#x443;" horiz-adv-x="301" 
d="M236 23q-7 -29 -21 -59.5t-35 -56t-48.5 -42t-60.5 -16.5q-17 0 -27 9t-10 24q0 25 16.5 46t40 36t50 24.5t47.5 12.5l21 82q-11 -15 -24.5 -30.5t-29.5 -28t-34 -20.5t-38 -8t-33.5 11.5t-13.5 32.5q0 12 1 15l23 107q0 1 1 5t1 9q0 7 -4 7t-8.5 -4.5t-9 -10t-8.5 -11.5
l-6 -9l-14 8q5 9 12 20.5t16 21t19.5 16.5t22.5 7q15 0 20 -10t5 -23q0 -21 -5 -36l-22 -106q-2 -8 -2 -10q0 -8 4.5 -14t13.5 -6q21 0 43 16t40 39.5t31.5 49t18.5 45.5l13 51h43zM183 -17q-16 -3 -37 -10.5t-39.5 -19t-31.5 -27.5t-13 -36q0 -21 24 -21q18 0 34 12.5
t28 30.5t21 37.5t14 33.5z" />
    <glyph glyph-name="afii10086" unicode="&#x444;" horiz-adv-x="479" 
d="M392 136q0 29 -15.5 49.5t-46.5 20.5q-18 0 -34 -8t-29 -19l-37 -146q9 -8 20 -11.5t23 -3.5q25 0 46.5 9t37.5 25t25.5 37.5t9.5 46.5zM184 15q-32 -17 -66 -17q-45 0 -74 27t-29 73q0 31 14 55t36.5 39.5t50 23.5t55.5 8q17 0 32.5 -3.5t29.5 -11.5l106 425q1 2 1 10
q0 6 -6 6q-5 0 -12 -4.5t-14 -11t-13 -13t-9 -10.5l-12 11q6 8 16 19t22 21.5t24 18t23 7.5q14 0 20 -9t6 -22q0 -14 -4 -23l-107 -427q32 17 66 17q45 0 74 -27t29 -73q0 -32 -14 -55.5t-36.5 -39t-50 -23.5t-55.5 -8q-17 0 -32.5 3.5t-29.5 11.5q-6 -24 -15.5 -49.5
t-24 -47t-34 -38t-45.5 -23.5l-7 15q21 10 35 24.5t23.5 33.5t15.5 41t11 46zM66 86q0 -29 15.5 -49.5t46.5 -20.5q18 0 34 8t29 19l37 146q-9 8 -20 11.5t-23 3.5q-25 0 -46.5 -9t-37.5 -25t-25.5 -37.5t-9.5 -46.5z" />
    <glyph glyph-name="afii10087" unicode="&#x445;" horiz-adv-x="290" 
d="M278 189q0 -17 -11.5 -35t-28.5 -29l-9 11q7 5 12.5 16.5t5.5 22.5q0 7 -3.5 12t-13.5 5q-15 0 -28 -7.5t-24 -19t-19.5 -25.5t-14.5 -27h44l-4 -17h-46q-4 -9 -7.5 -21t-3.5 -23q0 -13 7 -22t26 -9t37.5 12.5t28.5 26.5l14 -8q-5 -11 -15.5 -21t-23 -17.5t-26 -12
t-25.5 -4.5q-26 0 -46 15.5t-22 42.5q-15 -20 -34 -35t-42 -23l-6 16q29 10 52 33t36 50h-52l4 17h52q5 12 11 30t6 33q0 10 -3.5 16.5t-14.5 6.5q-18 0 -36 -16.5t-29 -30.5l-13 10q17 26 42.5 43.5t57.5 17.5q19 0 31 -12t12 -31q0 -5 -0.5 -8.5t-1.5 -7.5q6 8 15 18.5
t20.5 19.5t24 15t24.5 6q21 0 30.5 -10t9.5 -24z" />
    <glyph glyph-name="afii10089" unicode="&#x447;" horiz-adv-x="283" 
d="M197 180q-20 -13 -44.5 -25.5t-47 -18t-38.5 -0.5t-17 27l-28 -38l-14 10l52 79h41q-16 -29 -6 -38.5t33.5 -5.5t54 17t54.5 29l19 -14q-15 -9 -31 -21.5t-31.5 -27t-28.5 -29.5t-22 -29q-7 -11 -10.5 -26.5t0.5 -27.5t17 -18t39 2q17 5 34 17.5t30 26.5l15 -14
q-15 -17 -35.5 -29t-42.5 -20q-35 -11 -66 -8t-44 29q-4 18 0 33.5t17.5 32t38 36.5l61.5 48v3z" />
    <glyph glyph-name="afii10088" unicode="&#x446;" horiz-adv-x="327" 
d="M302 65q-5 -45 -17.5 -79t-32 -55t-45 -27.5t-55.5 3.5q-3 1 2 -0.5t3 -0.5q-15 6 -28 14.5t-25 10.5t-23 -8t-23 -42l-14 1q8 28 24 45.5t29 26.5q20 14 37.5 12t34.5 -10l27.5 -11.5t27.5 -3.5q8 1 17 6.5t17.5 16.5t15.5 30.5t11 49.5l-21.5 -31.5t-32.5 -16.5
q-15 0 -23.5 13.5t-8.5 27.5q0 13 3 25l6 25q-11 -16 -25.5 -32.5t-31.5 -29.5t-36 -21t-40 -8q-19 0 -32.5 10.5t-13.5 31.5q0 7 3 18l23 78q4 11 4 18q0 8 -6 8q-8 0 -15.5 -9.5t-11.5 -15.5l-14 10q5 7 16 20t23.5 25.5t25 21.5t21.5 9q17 0 17 -22q0 -7 -2.5 -18
t-5.5 -21l-31 -107q-1 -3 -2.5 -9.5t-1.5 -8.5q0 -19 18 -19q22 0 45 15.5t42 39t33.5 52t20.5 54.5l9 37h44l-40 -161q-2 -10 -2 -13t0.5 -6t4.5 -3q6 0 12.5 5t12.5 12t10.5 14t6.5 11z" />
    <glyph glyph-name="afii10090" unicode="&#x448;" horiz-adv-x="478" 
d="M199 37q0 13 3 25l6 25q-11 -16 -25.5 -32.5t-31.5 -29.5t-36 -21t-40 -8q-19 0 -32.5 10.5t-13.5 31.5q0 7 3 18l23 78q4 11 4 18q0 8 -6 8q-8 0 -15.5 -9.5t-11.5 -15.5l-14 10q5 7 16 20t23.5 25.5t25 21.5t21.5 9q17 0 17 -22q0 -7 -2.5 -18t-5.5 -21l-31 -107
q-1 -3 -2.5 -9.5t-1.5 -8.5q0 -19 18 -19q22 0 45 15.5t42 39t33.5 52t20.5 54.5l9 37h44l-40 -161q-1 -3 -2.5 -9.5t-1.5 -8.5q0 -19 18 -19q22 0 45 15.5t42 39t33.5 52t20.5 54.5l9 37h44l-40 -161q-2 -10 -2 -13t0.5 -6t4.5 -3q6 0 11.5 5t11 12t9.5 14t6 11l14 -8
l-12 -19.5t-16 -22.5t-19.5 -19t-20.5 -8q-15 0 -23.5 13.5t-8.5 27.5q0 13 3 25l6 25q-11 -16 -25.5 -32.5t-31.5 -29.5t-36 -21t-40 -8q-19 0 -31.5 10t-12.5 31z" />
    <glyph glyph-name="afii10091" unicode="&#x449;" horiz-adv-x="496" 
d="M453 44l-21.5 -31.5t-32.5 -16.5q-15 0 -23.5 13.5t-8.5 27.5q0 13 3 25l6 25q-11 -16 -25.5 -32.5t-31.5 -29.5t-36 -21t-40 -8q-19 0 -31.5 10t-12.5 31q0 13 3 25l6 25q-11 -16 -25.5 -32.5t-31.5 -29.5t-36 -21t-40 -8q-19 0 -32.5 10.5t-13.5 31.5q0 7 3 18l23 78
q4 11 4 18q0 8 -6 8q-8 0 -15.5 -9.5t-11.5 -15.5l-14 10q5 7 16 20t23.5 25.5t25 21.5t21.5 9q17 0 17 -22q0 -7 -2.5 -18t-5.5 -21l-31 -107q-1 -3 -2.5 -9.5t-1.5 -8.5q0 -19 18 -19q22 0 45 15.5t42 39t33.5 52t20.5 54.5l9 37h44l-40 -161q-1 -3 -2.5 -9.5t-1.5 -8.5
q0 -19 18 -19q22 0 45 15.5t42 39t33.5 52t20.5 54.5l9 37h44l-40 -161q-2 -10 -2 -13t0.5 -6t4.5 -3q6 0 12.5 5t12.5 12t10.5 14t6.5 11l16 -8q-6 -47 -21 -83t-39 -58t-56 -29.5t-70 3.5q-4 1 1 -0.5t3 -0.5q-20 6 -36.5 15t-31.5 11t-29.5 -8.5t-29.5 -43.5l-18 1
q17 34 34 51t34 26q25 15 48 12.5t44 -10.5q17 -6 35 -11.5t35 -3.5q10 1 21.5 6.5t22 17.5t19.5 32.5t14 51.5z" />
    <glyph glyph-name="afii10066" unicode="&#x431;" horiz-adv-x="302" 
d="M264 119q-2 -31 -15.5 -54.5t-33.5 -39t-44.5 -23.5t-48.5 -8q-23 0 -43.5 6.5t-35.5 19.5t-23.5 33.5t-6.5 47.5q2 31 15.5 54.5t33.5 39.5t45 24t50 8q52 0 84 -33q-8 29 -19 60.5t-25 63.5l-33.5 76.5t-25.5 65.5q-9 27 -7 54t24 46q16 14 42 23t54.5 16t58 13.5
t53.5 16.5t40.5 24.5t18.5 37.5l15 -2q-10 -54 -42.5 -81.5t-72.5 -40.5t-80 -19t-65 -18q-14 -6 -19.5 -14.5t-6.5 -18.5t2 -21.5t7 -22.5q10 -31 26 -64.5l35 -75.5q22 -49 34 -96.5t9 -97.5zM216 122q2 33 -13 59.5t-50 26.5q-20 0 -36 -9.5t-27.5 -24.5t-18.5 -34
t-8 -38q-2 -33 12.5 -60t49.5 -27q20 0 36.5 9.5t28 25t18.5 34.5t8 38z" />
    <glyph glyph-name="afii10068" unicode="&#x433;" horiz-adv-x="264" 
d="M33 157q16 24 41.5 43t57.5 24q13 2 28 1t28 -5.5t22 -12t11 -18.5q3 -20 -6.5 -33.5t-25.5 -23.5t-35.5 -19t-35.5 -18.5t-25 -21.5t-4 -30q2 -20 18.5 -25.5t37.5 -0.5t42.5 18t33.5 30l12 -16q-23 -26 -48 -38t-54 -16q-31 -5 -58.5 2t-31.5 29q-4 21 5 36t24.5 26
t34 19.5t34.5 17.5t25.5 20.5t6.5 28.5q-8 18 -26 22t-38.5 -2t-38.5 -19t-24 -29z" />
    <glyph glyph-name="afii10072" unicode="&#x436;" horiz-adv-x="549" 
d="M116 221q26 3 43.5 -3.5t28 -18.5t14.5 -28.5t3 -33.5h48l22 85l44 1l-22 -86h51l2 2q26 40 62 63t67 21q23 -1 34.5 -10t13.5 -23q2 -18 -7 -36t-26 -30l-11 11q6 5 9.5 21.5t1.5 27.5q0 8 -4.5 13t-15.5 4q-20 0 -37.5 -17.5t-30.5 -41.5t-19.5 -50t-3.5 -43
q1 -13 10.5 -22t29.5 -8q20 -1 40 12t28 27l16 -7q-3 -11 -12.5 -21.5t-22 -18t-26 -12t-25.5 -4.5q-34 -3 -54 8.5t-29 30.5t-8 42t10 44h-48l-30 -120h-45l31 120h-45q-4 -24 -18 -44q-26 -40 -59.5 -62t-65.5 -20q-44 3 -47 31q-4 17 5.5 36t26.5 30l11 -11
q-7 -5 -10.5 -21.5t-1.5 -27.5q1 -7 6 -13t16 -4q22 3 39 21t28 41.5t16 48t2 41.5q-2 13 -10.5 22.5t-28.5 8.5t-38 -13.5t-26 -26.5l-17 7q7 22 33.5 38.5t51.5 18.5z" />
    <glyph glyph-name="afii10073" unicode="&#x437;" horiz-adv-x="269" 
d="M160 26q14 11 20.5 24.5t5 25t-11.5 19.5t-28 8q-8 0 -23 0.5t-26 -0.5l5 19q9 -1 20 -1h18q31 1 43 14t15 40q2 13 -5.5 20.5t-21.5 9.5q-6 1 -19 1.5t-25.5 -2t-21 -8.5t-5.5 -16q1 -5 3 -7.5t3 -5.5q1 -13 -17 -16q-8 -1 -14.5 2.5t-7.5 8.5q-4 23 8 36.5t31.5 20
t42 7.5t39.5 -2q31 -5 46.5 -22.5t12.5 -37.5q-3 -15 -20 -31t-51 -18q19 -2 33 -9.5t21.5 -18t8 -23t-7.5 -24.5q-13 -19 -42.5 -33t-74.5 -15q-17 0 -35 2.5t-32.5 10t-24 20.5t-9.5 33q0 16 8 27.5t20 11.5q18 0 18 -15q0 -7 -6 -11t-11 -4h-4q-1 -3 -1 -8
q0 -17 15.5 -28.5t35.5 -15.5q17 -3 38 -1.5t34 12.5z" />
    <glyph glyph-name="afii10077" unicode="&#x43b;" horiz-adv-x="334" 
d="M163 203q-3 -29 -8 -53.5t-12 -44.5q-14 -39 -33.5 -63.5t-42.5 -38.5q-14 -8 -32 -3.5t-23 20.5q-9 22 4.5 41t30.5 29l8 -14q-10 -6 -13 -19t2 -19q7 -8 17.5 -6.5t21.5 11.5t22 28t20 43q13 36 17 82q-14 -6 -27 -13t-26 -18l-10 16q25 21 61.5 35t69 14t52.5 -16
t11 -55l-24 -102q-3 -8 -3 -13t2.5 -9.5t8.5 -4.5t13 5.5t13.5 13t11.5 14.5t7 11l19 -9q-6 -10 -15 -22t-19.5 -22.5t-22.5 -17.5t-25 -7q-16 0 -26.5 10.5t-11.5 24.5q0 9 2 18t4 17l20 77q4 16 5.5 28.5t-0.5 21.5t-8 14t-17 4q-23 -2 -44 -8z" />
    <glyph glyph-name="afii10078" unicode="&#x43c;" horiz-adv-x="439" 
d="M220 0h-47q3 12 6 30t5.5 38t3 41.5t-0.5 41.5q-3 32 -17 44q-4 -42 -14 -73.5t-23.5 -54.5t-29.5 -38.5t-33 -25.5q-14 -8 -32 -3.5t-23 20.5q-9 22 4.5 41t30.5 29l8 -14q-10 -6 -13 -19t2 -19q9 -11 24.5 -5t31 27t28.5 57.5t17 86.5q-8 0 -22 -7q-8 -5 -15.5 -10.5
l-16.5 -12.5l-8 16q18 17 41.5 27t44.5 10t37 -13t20 -43q2 -15 2 -33t-1 -36t-3 -35t-4 -30l129 184l1 2h43l-42 -168q-2 -10 -2 -12q0 -6 5 -6q7 0 25 18l18 21l13 -11q-6 -8 -15 -19t-19.5 -21.5t-21.5 -18t-22 -7.5q-17 0 -22 11t-5 24q0 5 1 9.5t2 9.5l30 123z" />
    <glyph glyph-name="afii10092" unicode="&#x44a;" horiz-adv-x="368" 
d="M227 214q-9 -6 -17.5 -17t-16 -25.5t-14 -30t-11.5 -30.5q5 7 13 13t17 11q48 30 82 24t46 -30t-1.5 -56.5t-59.5 -55.5q-33 -13 -61.5 -19t-51.5 -3q-27 4 -40.5 21.5t-11 45t22.5 62t60 72.5q-17 -15 -38 -25.5t-39 -13t-31 4.5t-14 27l-30 -43l-19 9l53 73l42 2
q-15 -28 -8 -36.5t26.5 -5t45.5 16t48 27.5l10 -17zM244 31q27 12 36.5 34.5t4 41t-25.5 26t-52 -10.5q-14 -9 -28 -21.5t-21 -24.5q-3 -18 0 -32t12 -21.5t26 -7t43 12.5z" />
    <glyph glyph-name="afii10094" unicode="&#x44c;" horiz-adv-x="306" 
d="M106 107q17 22 40 36t46.5 19.5t43.5 1.5t30 -19q9 -12 10 -29t-6.5 -34.5t-24.5 -34.5t-45 -30q-38 -16 -62 -20t-48 0q-17 3 -26 10t-13 17t-4 21t2 22l28 107q1 4 1.5 6.5t0.5 4.5q0 7 -4 7t-12 -6t-16 -14l-15 -15t-9 -10l-13 11q7 7 17.5 18.5t23 22t25 18t23.5 7.5
q17 0 22 -9.5t5 -22.5q0 -6 -2 -16t-5 -22zM179 30q16 7 26.5 18.5t16 24.5t6 26t-3.5 23q-8 16 -24.5 17t-35 -7t-35 -22t-23.5 -29q-8 -19 -9 -34t6.5 -23.5t24.5 -8t46 12.5z" />
    <glyph glyph-name="afii10093" unicode="&#x44b;" horiz-adv-x="447" 
d="M106 107q17 22 40 36t46.5 19.5t43.5 1.5t30 -19q9 -12 10 -29t-6.5 -34.5t-24.5 -34.5t-45 -30q-38 -16 -62 -20t-48 0q-17 3 -26 10t-13 17t-4 21t2 22l28 107q1 4 1.5 6.5t0.5 4.5q0 7 -4 7t-12 -6t-16 -14l-15 -15t-9 -10l-13 11q7 7 17.5 18.5t23 22t25 18t23.5 7.5
q17 0 22 -9.5t5 -22.5q0 -6 -2 -16t-5 -22zM182 31q16 7 26.5 18.5t16 24.5t6 26t-3.5 23q-8 16 -25 17t-36 -7.5t-36 -22.5t-24 -29q-8 -19 -9 -34t6.5 -23.5t24.5 -8t46 12.5zM427 67q-5 -10 -13 -22t-18 -23t-21.5 -18.5t-23.5 -7.5q-14 0 -22 11t-8 25q0 9 1.5 17.5
t3.5 17.5l26 107q1 4 1.5 6.5t0.5 4.5q0 7 -4 7q-3 0 -10.5 -6t-15 -14l-14 -15t-8.5 -10l-12 11l16 18.5t21 22t23 18t22 7.5q16 0 20.5 -9.5t4.5 -22.5q0 -6 -2 -16t-5 -22l-20 -78l-4 -18t-2 -14q0 -13 10 -13q5 0 10.5 5.5t11 12.5t10 14.5t7.5 11.5z" />
    <glyph glyph-name="afii10095" unicode="&#x44d;" horiz-adv-x="277" 
d="M87 -5q-54 3 -57 31q-5 19 5 38t30 30l15 -11q-6 -7 -10 -19t-3 -24t9.5 -20t27.5 -6q14 0 29.5 6.5t28.5 19t22.5 30t12.5 40.5h-112l2 17h111v4q-1 31 -14 47.5t-34 20.5q-20 4 -40.5 -5t-34.5 -32l-20 7q17 29 46 43.5t59 13.5q38 0 63 -22.5t26 -67.5
q1 -29 -11.5 -55t-34.5 -45.5t-52 -30.5t-64 -10z" />
    <glyph glyph-name="afii10096" unicode="&#x44e;" horiz-adv-x="441" 
d="M412 123q0 -31 -12 -54.5t-31 -39t-43 -23.5t-48 -8q-23 0 -43.5 6.5t-37 19.5t-26 33.5t-9.5 47.5v15h-56l-27 -120h-45l44 185q1 4 1.5 6.5t0.5 4.5q0 7 -4 7q-3 0 -10.5 -6t-15 -14l-14 -15t-8.5 -10l-12 11l16 18.5t21 22t23 18t22 7.5q16 0 20.5 -9.5t4.5 -22.5
q0 -6 -1.5 -18t-5.5 -24l-6 -24h55q3 12 9 22q12 24 31.5 40t43.5 24t49 8q22 0 42.5 -6.5t36.5 -20t25.5 -33.5t9.5 -48zM364 126q0 33 -17 59.5t-52 26.5q-20 0 -35.5 -9.5t-26 -24.5t-16 -34t-5.5 -38q0 -33 16.5 -60t51.5 -27q20 0 36 9.5t26.5 25t16 34.5t5.5 38z" />
    <glyph glyph-name="afii10097" unicode="&#x44f;" horiz-adv-x="307" 
d="M131 100q-35 3 -56.5 21t-20.5 38q1 28 27 42.5t60.5 20.5t70.5 5t58 -4l-42 -170q-2 -10 -2 -12q0 -6 5 -6q7 0 25 18l18 21l13 -11q-6 -8 -15 -19t-19.5 -21.5t-21.5 -18t-22 -7.5q-17 0 -22 11t-5 24q0 10 3 19l12 52q-5 -3 -18.5 -5t-25.5 0q-14 -38 -39 -64t-46 -34
q-15 -5 -32.5 -2t-22.5 19q-9 22 4.5 41t30.5 29l8 -14q-10 -6 -13 -19t2 -19q7 -8 18 -7t23 9.5t24 24.5t21 38zM225 207q-17 3 -35.5 2.5t-35 -5t-29.5 -12.5t-18 -20q-6 -23 4 -35t26.5 -17t35 -4t29.5 6z" />
    <glyph glyph-name="afii10062" unicode="&#x40e;" horiz-adv-x="911" 
d="M1031 793q-32 -3 -55 -31.5t-39 -66t-25 -76t-13 -62.5l-60 -338q-17 -96 -54.5 -163.5t-88.5 -113.5q-63 -57 -136.5 -81.5t-143.5 -24.5q-21 0 -53 4t-62 14.5t-51.5 29t-21.5 47.5q0 21 13.5 36t33 24t41 13.5t38.5 4.5q14 0 30 -2t30 -7l-5 -15q-11 3 -21 5t-21 2
q-14 0 -28 -3t-25 -10t-18.5 -17.5t-7.5 -26.5q0 -24 15 -39t36.5 -22.5t45.5 -10t41 -2.5q105 0 179.5 50.5t119.5 141.5q-23 -24 -53.5 -44t-65.5 -20q-31 0 -54 8t-46 19q-27 13 -61 24t-90 11q-27 0 -54 -2.5t-54 -6.5q-20 -2 -40 -2.5t-40 -0.5v16q94 0 174.5 26.5
t149.5 89.5q60 55 92.5 127.5t32.5 156.5q0 63 -23.5 118.5t-64.5 96.5t-96.5 64.5t-119.5 23.5q-52 0 -95 -17t-74.5 -47.5t-49 -74t-17.5 -95.5q0 -43 15.5 -79.5t43.5 -63.5t65 -42t81 -15q40 0 72 13t54.5 36.5t35 55.5t12.5 71h27q0 -42 -15.5 -79.5t-42.5 -65.5
t-63.5 -44t-79.5 -16q-49 0 -91.5 14.5t-74 42t-49.5 68t-18 92.5q0 62 24 114.5t64.5 90.5t95 59t114.5 21q70 0 130.5 -24t105 -67.5t70 -103t25.5 -129.5q0 -63 -20 -119.5t-54.5 -105t-81.5 -87t-101 -64.5q46 0 79.5 -12t62.5 -25q21 -10 40.5 -17t41.5 -7
q33 0 55.5 17.5t38 44t24.5 58.5t15 62l48 264q4 25 11.5 58.5t19 70t27.5 72t37.5 63.5t49 45.5t61.5 17.5v-16zM902 937q-4 -34 -23.5 -58.5t-47 -38t-58.5 -16t-58 7t-45 32t-19 59.5v7l54 1q-3 -32 7.5 -51t28.5 -26t40 -4t41.5 14.5t34.5 29.5t19 42z" />
    <glyph glyph-name="afii10110" unicode="&#x45e;" horiz-adv-x="301" 
d="M236 23q-7 -29 -21 -59.5t-35 -56t-48.5 -42t-60.5 -16.5q-17 0 -27 9t-10 24q0 25 16.5 46t40 36t50 24.5t47.5 12.5l21 82q-11 -15 -24.5 -30.5t-29.5 -28t-34 -20.5t-38 -8t-33.5 11.5t-13.5 32.5q0 12 1 15l23 107q0 1 1 5t1 9q0 7 -4 7t-8.5 -4.5t-9 -10t-8.5 -11.5
l-6 -9l-14 8q5 9 12 20.5t16 21t19.5 16.5t22.5 7q15 0 20 -10t5 -23q0 -21 -5 -36l-22 -106q-2 -8 -2 -10q0 -8 4.5 -14t13.5 -6q21 0 43 16t40 39.5t31.5 49t18.5 45.5l13 51h43zM183 -17q-16 -3 -37 -10.5t-39.5 -19t-31.5 -27.5t-13 -36q0 -21 24 -21q18 0 34 12.5
t28 30.5t21 37.5t14 33.5zM290 376q-17 -45 -46 -68t-57 -21q-19 -2 -34.5 4t-26 17t-16 25.5t-4.5 31.5l44 5q-5 -24 1 -37.5t17.5 -18.5t27 -2.5t30 11t25 21.5t13.5 30z" />
    <glyph glyph-name="afii10050" unicode="&#x490;" horiz-adv-x="767" 
d="M859 723h-87q-34 0 -63.5 -22.5t-60 -77t-64.5 -145t-76 -226.5q-6 -20 -15 -39t-20 -38q38 12 71 37.5t52 62.5q11 -6 13 -7q2 -2 2 0q-26 -54 -69.5 -89t-101.5 -46q-60 -67 -144.5 -103.5t-174.5 -36.5q-31 0 -61.5 5.5t-59.5 19.5l7 15h7q23 -13 49.5 -17.5
t52.5 -4.5q75 0 142.5 31t118.5 88q-61 4 -113 29t-90 65.5t-59.5 94t-21.5 114.5q0 84 36 147t94.5 105t132 63.5t148.5 21.5h356l60 105l23 1zM488 723q-68 0 -134.5 -17.5t-119.5 -54t-85.5 -92.5t-32.5 -133q0 -57 25.5 -104.5t66.5 -81.5t93 -53.5t105 -20.5
q30 44 44 91q27 87 50.5 152.5t44.5 114t40.5 82t38.5 56.5t38.5 37t40.5 24h-215z" />
    <glyph glyph-name="afii10098" unicode="&#x491;" horiz-adv-x="244" 
d="M29 206l5 17h148l35 64l13 -1l-15 -79v-1h-109l-47 -206h-45l49 206h-34z" />
    <glyph glyph-name="afii10023" unicode="&#x401;" horiz-adv-x="748" 
d="M760 667q0 -24 -10.5 -41.5t-27 -29.5t-38 -18t-42.5 -6t-47 8l6 15q18 -5 33 -5q14 0 28 4.5t25.5 13.5t18.5 21.5t7 29.5q0 28 -14 49t-36.5 35.5t-52 21.5t-59.5 7q-34 0 -67 -9t-59.5 -27t-42.5 -45t-16 -62q0 -31 12.5 -52t33 -34.5t46.5 -19.5t53 -6v-16h-83
q-58 0 -114.5 -15.5t-101 -47t-72 -79.5t-27.5 -114q0 -59 23.5 -102.5t61.5 -72t87 -42.5t100 -14t99 13t86 38.5t61 62.5t23 84q0 41 -17.5 71t-45.5 49.5t-63.5 29t-71.5 9.5q-26 0 -57 -6.5t-57.5 -20.5t-44.5 -36t-18 -53q0 -16 8 -28t20.5 -20t27 -12t28.5 -4v-17
q-19 0 -40.5 5t-39.5 15.5t-30 26.5t-12 39q0 36 24 61.5t58.5 41t72 23t65.5 7.5q40 0 85 -10t82.5 -32t62 -56t24.5 -83q0 -53 -28 -93.5t-74.5 -68.5t-106 -42t-121.5 -14q-63 0 -123.5 15t-108 46t-76.5 78t-29 112q0 55 24.5 107t75.5 91q54 43 119 58.5t132 15.5h4
q-39 14 -68.5 42.5t-29.5 73.5q0 40 21 70.5t55 50t77.5 29.5t87.5 10q41 0 79.5 -8.5t68.5 -24.5t48 -39.5t18 -53.5zM687 872q0 -15 -9.5 -25.5t-23.5 -10.5t-23.5 10.5t-9.5 25.5t9.5 26t23.5 11t23.5 -11t9.5 -26zM558 872q0 -15 -9.5 -25.5t-23.5 -10.5t-23.5 10.5
t-9.5 25.5t9.5 26t23.5 11t23.5 -11t9.5 -26z" />
    <glyph glyph-name="afii10071" unicode="&#x451;" horiz-adv-x="263" 
d="M239 169q0 -21 -12.5 -35.5t-31.5 -23.5t-40 -13t-38 -4h-53v-5q0 -29 17 -45t46 -16q26 0 46.5 14.5t36.5 33.5l19 -11q-23 -29 -52.5 -47.5t-67.5 -18.5q-40 0 -68.5 22.5t-28.5 64.5q0 29 13 54t34.5 43.5t48.5 29t55 10.5q12 0 25.5 -3t24.5 -9t18.5 -16t7.5 -25z
M193 168q0 16 -10.5 23t-24.5 7q-18 0 -33.5 -7.5t-27.5 -20t-20 -28.5t-11 -32h31q13 0 29.5 3t31.5 10t25 18t10 27zM245 304q0 -13 -8 -21.5t-19 -8.5t-19 8.5t-8 21.5q0 12 8 21t19 9t19 -9t8 -21zM152 304q0 -13 -8 -21.5t-19 -8.5t-19 8.5t-8 21.5q0 12 8 21t19 9
t19 -9t8 -21z" />
    <glyph glyph-name="afii10056" unicode="&#x407;" horiz-adv-x="530" 
d="M650 784q-30 -19 -53.5 -47.5t-31.5 -63.5l-114 -456q23 10 41 29t18 45v9l16 2q1 -4 1 -12q0 -34 -25.5 -58.5t-57.5 -34.5q-18 -45 -50 -81t-73 -61t-88 -38t-95 -13q-69 0 -138 12l3 16q48 -9 101 -9q45 0 87.5 10t78.5 30.5t64.5 52.5t46.5 76q-55 4 -104.5 25
t-87 56t-59.5 83t-22 105q0 66 29.5 127t78.5 108t111.5 75t127.5 28h191zM460 783q-61 0 -117.5 -26.5t-100 -70.5t-69.5 -100.5t-26 -117.5q0 -53 18 -98t50 -79.5t76 -56t96 -25.5q5 13 10 32l108 436q8 30 24.5 57.5t39.5 48.5h-109zM687 883q0 -15 -9.5 -25.5
t-23.5 -10.5t-23.5 10.5t-9.5 25.5t9.5 26t23.5 11t23.5 -11t9.5 -26zM558 883q0 -15 -9.5 -25.5t-23.5 -10.5t-23.5 10.5t-9.5 25.5t9.5 26t23.5 11t23.5 -11t9.5 -26z" />
    <glyph glyph-name="uni0406" unicode="&#x406;" horiz-adv-x="530" 
d="M650 784q-30 -19 -53.5 -47.5t-31.5 -63.5l-114 -456q23 10 41 29t18 45v9l16 2q1 -3 1 -12q0 -34 -25.5 -58.5t-57.5 -34.5q-18 -45 -50 -81t-73 -61t-88 -38t-95 -13q-69 0 -138 12l3 16q48 -9 101 -9q45 0 87.5 10t78.5 30.5t64.5 52.5t46.5 76q-55 4 -104.5 25
t-87 56t-59.5 83t-22 105q0 66 29.5 127t78.5 108t111.5 75t127.5 28h191zM460 783q-61 0 -117.5 -26.5t-100 -70.5t-69.5 -100.5t-26 -117.5q0 -52 18 -97.5t50 -80t76 -56t96 -25.5q2 7 5 14.5t5 17.5l108 436q8 30 24.5 57.5t39.5 48.5h-109z" />
    <glyph glyph-name="afii10103" unicode="&#x456;" horiz-adv-x="197" 
d="M152 321q0 -12 -10 -19.5t-22 -7.5q-14 0 -21.5 7.5t-7.5 17.5q0 13 10 20t22 7q11 0 20 -7t9 -18zM163 67q-5 -10 -13 -22t-18 -23t-21.5 -18.5t-23.5 -7.5q-14 0 -22 11t-8 25q0 9 1.5 17.5t3.5 17.5l26 107q1 4 1.5 6.5t0.5 4.5q0 7 -4 7q-3 0 -10.5 -6t-15 -14
l-14 -15t-8.5 -10l-12 11l16 18.5t21 22t23 18t22 7.5q16 0 20.5 -9.5t4.5 -22.5q0 -6 -2 -16t-5 -22l-20 -78l-4 -18t-2 -14q0 -13 10 -13q5 0 10.5 5.5t11 12.5t10 14.5t7.5 11.5z" />
    <glyph glyph-name="afii10104" unicode="&#x457;" horiz-adv-x="187" 
d="M155 67q-5 -10 -13 -22t-18 -23t-21.5 -18.5t-23.5 -7.5q-14 0 -22 11t-8 25q0 9 1.5 17.5t3.5 17.5l26 107q1 4 1.5 6.5t0.5 4.5q0 7 -4 7t-11 -6t-14.5 -14l-14 -15t-8.5 -10l-12 11l16 18.5t21 22t23 18t22 7.5q16 0 20.5 -9.5t4.5 -22.5q0 -6 -2 -16t-5 -22l-20 -78
l-4 -18t-2 -14q0 -13 10 -13q5 0 11 5.5t11 12.5t9.5 14.5t7.5 11.5zM174 309q0 -10 -7 -17t-17 -7t-17 7t-7 17t7 17t17 7t17 -7t7 -17zM95 309q0 -10 -7 -17t-17 -7t-17 7t-7 17t7 17t17 7t17 -7t7 -17z" />
    <glyph glyph-name="afii10053" unicode="&#x404;" horiz-adv-x="689" 
d="M34 351q5 54 23 108.5t47 104.5t68 94t86 77t101 52t112 20q41 0 79 -8.5t66.5 -24.5t45 -39.5t14.5 -53.5q-2 -24 -13.5 -41.5t-29.5 -29.5t-39.5 -18t-42.5 -6t-47 8l7 15q18 -5 33 -5q14 0 28.5 4.5t26.5 13.5t20 21.5t9 29.5q2 28 -10.5 49.5t-34 36t-50 22
t-58.5 7.5q-60 0 -114.5 -23t-99.5 -63t-79.5 -93.5t-55.5 -114.5q49 29 87 31.5t68.5 -8t57 -27t53.5 -25.5t57 -3.5t68 40.5l18 -6q-42 -37 -77 -52.5t-64 -18t-53 6t-46 20.5l-42.5 24t-41.5 17t-44 0.5t-50 -26.5q-15 -51 -18 -105q-7 -90 11 -156.5t52 -110.5t79 -65.5
t92 -21.5q46 0 91.5 13t82.5 38.5t61 62.5t27 85q3 42 -11 72.5t-38.5 50.5t-56.5 29.5t-65 9.5q-24 0 -52.5 -6.5t-54 -21t-43.5 -37t-20 -53.5q-2 -17 4.5 -29t17 -20t24 -12t26.5 -4l-1 -17q-18 0 -37.5 5t-35.5 15.5t-26 27t-8 39.5q3 36 26.5 62t56.5 42t68.5 23.5
t61.5 7.5q37 0 77.5 -10t73.5 -32t53 -57t16 -85q-4 -54 -32.5 -95t-73 -69t-100.5 -42t-113 -14q-58 0 -115.5 19t-101 61.5t-67.5 112t-14 171.5z" />
    <glyph glyph-name="afii10101" unicode="&#x454;" horiz-adv-x="280" 
d="M235 180q0 -15 -14 -28.5t-46 -16.5l-3 13q14 4 20.5 14t6.5 19q0 14 -9 21.5t-20 7.5q-10 0 -23 -6t-25.5 -17t-23.5 -26.5t-17 -34.5h81l-3 -17h-81q-1 -5 -1 -8.5v-8.5q0 -26 17 -46t44 -20q26 0 49 14.5t37 34.5l17 -10q-21 -29 -53 -48.5t-71 -19.5
q-38 0 -65.5 23.5t-27.5 65.5q0 28 14 53t35.5 44t47 29.5t48.5 10.5q32 0 49 -13t17 -30z" />
    <glyph glyph-name="afii10146" unicode="&#x462;" horiz-adv-x="1331" 
d="M763 461q34 69 87.5 142.5t131.5 151.5q-15 5 -28.5 6.5t-27.5 1.5q-52 0 -101 -31.5t-93.5 -84t-83.5 -120.5t-72.5 -140.5t-59.5 -144.5t-45 -132l-32 -110h-75l79 258q25 79 44.5 151.5t19.5 152.5q0 63 -15.5 108t-42.5 73t-64 41t-79 13q-47 0 -86.5 -17.5
t-69.5 -46t-50.5 -65t-28.5 -74.5q-10 -41 -5.5 -75.5t19.5 -60.5t38 -43t52 -23q42 -10 87.5 3.5t87.5 51.5l12 -10q-43 -45 -93.5 -58.5t-98.5 -2.5q-35 8 -65 28t-50 49.5t-28 67.5t2 83q10 43 37 82t65 68.5t83.5 47t92.5 17.5q50 0 97.5 -16.5t84 -50t59 -84
t22.5 -119.5q0 -24 -1.5 -45.5t-6 -46t-13 -54t-21.5 -68.5q37 93 85 178.5t102.5 151t114 105t119.5 39.5q9 0 21.5 -1t24.5 -3t22 -5t16 -7l6 -4q-66 -68 -122.5 -147.5t-94.5 -169.5q-16 -38 -30.5 -85.5t-21.5 -97.5t-5 -98.5t20 -88t54.5 -65.5t96.5 -32
q76 -1 131.5 25.5t92 67.5t54 90t18.5 94q0 33 -12 61.5t-32.5 50.5t-47 35t-55.5 14q-63 2 -103.5 -32.5t-42.5 -95.5q-1 -32 15 -60t42 -46l-8 -11l-2 -3q-32 20 -51 51.5t-18 69.5q1 37 17 66t42 48.5t59.5 29.5t70.5 9q40 -1 74.5 -16t60 -41t40 -61t13.5 -76
q-1 -55 -29 -107.5t-78 -93t-119 -64.5t-151 -23q-70 -1 -115.5 20.5t-70 58.5t-31.5 86t-1 102t23.5 106.5t40.5 100.5z" />
    <glyph glyph-name="afii10194" unicode="&#x463;" horiz-adv-x="273" 
d="M178 269h-64l-28 -115l-13 -47q17 22 40 36t46.5 19.5t43.5 1.5t30 -19q9 -12 10 -29t-6.5 -34.5t-24.5 -34.5t-45 -30q-38 -16 -62 -20t-48 0q-17 3 -26 10t-13 17t-4 21t2 22l28 107l24 95h-63l8 31h63l84 334q1 2 1 10q0 6 -6 6q-5 0 -12 -4.5t-14 -11t-13 -13
t-9 -10.5l-12 11q6 8 16 19t22 21.5t24 18t23 7.5q14 0 20 -9t6 -22q0 -14 -4 -23l-81 -334h65zM146 30q16 7 26.5 18.5t16 24.5t6 26t-3.5 23q-8 16 -24.5 17t-35 -7t-35 -22t-23.5 -29q-8 -19 -9 -34t6.5 -23.5t24.5 -8t46 12.5z" />
    <glyph glyph-name="afii10147" unicode="&#x472;" horiz-adv-x="811" 
d="M657 436q-20 -37 -46 -53t-55.5 -18t-60 6t-57.5 20q-27 11 -54 19.5t-51.5 7t-44 -17t-29.5 -52.5l-6 10q10 40 33.5 63.5t54 33.5t65 8t67.5 -14l44.5 -21t45 -15.5t44.5 1t45 26.5q1 3 2.5 -0.5t2.5 -8.5v5zM822 487q0 -95 -34 -184.5t-95 -159.5t-146 -112.5
t-187 -42.5q-68 0 -125 21t-98.5 60.5t-65 97t-23.5 130.5q0 75 27.5 143t78.5 123q21 56 58 101.5t85 77.5t104 49.5t116 17.5q72 0 128.5 -24t95.5 -66.5t60 -102t21 -129.5zM758 503q0 56 -15.5 107.5t-46 91t-76 63t-106.5 23.5q-47 0 -88.5 -12t-76.5 -33t-63.5 -49
t-49.5 -59q32 22 67 40.5t71 30.5l5 -16q-51 -19 -95.5 -46t-80.5 -69q-11 -26 -19 -56.5t-8 -65.5q0 -34 9.5 -63.5t28.5 -51.5t48 -35t68 -13l2 -20q-91 0 -144.5 49.5t-53.5 134.5v10q-15 -38 -23 -78t-8 -85q0 -65 19.5 -118.5t55 -92t84 -59.5t107.5 -21q62 0 115 22.5
t96.5 60.5t76.5 88t55.5 104.5t34 111t11.5 106.5z" />
    <glyph glyph-name="afii10195" unicode="&#x473;" horiz-adv-x="302" 
d="M266 119q0 -31 -12 -54.5t-31 -39t-43 -23.5t-48 -8q-23 0 -43.5 6.5t-37 19.5t-26 33.5t-9.5 47.5q0 31 12 54.5t31.5 39.5t43.5 24t49 8q22 0 42.5 -6.5t36.5 -20t25.5 -33.5t9.5 -48zM219 122v1q-7 -17 -17.5 -24.5t-22.5 -8.5t-24 3t-22 10q-17 10 -36.5 9t-29.5 -25
q3 -29 19 -50.5t48 -21.5q20 0 36 9.5t27 25t16.5 34.5t5.5 38zM149 208q-20 0 -35.5 -9.5t-26 -24.5t-16 -34t-5.5 -38v-1q11 30 33 40t43 0q8 -5 18 -10.5t20.5 -8t20 0t17.5 13.5q-3 29 -20 50.5t-49 21.5z" />
    <glyph glyph-name="afii10148" unicode="&#x474;" horiz-adv-x="1113" 
d="M506 786q-57 0 -106 -10t-92 -28q-47 -20 -87.5 -52.5t-71 -74t-48 -90t-17.5 -100.5q0 -50 18.5 -91.5t50.5 -71.5t75 -46.5t92 -16.5h17q7 29 14.5 66l16 78.5t18.5 85.5t23 88q13 43 28.5 84t35 75.5t43.5 61.5t53 42h-63zM1219 721q2 -30 -11 -53t-34.5 -38.5
t-48 -24t-50.5 -8.5q-22 0 -46 6l4 17q13 -5 26 -5q20 0 41 8t37.5 22.5t26.5 34t9 42.5q-3 34 -18 53.5t-37.5 26.5t-50 3.5t-55 -14.5t-52.5 -28.5t-42 -37.5q-38 -45 -73.5 -105t-70.5 -135l-69.5 -147t-81 -140.5t-99 -116.5t-123.5 -76q-42 -6 -83 -6.5t-83 -0.5
l-10 24q49 21 70.5 59t32.5 87l4 17q-5 -1 -9 -1h-9q-53 0 -101 17t-85 49t-58.5 76.5t-21.5 100.5q0 70 35 141t104 128q64 54 144.5 80t165.5 26h186l1 -16q-39 -6 -70.5 -26.5t-56.5 -52t-44.5 -71.5t-34.5 -84t-26.5 -90.5t-20.5 -91l-16.5 -84.5t-14.5 -71
q40 11 73 34.5t56 58.5l17 -9q-28 -39 -66.5 -65.5t-84.5 -38.5l-9 -37q-8 -38 -25 -76.5t-46 -65.5q51 2 94 24.5t80.5 59t70.5 85.5t63 103.5t58 113l56 114.5q37 74 78 132.5t87 101.5q22 20 54.5 36.5t68 25.5t70.5 10t62.5 -9.5t44.5 -32.5t17 -59z" />
    <glyph glyph-name="afii10196" unicode="&#x475;" horiz-adv-x="285" 
d="M78 181q1 4 1.5 6.5t0.5 4.5q0 7 -4 7q-3 0 -10.5 -6t-15 -14l-14 -15t-8.5 -10l-12 11l16 18.5t21 22t23 18t22 7.5q16 0 21 -9.5t5 -22.5q0 -6 -2.5 -18t-5.5 -24l-32 -134l32 11q16 69 35.5 114t41.5 68q21 22 41.5 26.5t42.5 -16.5q9 -22 -4.5 -41t-30.5 -29l-8 14
q10 6 13 19t-2 19q-9 10 -21 8.5t-26 -20.5t-30 -56.5t-33 -98.5l36 12v-19l-140 -46l5 18h-1z" />
    <glyph glyph-name="uni0492" unicode="&#x492;" horiz-adv-x="767" 
d="M735 397h-180l-22.5 -68l-24.5 -77q-6 -20 -15 -39t-20 -38q38 12 71 37.5t52 62.5q11 -6 13 -7q2 -2 2 0q-26 -54 -69.5 -89t-101.5 -46q-60 -67 -144.5 -103.5t-174.5 -36.5q-31 0 -61.5 5.5t-59.5 19.5l7 15h7q23 -13 49.5 -17.5t52.5 -4.5q75 0 142.5 31t118.5 88
q-61 4 -113 29t-90 65.5t-59.5 94t-21.5 114.5q0 84 36 147t94.5 105t132 63.5t148.5 21.5h374l20 24l13 -11l-51 -60h-88q-28 0 -53 -15.5t-50 -51t-51.5 -94t-56.5 -145.5h176zM488 723q-68 0 -134.5 -17.5t-119.5 -54t-85.5 -92.5t-32.5 -133q0 -57 25.5 -104.5
t66.5 -81.5t93 -53.5t105 -20.5q30 44 44 91q12 40 23.5 74.5l22.5 65.5l-141 1l6 19h142q29 80 54 133t48.5 87.5t47 54t50.5 31.5h-215z" />
    <glyph glyph-name="uni0493" unicode="&#x493;" horiz-adv-x="256" 
d="M16 120l5 17h45l17 69h-34l5 17h194l-36 -74l-13 1l11 56h-84l-16 -69h65l-4 -17h-65l-27 -120h-45l28 120h-46z" />
    <glyph glyph-name="uni0496" unicode="&#x496;" horiz-adv-x="1280" 
d="M403 802q84 -5 133 -43t71.5 -96t21 -129.5t-19.5 -143.5t-48 -137.5t-66 -110.5q-51 -66 -123 -106t-166 -40q-25 0 -56 5t-58 17.5t-45.5 33t-18.5 52.5q0 28 16.5 48t40.5 32.5t51.5 18t50.5 5.5q11 0 22 -0.5t22 -2.5l-3 -16q-17 3 -32 3q-19 0 -40 -5.5t-39 -17
t-29.5 -28.5t-11.5 -39q0 -26 13.5 -43t34 -26.5t44 -13t44.5 -3.5q39 0 73.5 11t65 30.5t56.5 46t48 57.5q31 44 53 93t36 100t20.5 103.5t6.5 103.5q0 42 -10 82.5t-32 71.5t-55.5 50t-81.5 19q-29 0 -57.5 -8.5t-54.5 -23.5q-38 -21 -65.5 -51.5t-46 -66.5t-27.5 -76.5
t-9 -82.5q0 -32 11.5 -65t32 -59.5t49 -43.5t63.5 -17q39 0 66.5 24t43.5 57l18 -9q-19 -42 -51.5 -67.5t-80.5 -25.5q-43 0 -78 19.5t-60 51t-39 70.5t-14 79q0 66 23.5 123t65.5 99.5t98.5 66.5t122.5 24zM1075 -12q-63 26 -107 71.5t-68 105.5q-31 77 -33 154.5t17 149
t56.5 133.5t86 108t105.5 72t115 26q17 0 33 -1t32 -4l-38 -117t-52 -109.5t-80 -81.5t-121 -32v16q38 0 67.5 15t51.5 39.5t38 56t27.5 66t20.5 68.5l17 63q-78 -9 -139.5 -55.5t-103.5 -115.5q-28 -46 -46 -100t-24.5 -110t0 -111t28.5 -103.5t60 -86.5t96 -61l81 75
l20 -13q1 -55 -8 -108.5t-34.5 -97t-70.5 -73.5t-115 -37l-2 13q52 6 87.5 31t56 61.5t28 80.5t4.5 88zM773 417l-110 -417h-60l109 417h-296l6 19h296l99 361h59l-97 -361h220l-7 -19h-219z" />
    <glyph glyph-name="uni0497" unicode="&#x497;" horiz-adv-x="549" 
d="M116 221q26 3 43.5 -3.5t28 -18.5t14.5 -28.5t3 -33.5h48l22 85l44 1l-22 -86h51l2 2q26 40 62 63t67 21q23 -1 34.5 -10t13.5 -23q2 -18 -7 -36t-26 -30l-11 11q6 5 9.5 21.5t1.5 27.5q0 8 -4.5 13t-15.5 4q-20 0 -37.5 -17.5t-30.5 -41.5t-19.5 -50t-3.5 -43
q1 -13 10.5 -26t29.5 -12q10 0 20.5 3.5t20 10t16.5 14t11 14.5l19 -1q1 -30 -3.5 -59.5t-20.5 -53.5t-46.5 -40.5t-81.5 -20.5l-1 7q32 5 54 17.5t36 30t20.5 38.5t7.5 42q-13 -8 -27 -13t-27 -5q-34 -3 -54 8.5t-29 30.5t-8 42t10 44h-48l-30 -120h-45l31 120h-45
q-4 -24 -18 -44q-26 -40 -59.5 -62t-65.5 -20q-44 3 -47 31q-4 17 5.5 36t26.5 30l11 -11q-7 -5 -10.5 -21.5t-1.5 -27.5q1 -7 6 -13t16 -4q22 3 39 21t28 41.5t16 48t2 41.5q-2 13 -10.5 22.5t-28.5 8.5t-38 -13.5t-26 -26.5l-17 7q7 22 33.5 38.5t51.5 18.5z" />
    <glyph glyph-name="uni0498" unicode="&#x498;" horiz-adv-x="734" 
d="M271 -16q-53 1 -101 18.5t-84 46t-56.5 67t-17.5 83.5q3 48 28 84.5t63 61t83.5 36.5t89.5 10q57 -3 98 -19t67 -39t37.5 -50t10.5 -53q-2 -32 -19 -53t-42.5 -33.5t-54.5 -17.5t-55 -3v15q22 1 45.5 5.5t44 15.5t34 28.5t15.5 43.5q1 31 -13.5 54t-38.5 38.5t-53 23.5
t-55 9q-61 3 -109 -10t-81 -35.5t-51 -52t-19 -60.5q-2 -38 16.5 -73.5t52.5 -62.5t79.5 -43.5t96.5 -17.5q61 -1 117.5 16.5t102 48.5t76.5 74t42 93q20 91 5 159t-70 103q-29 -15 -58 -24.5t-63 -11.5q-15 -2 -34 1t-36.5 8t-29 12.5t-11.5 15.5q1 16 14.5 25.5t33 14
t43 6t44.5 1.5q49 -3 88 -19q2 2 5 4t5 4q26 23 44 53.5t20 65.5q2 31 -6 54.5t-23 39.5t-35.5 25.5t-43.5 12.5q-30 4 -61.5 -1.5t-56.5 -18.5t-39.5 -32.5t-11.5 -44.5q1 -15 9.5 -25t20 -16t25 -8t25.5 0q8 2 15 3t14 4l6 -13q-11 -6 -22 -9t-22 -5q-16 -3 -35.5 -3.5
t-37 5t-31 19.5t-16.5 40q3 33 25 58t54 41.5t69.5 24t73.5 6.5q36 -2 69.5 -13t57 -32t35 -52.5t4.5 -74.5q-11 -43 -39 -74.5t-64 -52.5q33 -19 59 -47t42 -63.5t20 -77.5t-7 -90q-12 -52 -44 -97t-83 -78.5t-120 -52.5t-156 -20l-14 -30q15 0 30 -1t26 -5.5t18 -14
t7 -27.5q0 -26 -22.5 -45.5t-64.5 -19.5q-31 0 -51 13l8 13q13 -6 28.5 -8t29 1.5t23 13t9.5 26.5q0 33 -34 33q-6 0 -16 -1t-15 -2l-3 3zM435 478q21 1 44.5 9.5t46.5 22.5q-15 6 -32 10t-37 6q-4 0 -20.5 -1t-33.5 -4t-30 -8.5t-9 -14.5q5 -14 25 -18t46 -2z" />
    <glyph glyph-name="uni0499" unicode="&#x499;" horiz-adv-x="269" 
d="M160 26q14 11 20.5 24.5t5 25t-11.5 19.5t-28 8q-8 0 -23 0.5t-26 -0.5l5 19q9 -1 20 -1h18q31 1 43 14t15 40q2 13 -5.5 20.5t-21.5 9.5q-6 1 -19 1.5t-25.5 -2t-21 -8.5t-5.5 -16q1 -5 3 -7.5t3 -5.5q1 -13 -17 -16q-8 -1 -14.5 2.5t-7.5 8.5q-4 23 8 36.5t31.5 20
t42 7.5t39.5 -2q31 -5 46.5 -22.5t12.5 -37.5q-3 -15 -20 -31t-51 -18q19 -2 33 -9.5t21.5 -18t8 -23t-7.5 -24.5q-13 -19 -42.5 -33t-74.5 -15h-5l-5 -13q13 0 25.5 -1t22.5 -5t16 -13t6 -25q0 -24 -20 -42t-56 -18q-26 0 -44 12l7 12q11 -6 24.5 -7.5t25.5 1.5t20 11.5
t8 24.5q0 31 -29 31q-5 0 -13.5 -1t-13.5 -2l-3 3l14 33q-15 1 -29.5 5t-26 11.5t-18.5 19t-7 29.5q0 16 8 27.5t20 11.5q18 0 18 -15q0 -7 -6 -11t-11 -4h-4q-1 -3 -1 -8q0 -17 15.5 -28.5t35.5 -15.5q17 -3 38 -1.5t34 12.5z" />
    <glyph glyph-name="uni049A" unicode="&#x49a;" horiz-adv-x="967" 
d="M852 75q-9 -10 -23 -23.5t-28 -25.5t-26 -20t-16 -8q-15 0 -28.5 9.5t-25.5 22.5t-21.5 27.5l-16.5 25.5q-14 23 -26.5 47.5l-22.5 44.5l-17.5 34t-21.5 33t-27.5 25t-36.5 10h-13l-15 -59q-13 -51 -39.5 -92t-63 -70t-83 -44.5t-99.5 -15.5q-25 0 -56 5t-58 17.5
t-45.5 33t-18.5 52.5q0 28 16.5 48t40.5 32.5t51.5 18t50.5 5.5q11 0 22 -0.5t22 -2.5l-3 -16q-17 3 -32 3q-19 0 -40 -5.5t-39 -17t-29.5 -28.5t-11.5 -39q0 -26 13.5 -43t34 -26.5t44 -13t44.5 -3.5q47 0 83.5 17t63.5 46t45 67.5t29 81.5l47 182t38.5 135t32 96.5t28 66
t26 43t26.5 27.5q-94 -2 -168.5 -28t-131.5 -68q-66 -50 -100.5 -112t-34.5 -125t44 -100t113 -44l-1 -13q-43 0 -80 10.5t-64.5 31.5t-43 51.5t-15.5 70.5q0 66 37 128.5t103 110.5q63 46 145.5 73t178.5 27h93l4 -15q-25 -15 -47.5 -44t-46 -83t-49 -139t-57.5 -213
q85 0 145.5 40.5t90.5 119.5l54 144q15 39 41 72.5t60 59t73 41.5t81 19l2 -16q-39 -10 -69 -24.5t-53.5 -35t-41.5 -48.5t-33 -65l-29 -75t-32 -73t-41.5 -66.5t-57.5 -56.5q-53 -38 -114 -50q32 -14 56 -37.5t43.5 -52t36.5 -59.5t35 -59q5 -7 13.5 -14.5t16.5 -7.5
q22 0 42.5 19.5l60.5 57.5l20 -13q1 -55 -8 -108.5t-34.5 -97t-70.5 -73t-115 -36.5l-2 13q52 6 87.5 31t56 61.5t28 80t4.5 87.5z" />
    <glyph glyph-name="uni049B" unicode="&#x49b;" horiz-adv-x="336" 
d="M245 205q-24 -4 -43 -17t-35 -31l68 -125q8 -7 16 -6t16.5 6.5t16.5 14l15 16.5l19 -1q1 -30 -3.5 -59.5t-20.5 -53.5t-46.5 -40t-81.5 -20l-1 7q32 5 54 17t35.5 28.5t20 37t7.5 41.5q-21 -22 -46 -22q-14 0 -23 3.5t-16 16.5l-57 103l-39 -60l-15 -61h-42l44 185
q1 4 1.5 6.5t0.5 4.5q0 7 -4 7q-3 0 -10.5 -6t-15 -14l-14 -15t-8.5 -10l-12 11l16 18.5t21 22t23 18t22 7.5q16 0 20.5 -9.5t4.5 -22.5q0 -6 -1.5 -18t-5.5 -24l-12 -49q11 18 27.5 38.5t36 38t41.5 29.5t44 14q17 2 30.5 -6t14.5 -26q1 -12 -4.5 -21.5t-14.5 -17
t-20 -12.5t-21 -7l-3 16q22 6 22 32q-1 9 -7.5 12.5t-14.5 2.5z" />
    <glyph glyph-name="uni04A0" unicode="&#x4a0;" horiz-adv-x="909" 
d="M224 698q57 36 126 54t135 18h303l20 24l13 -11l-51 -60h-18q-32 0 -60.5 -20.5t-57.5 -70t-60.5 -131.5t-70.5 -204q85 0 147 40.5t92 119.5l54 144q15 39 41 72.5t60 59t73 41.5t81 19l2 -16q-39 -10 -69 -24.5t-53.5 -35t-41.5 -48.5t-33 -65l-29 -75t-32 -73
t-41.5 -66.5t-57.5 -56.5q-53 -38 -114 -50q32 -14 56 -37.5t43.5 -52t36.5 -59.5t35 -59q5 -7 13.5 -14.5t16.5 -7.5q22 0 40.5 14t33.5 28l11 -12q-20 -22 -36.5 -37.5t-29.5 -26.5q-26 -21 -43 -21q-15 0 -28.5 9.5t-25.5 22.5t-21.5 27.5l-16.5 25.5q-14 23 -26.5 47.5
l-22.5 44.5l-17.5 34t-21.5 33t-27.5 25t-36.5 10h-18q-2 -7 -4 -13l-4 -12q-6 -20 -15 -39t-20 -38q-32 -52 -74 -87t-88.5 -56t-95.5 -30t-94 -9q-31 0 -61.5 5.5t-59.5 19.5l7 15h7q23 -13 49.5 -17.5t52.5 -4.5q57 0 109.5 18t96 51t76.5 78t52 99q27 87 50.5 152.5
t44.5 114t40.5 82t38.5 56.5t38.5 37t40.5 24h-215q-65 0 -132 -18.5t-121 -55t-88.5 -90t-34.5 -123.5q0 -51 18.5 -95t53 -73t82 -39.5t106.5 5.5l5 -16q-71 -18 -124.5 -5t-89 46.5t-53.5 83t-18 105.5q0 36 12.5 73t33.5 70.5t48.5 61.5t56.5 45z" />
    <glyph glyph-name="uni04A1" unicode="&#x4a1;" horiz-adv-x="347" 
d="M147 206l-22 -94q11 18 27.5 38.5t36 38t41.5 29.5t44 14q17 2 30.5 -6t14.5 -26q1 -12 -4.5 -21.5t-14.5 -17t-20 -12.5t-21 -7l-3 16q22 6 22 32q-1 9 -7.5 12.5t-14.5 2.5q-24 -4 -43 -17t-36 -32l69 -124q3 -12 17 -12q17 0 28.5 15t19.5 28l14 -7
q-11 -21 -31.5 -42.5t-46.5 -21.5q-25 0 -39 26l-57 103l-39 -60l-15 -61h-42l49 206h-59l-24 -56l-13 -1l12 74h152l-3 -17h-22z" />
    <glyph glyph-name="uni04A2" unicode="&#x4a2;" horiz-adv-x="904" 
d="M960 746q0 15 -7 15q-12 0 -39 -21.5t-61 -80.5q-17 -30 -34.5 -70t-34.5 -94q70 35 111 88t60 128q5 18 5 35zM615 774q-59 -2 -120 -15.5t-118 -38t-107 -60t-87.5 -81.5t-59 -102.5t-21.5 -122.5q0 -64 24 -110q74 54 164.5 88.5t178.5 58.5l25.5 100t28.5 100
t38 95.5t54 87.5zM464 373q-84 -24 -171.5 -58t-159.5 -86q39 -63 110 -80l-3 -16q-38 8 -69.5 30t-53.5 54q-35 -29 -56 -61.5t-21 -69.5q0 -22 10 -36t26 -22.5t35 -12t36 -3.5q69 0 121.5 35.5t91 89.5t64 117.5t40.5 118.5zM814 134l20 -13q1 -55 -8 -108.5t-34.5 -97
t-70.5 -73.5t-115 -37l-2 13q52 6 87.5 31t56 61.5t28 80.5t4.5 88l-25 -26t-30.5 -26t-34 -20.5t-34.5 -8.5q-21 0 -30 15.5t-9 35.5q0 12 2 23.5t4 19.5l82 332q2 5 3 10.5l2 10.5q-45 -16 -90.5 -28.5l-90.5 -25.5q-24 -85 -58.5 -159t-100.5 -137q-54 -51 -111.5 -75
t-114.5 -24q-21 0 -42.5 5t-39 15.5t-28 28t-10.5 41.5q0 42 23.5 78t61.5 67q-16 29 -25.5 62.5t-9.5 71.5q0 81 26.5 145t72 112t106 81t128.5 53.5t139.5 30t139.5 9.5h19q-39 -41 -65 -87t-44.5 -95.5t-32.5 -101l-29 -103.5q46 14 91.5 26.5t90.5 28.5q20 72 49 126.5
t62 96.5q46 57 96 83t93 26h10q-12 -59 -29.5 -107t-46 -87.5t-70.5 -72t-103 -59.5q-27 -94 -49.5 -188l-46.5 -190q-5 -22 -5 -32q0 -8 3 -15.5t12 -7.5q10 0 20.5 5.5t21 14t19.5 17.5l16 16z" />
    <glyph glyph-name="uni04A3" unicode="&#x4a3;" horiz-adv-x="362" 
d="M290 31q-13 -15 -23.5 -23.5t-24.5 -10.5q-17 -2 -22 10t-5 25q0 5 1 9.5t2 9.5l17 69h-129l-27 -120h-45l44 185q1 4 1.5 6.5t0.5 4.5q0 7 -4 7q-3 0 -10.5 -6t-15 -14l-14 -15t-8.5 -10l-12 11l16 18.5t21 22t23 18t22 7.5q16 0 20.5 -9.5t4.5 -22.5q0 -6 -1.5 -18
t-5.5 -24l-6 -24h129l21 86h43l-42 -170q-2 -10 -2 -12q0 -6 5 -6q7 0 25 18l18 21l19 -1q1 -30 -2 -59.5t-17 -53.5t-43 -40t-80 -20l-1 7q32 5 52.5 17t32 28.5t16.5 37t6 41.5z" />
    <glyph glyph-name="uni04A5" unicode="&#x4a5;" horiz-adv-x="387" 
d="M239 206h-34l4 17h165l-33 -74l-13 1l9 56h-55l-40 -206h-45l24 120h-115l-27 -120h-45l44 185q1 4 1.5 6.5t0.5 4.5q0 7 -4 7q-3 0 -10.5 -6t-15 -14l-14 -15t-8.5 -10l-12 11l16 18.5t21 22t23 18t22 7.5q16 0 20.5 -9.5t4.5 -22.5q0 -6 -1.5 -18t-5.5 -24l-6 -24h115z
" />
    <glyph glyph-name="uni04A4" unicode="&#x4a4;" horiz-adv-x="951" 
d="M478 218q-13 -51 -39.5 -92t-63 -70t-83 -44.5t-99.5 -15.5q-30 0 -68 12t-65 24l5 15l32 -11t27.5 -9t29 -6t36.5 -2q47 0 85 16.5t66.5 45t48 66.5t30.5 81l22.5 90t21.5 80h-76l6 19h75q25 94 45 156t37.5 101t33 61.5t33.5 39.5q-100 -2 -179 -32.5t-139 -81.5
q-69 -60 -106 -134t-37 -149q0 -76 46.5 -120t119.5 -52l-1 -16q-45 0 -84 13t-67 37.5t-44 61t-16 84.5q0 79 39.5 154t109.5 132q66 54 151.5 86.5t187.5 32.5h94l4 -15q-20 -12 -39.5 -36.5t-40 -66.5t-42 -104.5t-46.5 -151.5h206l95 353h-48l5 17l325 1l-68 -115l-24 1
l18 95l-152 1l-95 -353h60l-2 -20h-64l-106 -397h-57l107 397l-205 1l-22.5 -84.5z" />
    <glyph glyph-name="uni04AA" unicode="&#x4aa;" horiz-adv-x="684" 
d="M696 566q0 -63 -22.5 -127t-65 -116.5t-103.5 -85.5t-138 -33q-29 0 -59 8t-54 24t-39.5 40.5t-15.5 58.5q0 35 16.5 68t43.5 56l11 -12q-23 -25 -34 -50.5t-11 -49.5q0 -29 12.5 -52t32.5 -39t45.5 -24.5t52.5 -8.5q62 0 113.5 32t89 82t58 111.5t20.5 121.5
q0 43 -11 82.5t-34 68.5t-60.5 46.5t-89.5 17.5q-76 0 -139.5 -43.5t-109 -112t-71 -152.5t-25.5 -165q0 -73 21 -128t56 -92t80.5 -55.5t94.5 -18.5q37 0 75 11t72.5 33.5t64.5 56.5t52 79l15 -7q-24 -52 -58.5 -90.5t-74.5 -64t-83.5 -38.5t-85.5 -13q-25 0 -50 4l-14 -33
q15 0 30 -1t26 -5.5t18 -14t7 -27.5q0 -26 -22.5 -45.5t-64.5 -19.5q-31 0 -51 13l8 13q13 -6 28.5 -8t29 1.5t23 13t9.5 26.5q0 33 -34 33q-6 0 -16 -1t-15 -2l-3 3l24 58q-21 5 -41 12q-52 21 -92.5 61.5t-65 101.5t-24.5 142q0 57 12.5 116.5t37 114.5t60 103.5t81 84.5
t100.5 57t119 21q60 0 105 -19.5t74.5 -52.5t44 -77t14.5 -92z" />
    <glyph glyph-name="uni04AB" unicode="&#x4ab;" horiz-adv-x="280" 
d="M250 169q0 -19 -17 -35.5t-56 -20.5l-3 16q16 5 24.5 17.5t8.5 23.5q0 18 -11 27.5t-25 9.5t-30.5 -8t-30.5 -23t-23.5 -36t-9.5 -48q0 -26 17 -46t44 -20q26 0 49 14.5t37 34.5l17 -10q-21 -29 -53 -48.5t-71 -19.5h-5l-8 -18q13 0 25.5 -1t22.5 -5t16 -13t6 -25
q0 -24 -20 -42t-56 -18q-26 0 -44 12l7 12q11 -6 24.5 -7.5t25.5 1.5t20 11.5t8 24.5q0 31 -29 31q-5 0 -13.5 -1t-13.5 -2l-3 3l16 39q-25 4 -45 21q-27 24 -27 66q0 28 12.5 53t33 44t46.5 29.5t54 10.5q38 0 59 -16.5t21 -37.5z" />
    <glyph glyph-name="uni04AE" unicode="&#x4ae;" horiz-adv-x="557" 
d="M327 0h-59l53 262l-42 180.5l-31 127.5l-21 84t-13.5 50.5t-8 26t-3.5 11.5q-7 25 -24 25q-14 0 -25 -10t-20 -24.5t-16 -30.5l-12 -27l-21 2q8 25 18.5 50.5t24.5 46t32.5 33.5t42.5 13q19 0 31.5 -10t21 -25.5t13 -34l8.5 -34.5l100 -405q63 33 110.5 81t78 101.5
t44.5 106.5t9.5 95.5t-28 69t-66.5 26.5q-27 0 -50 -9.5t-39 -26t-25 -39t-9 -49.5q0 -53 42 -90l-14 -14q-23 20 -35.5 45t-12.5 59q0 36 14 64.5t37 49t54 31.5t66 11q37 0 63.5 -16.5t42.5 -43.5t21.5 -62.5t0.5 -73.5q-12 -91 -88 -182.5t-210 -169.5z" />
    <glyph glyph-name="uni04AF" unicode="&#x4af;" horiz-adv-x="285" 
d="M209 83q-11 -15 -24.5 -30.5t-29.5 -28t-34 -20.5t-38 -8t-33.5 11.5t-13.5 32.5q0 12 1 15l23 107q0 1 1 5t1 9q0 7 -4 7t-8.5 -4.5t-9 -10t-8.5 -11.5l-6 -9l-14 8q5 9 12 20.5t16 21t19.5 16.5t22.5 7q15 0 20 -10t5 -23q0 -21 -5 -36l-22 -106q-2 -8 -2 -10
q0 -8 4.5 -14t13.5 -6q21 0 43 16t40 39.5t31.5 49t18.5 45.5l13 51h43l-49 -194l-23 -91q-2 -5 -2 -13q0 -17 10 -32l-80 -51l-11 12l19 26t14 29z" />
    <glyph glyph-name="uni04B0" unicode="&#x4b0;" horiz-adv-x="557" 
d="M528 199h-161l-40 -199h-59l40 199h-144l6 20h142l9 43l-42 180.5l-31 127.5l-21 84t-13.5 50.5t-8 26t-3.5 11.5q-7 25 -24 25q-14 0 -25 -10t-20 -24.5t-16 -30.5l-12 -27l-21 2q8 25 18.5 50.5t24.5 46t32.5 33.5t42.5 13q19 0 31.5 -10t21 -25.5t13 -34l8.5 -34.5
l100 -405q63 33 110.5 81t78 101.5t44.5 106.5t9.5 95.5t-28 69t-66.5 26.5q-27 0 -50 -9.5t-39 -26t-25 -39t-9 -49.5q0 -53 42 -90l-14 -14q-23 20 -35.5 45t-12.5 59q0 36 14 64.5t37 49t54 31.5t66 11q37 0 63.5 -16.5t42.5 -43.5t21.5 -62.5t0.5 -73.5
q-12 -91 -88 -182.5t-210 -169.5l-11 -56h159z" />
    <glyph glyph-name="uni04B1" unicode="&#x4b1;" horiz-adv-x="285" 
d="M291 -40h-71l-7 -28q-2 -5 -2 -13q0 -17 10 -32l-80 -51l-11 12l19 26t14 29l14 57h-73l6 20h72l27 103q-11 -15 -24.5 -30.5t-29.5 -28t-34 -20.5t-38 -8t-33.5 11.5t-13.5 32.5q0 12 1 15l23 107q0 1 1 5t1 9q0 7 -4 7t-8.5 -4.5t-9 -10t-8.5 -11.5l-6 -9l-14 8
q5 9 12 20.5t16 21t19.5 16.5t22.5 7q15 0 20 -10t5 -23q0 -21 -5 -36l-22 -106q-2 -8 -2 -10q0 -8 4.5 -14t13.5 -6q21 0 43 16t40 39.5t31.5 49t18.5 45.5l13 51h43l-49 -194l-11 -43h68z" />
    <glyph glyph-name="uni04B2" unicode="&#x4b2;" horiz-adv-x="931" 
d="M733 -12q-42 17 -75.5 44t-58.5 61t-42 74t-26 83q-25 -58 -60 -103q-53 -69 -127.5 -110t-165.5 -41q-25 0 -56 5t-58 17.5t-45.5 33t-18.5 52.5q0 28 16.5 48t40.5 32.5t51.5 18t50.5 5.5q11 0 22 -0.5t22 -2.5l-3 -16q-17 3 -32 3q-19 0 -40 -5.5t-39 -17t-29.5 -28.5
t-11.5 -39q0 -26 13.5 -43t34 -26.5t44 -13t44.5 -3.5q39 0 73.5 11t65 30.5t56.5 46t48 57.5q37 53 60.5 113t34.5 117h-123l4 16h122q7 38 12.5 77t5.5 77q0 42 -10 82.5t-32 71.5t-55.5 50t-81.5 19q-29 0 -57.5 -8.5t-54.5 -23.5q-38 -21 -65.5 -51.5t-46 -66.5
t-27.5 -76.5t-9 -82.5q0 -32 11.5 -65t32 -59.5t49 -43.5t63.5 -17q39 0 66.5 24t43.5 57l18 -9q-19 -42 -51.5 -67.5t-80.5 -25.5q-43 0 -78 19.5t-60 51t-39 70.5t-14 79q0 66 23.5 123t65.5 99.5t98.5 66.5t122.5 24q45 0 84.5 -13.5t69 -39t47 -62.5t18.5 -83
q24 40 57 77t72.5 65t85.5 45t96 17q17 0 33 -1t32 -4l-38 -117t-52 -109.5t-80 -81.5t-121 -32v16q38 0 67.5 15t51.5 39.5t38 56t27.5 66t20.5 68.5l17 63q-68 -8 -123 -45t-95.5 -90.5t-65.5 -117.5t-32 -127h138l-4 -16h-136q-1 -10 -1 -19v-19q0 -48 11.5 -96.5
t35 -90.5t59 -74.5t84.5 -47.5l81 75l20 -13q1 -55 -8 -108.5t-34.5 -97t-70.5 -73.5t-115 -37l-2 13q52 6 87.5 31t56 61.5t28 80.5t4.5 88z" />
    <glyph glyph-name="uni04B3" unicode="&#x4b3;" horiz-adv-x="299" 
d="M150 -3q-26 0 -46 15.5t-22 42.5q-31 -42 -76 -58l-6 16q29 10 52 33t36 50h-52l4 17h52q5 12 11 30t6 33q0 10 -3.5 16.5t-14.5 6.5q-9 0 -18 -4.5t-17.5 -11.5t-16 -15.5l-13.5 -15.5l-13 10q17 26 42.5 43.5t57.5 17.5q19 0 31 -12t12 -31q0 -5 -0.5 -8.5t-1.5 -7.5
q6 8 15 18.5t20.5 19.5t24 15t24.5 6q21 0 30.5 -10t9.5 -24q0 -17 -11.5 -35t-28.5 -29l-9 11q7 5 12.5 16.5t5.5 22.5q0 7 -3.5 12t-13.5 5q-15 0 -28 -7.5t-24 -19t-19.5 -25.5t-14.5 -27h44l-4 -17h-46q-4 -9 -7.5 -21t-3.5 -23q0 -13 7 -22t26 -9q10 0 20.5 3.5t20 10
t16.5 14t11 14.5l19 -1q1 -30 -3.5 -59.5t-20.5 -53.5t-46.5 -40.5t-81.5 -20.5l-1 7q32 5 54 17.5t36 29.5t20.5 38t7.5 42q-13 -8 -31 -16.5t-31 -8.5z" />
    <glyph glyph-name="uni04B6" unicode="&#x4b6;" horiz-adv-x="996" 
d="M720 86l88 341q-20 -29 -46.5 -58.5t-58.5 -54.5t-69.5 -42t-78.5 -21q-56 -5 -97 8t-69 39t-42.5 62t-15.5 76t10 81t34 78q29 45 71 84.5t90 76.5h-62q-90 0 -165 -25.5t-132 -68.5q-60 -46 -94 -104.5t-34 -121.5q0 -51 18 -95t51 -73t80 -39.5t106 5.5l5 -16
q-71 -18 -123.5 -5t-87.5 46.5t-52 83t-17 105.5q0 72 33 137.5t96 116.5q58 46 136 73t175 27h127l-7 -30q-54 -34 -98.5 -82t-69.5 -105q-14 -32 -20 -68.5t-3.5 -72t15 -66.5t35.5 -53.5t57 -32.5t80 -2q42 5 81 28t72 56t57.5 73t37.5 81l43 157q8 29 11 58t5 59h84
l-21.5 -53.5t-19.5 -62.5l-150 -600q-5 -22 -5 -32q0 -8 3 -15.5t12 -7.5q10 0 20.5 5.5t21 14t19.5 17.5l16 16l46 44l20 -13q1 -55 -8 -108.5t-34.5 -97t-70.5 -73.5t-115 -37l-2 13q52 6 87.5 31t56 61.5t28 80.5t4.5 88q-11 -12 -26 -26t-32.5 -26t-36.5 -20.5t-36 -8.5
q-21 0 -30 15.5t-9 35.5q0 12 2 23.5t4 19.5z" />
    <glyph glyph-name="uni04B7" unicode="&#x4b7;" horiz-adv-x="284" 
d="M190 6q-35 -11 -66 -8t-44 29q-4 18 0 33.5t17.5 32t38 36.5l61.5 48v3q-20 -13 -44.5 -25.5t-47 -18t-38.5 -0.5t-17 27l-28 -38l-14 10l52 79h41q-16 -29 -6 -38.5t33.5 -5.5t54 17t54.5 29l19 -14q-15 -9 -31 -21.5t-31.5 -27t-28.5 -29.5t-22 -29q-16 -26 -11 -44.5
t20 -24.5t36 2.5t38 34.5l19 -1q1 -30 -3.5 -59.5t-20.5 -53.5t-46.5 -40t-81.5 -20l-1 7q32 5 54 17t35.5 28.5t20 37t7.5 41.5q-4 -4 -9.5 -8t-9.5 -6z" />
    <glyph glyph-name="uni04BA" unicode="&#x4ba;" horiz-adv-x="1033" 
d="M772 466q-11 2 -21.5 2.5t-20.5 0.5q-41 0 -76.5 -24t-65 -64t-53.5 -90.5t-42.5 -102.5t-32 -101.5t-21.5 -86.5h-75l79 258q25 79 44.5 151.5t19.5 152.5q0 63 -15.5 108t-42.5 73t-64 41t-79 13q-47 0 -86.5 -17.5t-69.5 -46t-50.5 -65t-28.5 -74.5
q-10 -41 -5.5 -75.5t19.5 -60.5t38 -43t52 -23q42 -10 87.5 3.5t87.5 51.5l12 -10q-43 -45 -93.5 -58.5t-98.5 -2.5q-35 8 -65 28t-50 49.5t-28 67.5t2 83q10 43 37 82t65 68.5t83.5 47t92.5 17.5q50 0 97.5 -16.5t84 -50t59 -84t22.5 -119.5q0 -24 -1.5 -45.5t-6 -46
t-13 -54t-21.5 -68.5q34 55 74.5 94t82.5 61t81.5 25t71.5 -14q-18 -28 -35.5 -65.5t-32 -79.5t-23 -86t-8.5 -84q0 -78 27.5 -123t93.5 -45q31 0 63.5 22.5t51.5 64.5l19 -16q-6 -9 -19 -25t-32.5 -31.5t-46 -27t-60.5 -11.5q-80 0 -122 53t-42 142q0 31 8 68.5t21.5 75
t31.5 72.5t39 61z" />
    <glyph glyph-name="uni04BB" unicode="&#x4bb;" horiz-adv-x="329" 
d="M329 668q0 -38 -13 -72t-35 -62.5t-51 -51.5t-60 -40l-77 -311q10 16 24.5 32t31 29t35.5 21t39 8q18 0 31.5 -8.5t13.5 -28.5q0 -4 -1 -11.5t-3 -12.5l-24 -99q-1 -4 -2 -8.5t-1 -8.5q0 -13 10 -13q6 0 12 5.5t12 13t10.5 15t6.5 10.5l14 -8q-6 -10 -14.5 -22t-19 -23
t-22.5 -18.5t-24 -7.5q-14 0 -22.5 10.5t-8.5 25.5q0 9 2 18t4 17l25 102q2 10 2 15q0 17 -13 17q-17 0 -39 -14t-43 -38q-21 -23 -36 -50.5t-23 -58.5l-10 -40h-42l104 421q-14 -5 -28 -9.5t-28 -6.5l-3 16q17 3 32.5 8t31.5 11l16 64q8 32 26.5 65t42.5 60t50 44.5
t48 17.5q8 0 13 -7t6 -16zM278 619q0 8 -1 19.5t-8 11.5q-14 0 -26.5 -15.5t-23 -36t-18 -40.5t-9.5 -30l-16 -64q19 12 37.5 29t32.5 37.5t23 43t9 45.5z" />
    <glyph glyph-name="uni04CB" unicode="&#x4cb;" horiz-adv-x="928" 
d="M876 685q8 29 11 58t5 59h84l-21.5 -53.5t-19.5 -62.5l-150 -600q-5 -22 -5 -32q0 -7 2.5 -15t12.5 -8t21 5.5t21 14t19 17.5l16 16l12 -11l-25.5 -26.5t-31 -26.5t-34.5 -20.5t-35 -8.5q-23 0 -33 15.5t-10 35.5q0 26 5 44l1 3q-32 -18 -55 -36.5t-37 -35.5t-19.5 -30
t-1.5 -19q3 -8 11.5 -8t22 3t31 6t38.5 2q23 -2 30 -14t1.5 -29.5t-20.5 -38.5t-36 -41q-8 -5 -13.5 -4t-5.5 3q24 20 32 36.5l12 24.5q2 13 -4.5 15.5t-18.5 0.5t-29 -6t-36 -4q-38 0 -43 22t13 53t53.5 65t79.5 57l82 316q-20 -29 -46.5 -58.5t-58.5 -54.5t-69.5 -42
t-78.5 -21q-56 -5 -97 8t-69 39t-42.5 62t-15.5 76t10 81t34 78q29 45 71 84.5t90 76.5h-62q-90 0 -165 -25.5t-132 -68.5q-60 -46 -94 -104.5t-34 -121.5q0 -51 18 -95t51 -73t80 -39.5t106 5.5l5 -16q-71 -18 -123.5 -5t-87.5 46.5t-52 83t-17 105.5q0 72 33 137.5
t96 116.5q58 46 136 73t175 27h127l-7 -30q-54 -34 -98.5 -82t-69.5 -105q-14 -32 -20 -68.5t-3.5 -72t15 -66.5t35.5 -53.5t57 -32.5t80 -2q42 5 81 28t72 56t57.5 73t37.5 81z" />
    <glyph glyph-name="uni04CC" unicode="&#x4cc;" horiz-adv-x="293" 
d="M207 180q-20 -13 -44.5 -25.5t-47 -18t-38.5 -0.5t-17 27l-28 -38l-14 10l52 79h41q-16 -29 -6 -38.5t33.5 -5.5t54 17t54.5 29l19 -14q-15 -9 -31 -21.5t-31.5 -27t-28.5 -29.5t-22 -29q-7 -11 -10.5 -26.5t0.5 -27.5t17 -18t39 2q17 5 34 17.5t30 26.5l15 -14
q-15 -17 -35.5 -29t-42.5 -20q-35 -11 -66 -8t-44 29q-1 4 -1.5 7t-0.5 7q-12 -7 -15 -14q-4 -11 -1.5 -22.5t8.5 -23.5t6 -21q0 -24 -18.5 -37.5t-45.5 -18.5l-2 6q14 9 17.5 17.5t2.5 17t-4 18.5t-3 21q0 20 17 39q14 16 38 27q1 13 8.5 26t21.5 27.5t36 32.5t53 41v3z
" />
    <glyph glyph-name="uni04C0" unicode="&#x4c0;" horiz-adv-x="597" 
d="M357 0q1 3 6.5 23.5l13 49.5t17 61.5t17 61l13 49t6.5 23.5l43.5 166t35.5 123t30 88t27 60.5t25.5 40.5t26.5 29q-100 -2 -179 -32.5t-139 -81.5q-69 -60 -106 -134t-37 -149q0 -76 46.5 -120t119.5 -52l-1 -16q-45 0 -84 13t-67 37.5t-44 61t-16 84.5q0 79 39.5 154
t109.5 132q66 54 151.5 86.5t187.5 32.5h91l4 -15q-24 -14 -46.5 -46.5t-47 -92t-52 -151.5t-60.5 -225q-1 -4 -6.5 -23.5l-13 -47l-16.5 -59.5l-17 -60l-13.5 -47.5t-6.5 -23.5h-58z" />
    <glyph glyph-name="uni04CF" unicode="&#x4cf;" horiz-adv-x="165" 
d="M28 0l154 634q1 2 1 10q0 6 -6 6q-5 0 -12 -4.5t-14 -11t-13 -13t-9 -10.5l-12 11q6 8 16 19t22 21.5t24 18t23 7.5q14 0 20 -9t6 -22q0 -14 -4 -23l-155 -634h-41z" />
    <glyph glyph-name="uni04D0" unicode="&#x4d0;" horiz-adv-x="959" 
d="M1042 782q-21 -5 -35.5 -20.5t-24 -36t-16 -42.5t-10.5 -40l-136 -551q-5 -20 -5 -32q0 -8 3 -15.5t12 -7.5q12 0 23 5.5t20.5 14t18 17.5l15.5 16l12 -11q-11 -12 -25.5 -26t-31 -26t-34 -20.5t-34.5 -8.5q-22 0 -30 16t-8 34t6 44l8 34q-14 -17 -34 -27.5t-43 -10.5
q-24 0 -47 10t-34 33l15 7q9 -19 28 -26.5t38 -7.5q18 0 33.5 7.5t27 20.5t18 29t6.5 34q0 26 -10.5 48.5t-27.5 41.5t-38.5 33.5t-42.5 25.5l-32 -88q-21 -59 -55 -107t-79 -82t-100 -52.5t-118 -18.5q-32 0 -71.5 5.5t-74 20.5t-58 41.5t-23.5 68.5q0 45 20 82.5t54 67
t77.5 51.5t90.5 36.5t93.5 22t86.5 7.5q80 0 145 -20l31 94q21 61 59 120t89.5 105t114 74t131.5 28zM938 756q-41 -13 -77.5 -43.5t-66.5 -69.5t-52.5 -82t-35.5 -81l-42 -120q22 -11 43.5 -25t39 -32t29.5 -40t17 -47l103 426q8 30 18 58.5t24 55.5zM609 363
q-30 9 -64.5 14.5t-73.5 5.5q-34 0 -75.5 -6.5t-84 -20.5t-82.5 -34.5t-71 -48.5t-50 -63t-19 -78q0 -35 19 -57.5t47.5 -36t61 -18.5t59.5 -5q58 0 105.5 20t84.5 54.5t64.5 80.5t45.5 97zM1122 961q-4 -34 -23.5 -58.5t-47 -38t-58.5 -16t-58 7t-45 32.5t-19 59v7l54 1
q-3 -32 7.5 -51t28.5 -26t40 -4t41.5 14.5t34.5 30t19 41.5z" />
    <glyph glyph-name="uni04D1" unicode="&#x4d1;" horiz-adv-x="313" 
d="M304 67q-5 -10 -13 -22t-18.5 -22.5t-22.5 -17.5t-24 -7q-17 0 -24.5 12t-7.5 27q0 3 1 4q-18 -19 -42.5 -31t-50.5 -12q-38 0 -64 23.5t-26 63.5q0 28 14 52.5t36.5 42.5t50.5 28t57 10h110l-40 -159q-3 -9 -3 -17q0 -5 2 -8.5t7 -3.5q7 0 13.5 5t12.5 12.5t10.5 15
l7.5 12.5zM175 202q-22 0 -43 -10t-37.5 -26.5t-26.5 -37.5t-10 -43q0 -25 13.5 -46t40.5 -21q36 0 62 23.5t34 57.5l25 103h-58zM321 378q-8 -30 -25 -49.5t-38.5 -29.5t-43.5 -11t-39.5 8t-28.5 26.5t-9 44.5l45 5q-7 -36 8 -49t37 -9.5t43 20.5t25 42z" />
    <glyph glyph-name="uni04D2" unicode="&#x4d2;" horiz-adv-x="959" 
d="M1042 782q-21 -5 -35.5 -20.5t-24 -36t-16 -42.5t-10.5 -40l-136 -551q-5 -20 -5 -32q0 -8 3 -15.5t12 -7.5q12 0 23 5.5t20.5 14t18 17.5l15.5 16l12 -11q-11 -12 -25.5 -26t-31 -26t-34 -20.5t-34.5 -8.5q-22 0 -30 16t-8 34t6 44l8 34q-14 -17 -34 -27.5t-43 -10.5
q-24 0 -47 10t-34 33l15 7q9 -19 28 -26.5t38 -7.5q18 0 33.5 7.5t27 20.5t18 29t6.5 34q0 26 -10.5 48.5t-27.5 41.5t-38.5 33.5t-42.5 25.5l-32 -88q-21 -59 -55 -107t-79 -82t-100 -52.5t-118 -18.5q-32 0 -71.5 5.5t-74 20.5t-58 41.5t-23.5 68.5q0 45 20 82.5t54 67
t77.5 51.5t90.5 36.5t93.5 22t86.5 7.5q80 0 145 -20l31 94q21 61 59 120t89.5 105t114 74t131.5 28zM938 756q-41 -13 -77.5 -43.5t-66.5 -69.5t-52.5 -82t-35.5 -81l-42 -120q22 -11 43.5 -25t39 -32t29.5 -40t17 -47l103 426q8 30 18 58.5t24 55.5zM609 363
q-30 9 -64.5 14.5t-73.5 5.5q-34 0 -75.5 -6.5t-84 -20.5t-82.5 -34.5t-71 -48.5t-50 -63t-19 -78q0 -35 19 -57.5t47.5 -36t61 -18.5t59.5 -5q58 0 105.5 20t84.5 54.5t64.5 80.5t45.5 97zM1088 878q0 -15 -9.5 -25.5t-23.5 -10.5t-23.5 10.5t-9.5 25.5t9.5 26t23.5 11
t23.5 -11t9.5 -26zM959 878q0 -15 -9.5 -25.5t-23.5 -10.5t-23.5 10.5t-9.5 25.5t9.5 26t23.5 11t23.5 -11t9.5 -26z" />
    <glyph glyph-name="uni04D3" unicode="&#x4d3;" horiz-adv-x="313" 
d="M304 67q-5 -10 -13 -22t-18.5 -22.5t-22.5 -17.5t-24 -7q-17 0 -24.5 12t-7.5 27q0 3 1 4q-18 -19 -42.5 -31t-50.5 -12q-38 0 -64 23.5t-26 63.5q0 28 14 52.5t36.5 42.5t50.5 28t57 10h110l-40 -159q-3 -9 -3 -17q0 -5 2 -8.5t7 -3.5q7 0 13.5 5t12.5 12.5t10.5 15
l7.5 12.5zM175 202q-22 0 -43 -10t-37.5 -26.5t-26.5 -37.5t-10 -43q0 -25 13.5 -46t40.5 -21q36 0 62 23.5t34 57.5l25 103h-58zM288 304q0 -13 -8 -21.5t-19 -8.5t-19 8.5t-8 21.5q0 12 8 21t19 9t19 -9t8 -21zM195 304q0 -13 -8 -21.5t-19 -8.5t-19 8.5t-8 21.5
q0 12 8 21t19 9t19 -9t8 -21z" />
    <glyph glyph-name="uni04D4" unicode="&#x4d4;" horiz-adv-x="1542" 
d="M1518 661q0 -24 -10.5 -41.5t-27 -29.5t-38 -18t-42.5 -6t-47 8l6 15q18 -5 33 -5q14 0 28 4.5t25.5 13.5t18.5 21.5t7 29.5q0 28 -14 49t-36.5 35.5t-52 21.5t-59.5 7q-34 0 -67 -9t-59.5 -27t-42.5 -45t-16 -62q0 -31 12.5 -52t33 -34.5t46.5 -19.5t53 -6v-16h-83
q-58 0 -114.5 -15.5t-101 -47t-72 -79.5t-27.5 -114q0 -59 23.5 -102.5t61.5 -72t87 -42.5t100 -14t99 13t86 38.5t61 62.5t23 84q0 41 -17.5 71t-45.5 49.5t-63.5 29t-71.5 9.5q-26 0 -57 -6.5t-57.5 -20.5t-44.5 -36t-18 -53q0 -16 8 -28t20.5 -20t27 -12t28.5 -4v-17
q-19 0 -40.5 5t-39.5 15.5t-30 26.5t-12 39q0 36 24 61.5t58.5 41t72 23t65.5 7.5q40 0 85 -10t82.5 -32t62 -56t24.5 -83q0 -53 -28 -93.5t-74.5 -68.5t-106 -42t-121.5 -14q-49 0 -96.5 9t-89 27t-75 46t-52.5 66l-34 -136h-58l32 126q-14 -17 -34 -27.5t-43 -10.5
q-24 0 -47 10t-34 33l15 7q9 -19 28 -26.5t38 -7.5q18 0 33.5 7.5t27 20.5t18 29t6.5 34q0 26 -10.5 48.5t-27.5 41t-38.5 33.5t-42.5 26l-32 -88q-21 -59 -55 -107t-79 -82t-100 -52.5t-118 -18.5q-32 0 -71.5 5.5t-74 20.5t-58 41.5t-23.5 68.5q0 45 20 82.5t54 67
t77.5 51.5t90.5 36.5t93.5 22t86.5 7.5q79 0 145 -20l31 94q21 61 59 120t89.5 105t114 74t131.5 28l2 -18q-21 -5 -35.5 -20.5t-24 -36t-16 -42.5t-10.5 -40l-52 -207q1 0 2 1q54 43 119 58.5t132 15.5h4q-39 14 -68.5 42.5t-29.5 73.5q0 40 21 70.5t55 50t77.5 29.5
t87.5 10q41 0 79.5 -8.5t68.5 -24.5t48 -39.5t18 -53.5zM609 363q-30 9 -64.5 14.5t-73.5 5.5q-34 0 -75.5 -6.5t-84 -20.5t-82.5 -34.5t-71 -48.5t-50 -63t-19 -78q0 -35 19 -57.5t47.5 -36t61 -18.5t59.5 -5q58 0 105.5 20t84.5 54.5t64.5 80.5t45.5 97zM938 756
q-41 -13 -77.5 -43.5t-66.5 -69.5t-52.5 -82t-35.5 -81l-42 -120q45 -23 81.5 -57.5t47.5 -86.5l103 426q8 30 18 58.5t24 55.5z" />
    <glyph glyph-name="uni04D5" unicode="&#x4d5;" horiz-adv-x="464" 
d="M440 169q0 -21 -12.5 -35.5t-30.5 -23.5t-39.5 -13t-39.5 -4h-53q0 -30 15 -48t48 -18q26 0 46.5 14.5t35.5 33.5l20 -11q-23 -29 -52.5 -47.5t-67.5 -18.5q-35 0 -60 16t-33 45q-20 -26 -45.5 -43.5t-63.5 -17.5t-64 23.5t-26 63.5q0 28 13.5 52t34.5 41t47.5 27
t53.5 10h118l-5 -17q19 11 40 17.5t43 6.5q12 0 26 -2.5t25 -9t18.5 -16.5t7.5 -25zM394 168q0 16 -10.5 23t-24.5 7q-18 0 -33.5 -7.5t-27.5 -20t-20 -28.5t-11 -32h31q12 0 28.5 3t31.5 9.5t25.5 17.5t10.5 28zM180 199q-22 0 -42.5 -9.5t-37 -25.5t-26.5 -36.5t-10 -42.5
q0 -25 13.5 -46t40.5 -21q36 0 62 23.5t34 57.5l24 100h-58z" />
    <glyph glyph-name="uni04D6" unicode="&#x4d6;" horiz-adv-x="748" 
d="M760 667q0 -24 -10.5 -41.5t-27 -29.5t-38 -18t-42.5 -6t-47 8l6 15q18 -5 33 -5q14 0 28 4.5t25.5 13.5t18.5 21.5t7 29.5q0 28 -14 49t-36.5 35.5t-52 21.5t-59.5 7q-34 0 -67 -9t-59.5 -27t-42.5 -45t-16 -62q0 -31 12.5 -52t33 -34.5t46.5 -19.5t53 -6v-16h-83
q-58 0 -114.5 -15.5t-101 -47t-72 -79.5t-27.5 -114q0 -59 23.5 -102.5t61.5 -72t87 -42.5t100 -14t99 13t86 38.5t61 62.5t23 84q0 41 -17.5 71t-45.5 49.5t-63.5 29t-71.5 9.5q-26 0 -57 -6.5t-57.5 -20.5t-44.5 -36t-18 -53q0 -16 8 -28t20.5 -20t27 -12t28.5 -4v-17
q-19 0 -40.5 5t-39.5 15.5t-30 26.5t-12 39q0 36 24 61.5t58.5 41t72 23t65.5 7.5q40 0 85 -10t82.5 -32t62 -56t24.5 -83q0 -53 -28 -93.5t-74.5 -68.5t-106 -42t-121.5 -14q-63 0 -123.5 15t-108 46t-76.5 78t-29 112q0 55 24.5 107t75.5 91q54 43 119 58.5t132 15.5h4
q-39 14 -68.5 42.5t-29.5 73.5q0 40 21 70.5t55 50t77.5 29.5t87.5 10q41 0 79.5 -8.5t68.5 -24.5t48 -39.5t18 -53.5zM750 944q-4 -34 -23.5 -58.5t-47 -38t-58.5 -16t-58 7t-45 32t-19 59.5v7l54 1q-3 -32 7.5 -51t28.5 -26t40 -4t41.5 14.5t34.5 30t19 41.5z" />
    <glyph glyph-name="uni04D7" unicode="&#x4d7;" horiz-adv-x="263" 
d="M239 169q0 -21 -12.5 -35.5t-31.5 -23.5t-40 -13t-38 -4h-53v-5q0 -29 17 -45t46 -16q26 0 46.5 14.5t36.5 33.5l19 -11q-23 -29 -52.5 -47.5t-67.5 -18.5q-40 0 -68.5 22.5t-28.5 64.5q0 29 13 54t34.5 43.5t48.5 29t55 10.5q12 0 25.5 -3t24.5 -9t18.5 -16t7.5 -25z
M193 168q0 16 -10.5 23t-24.5 7q-18 0 -33.5 -7.5t-27.5 -20t-20 -28.5t-11 -32h31q13 0 29.5 3t31.5 10t25 18t10 27zM290 372q-8 -30 -25 -49.5t-38.5 -29.5t-43.5 -11t-39.5 8t-28.5 26.5t-9 44.5l45 5q-7 -36 8 -49t37 -9.5t43 20.5t25 42z" />
    <glyph glyph-name="uni04D8" unicode="&#x4d8;" horiz-adv-x="709" 
d="M655 442q8 43 5.5 90.5t-15.5 91t-35.5 79.5t-53.5 57q-18 13 -43.5 18t-53 3.5t-54 -9.5t-47 -21t-32 -31t-8.5 -39q1 -15 9.5 -25t20 -16t25 -8t25.5 0q8 2 15 3t14 4l6 -13q-11 -6 -22 -9t-22 -5q-16 -3 -35.5 -3.5t-37.5 5t-31 19.5t-16 40q3 33 25 59t54.5 43
t71.5 24t77 3q109 -13 167.5 -90.5t57.5 -213.5q0 -61 -14 -122.5t-41 -118.5t-65.5 -105.5t-88 -84t-109.5 -54.5t-129 -16q-52 5 -85 26.5t-49 53.5q-14 28 -15.5 60.5t9 65.5t34 65t59.5 59q95 72 198.5 98t228.5 17zM651 417q-39 6 -91 3.5t-106 -15.5t-105 -36.5
t-88 -59t-54.5 -83.5t-4.5 -110q5 -23 20 -41t35.5 -29.5t45 -16t50.5 -1.5q67 9 117.5 47.5t86.5 93.5t59 120t35 128z" />
    <glyph glyph-name="afii10846" unicode="&#x4d9;" horiz-adv-x="263" 
d="M11 51q0 21 12.5 35.5t31.5 23.5t40 13t38 4h53v5q0 29 -17 45t-46 16q-26 0 -46.5 -14.5t-36.5 -33.5l-19 11q23 29 52.5 47.5t67.5 18.5q40 0 68.5 -22.5t28.5 -64.5q0 -29 -13 -54t-34.5 -43.5t-48.5 -29t-55 -10.5q-12 0 -25.5 3t-24.5 9t-18.5 16t-7.5 25zM57 52
q0 -16 10.5 -23t24.5 -7q18 0 33.5 7.5t27.5 20t20 28t11 32.5h-31q-13 0 -29.5 -3t-31.5 -10t-25 -18t-10 -27z" />
    <glyph glyph-name="uni04DC" unicode="&#x4dc;" horiz-adv-x="1199" 
d="M1247 808q17 0 33 -1t32 -4l-38 -117t-52 -109.5t-80 -81.5t-121 -32v16q38 0 67.5 15t51.5 39.5t38 56t27.5 66t20.5 68.5l17 63q-78 -9 -139.5 -55.5t-103.5 -115.5q-24 -40 -41 -86t-25 -94h65l-7 -19h-61q-8 -57 -2.5 -114t27 -107t60.5 -89.5t98 -62.5l53 48l11 -13
l-103 -91q-63 26 -107 71.5t-68 105.5q-26 63 -31.5 127t4.5 125h-100l-110 -417h-60l109 417h-97q-17 -80 -49 -152.5t-71 -122.5q-51 -66 -123 -106t-166 -40q-25 0 -56 5t-58 17.5t-45.5 33t-18.5 52.5q0 28 16.5 48t40.5 32.5t51.5 18t50.5 5.5q11 0 22 -0.5t22 -2.5
l-3 -16q-17 3 -32 3q-19 0 -40 -5.5t-39 -17t-29.5 -28.5t-11.5 -39q0 -26 13.5 -43t34 -26.5t44 -13t44.5 -3.5q39 0 73.5 11t65 30.5t56.5 46t48 57.5q40 57 65 122t38 134h-142l6 19h139q5 32 7.5 63t2.5 62q0 42 -10 82.5t-32 71.5t-55.5 50t-81.5 19q-29 0 -57.5 -8.5
t-54.5 -23.5q-38 -21 -65.5 -51.5t-46 -66.5t-27.5 -76.5t-9 -82.5q0 -32 11.5 -65t32 -59.5t49 -43.5t63.5 -17q39 0 66.5 24t43.5 57l18 -9q-19 -42 -51.5 -67.5t-80.5 -25.5q-43 0 -78 19.5t-60 51t-39 70.5t-14 79q0 66 23.5 123t65.5 99.5t98.5 66.5t122.5 24
q77 -5 124.5 -37.5t72 -83.5t28 -115t-8.5 -130h99l99 361h59l-97 -361h97q15 77 52 144.5t87.5 118t110 80t121.5 29.5zM951 883q0 -15 -9.5 -25.5t-23.5 -10.5t-23.5 10.5t-9.5 25.5t9.5 26t23.5 11t23.5 -11t9.5 -26zM822 883q0 -15 -9.5 -25.5t-23.5 -10.5t-23.5 10.5
t-9.5 25.5t9.5 26t23.5 11t23.5 -11t9.5 -26z" />
    <glyph glyph-name="uni04DD" unicode="&#x4dd;" horiz-adv-x="549" 
d="M116 221q26 3 43.5 -3.5t28 -18.5t14.5 -28.5t3 -33.5h48l22 85l44 1l-22 -86h51l2 2q26 40 62 63t67 21q23 -1 34.5 -10t13.5 -23q2 -18 -7 -36t-26 -30l-11 11q6 5 9.5 21.5t1.5 27.5q0 8 -4.5 13t-15.5 4q-20 0 -37.5 -17.5t-30.5 -41.5t-19.5 -50t-3.5 -43
q1 -13 10.5 -22t29.5 -8q20 -1 40 12t28 27l16 -7q-3 -11 -12.5 -21.5t-22 -18t-26 -12t-25.5 -4.5q-34 -3 -54 8.5t-29 30.5t-8 42t10 44h-48l-30 -120h-45l31 120h-45q-4 -24 -18 -44q-26 -40 -59.5 -62t-65.5 -20q-44 3 -47 31q-4 17 5.5 36t26.5 30l11 -11
q-7 -5 -10.5 -21.5t-1.5 -27.5q1 -7 6 -13t16 -4q22 3 39 21t28 41.5t16 48t2 41.5q-2 13 -10.5 22.5t-28.5 8.5t-38 -13.5t-26 -26.5l-17 7q7 22 33.5 38.5t51.5 18.5zM378 304q0 -13 -8 -21.5t-19 -8.5t-19 8.5t-8 21.5q0 12 8 21t19 9t19 -9t8 -21zM285 304
q0 -13 -8 -21.5t-19 -8.5t-19 8.5t-8 21.5q0 12 8 21t19 9t19 -9t8 -21z" />
    <glyph glyph-name="uni04DE" unicode="&#x4de;" horiz-adv-x="734" 
d="M682 636q7 43 -4.5 74.5t-35 52.5t-57 32t-69.5 13q-36 1 -73.5 -6.5t-69.5 -24t-54 -41.5t-25 -58q3 -26 16.5 -40t31 -19.5t37 -5t35.5 3.5q11 2 22 5t22 9l-6 13q-7 -3 -14 -4t-15 -3q-12 -2 -25.5 0t-25 8t-20 16t-9.5 25q-3 25 11.5 44.5t39.5 32.5t56.5 18.5
t61.5 1.5q23 -3 43.5 -12.5t35.5 -25.5t23 -39.5t6 -54.5q-2 -35 -20 -65.5t-44 -53.5q-28 -24 -60 -38t-61 -16q-26 -2 -46 2t-25 18q-4 9 9 14.5t30 8.5t33.5 4t20.5 1q57 -5 95 -28.5t57.5 -62t22 -90t-11.5 -112.5q-11 -50 -42 -93t-76.5 -74t-102 -48.5t-117.5 -16.5
q-51 1 -96.5 17.5t-79.5 43.5t-52.5 62.5t-16.5 73.5q1 31 19 60.5t51 52t81 35.5t109 10q26 -1 55 -9t53 -23.5t38.5 -38.5t13.5 -54q-2 -26 -15.5 -43.5t-34 -28.5t-44 -15.5t-45.5 -5.5v-15q26 -2 55 3t54.5 17.5t42.5 33.5t19 53q1 26 -10.5 53t-37.5 50t-67 39t-98 19
q-44 2 -89.5 -10t-83.5 -36.5t-63 -61t-28 -84.5q-3 -47 19 -86.5t60.5 -69t90 -45.5t107.5 -15q87 0 156.5 19.5t120.5 53t83 78.5t44 97q15 67 2 123t-46 97t-83 65t-108 27q-21 0 -44.5 -1.5t-43 -6t-33 -14t-14.5 -25.5q0 -8 11.5 -15.5t29 -12.5t36.5 -8t34 -1
q38 3 70 14.5t64 29.5q40 21 71.5 54t42.5 79zM636 879q0 -15 -9.5 -25.5t-23.5 -10.5t-23.5 10.5t-9.5 25.5t9.5 26t23.5 11t23.5 -11t9.5 -26zM507 879q0 -15 -9.5 -25.5t-23.5 -10.5t-23.5 10.5t-9.5 25.5t9.5 26t23.5 11t23.5 -11t9.5 -26z" />
    <glyph glyph-name="uni04DF" unicode="&#x4df;" horiz-adv-x="269" 
d="M160 26q14 11 20.5 24.5t5 25t-11.5 19.5t-28 8q-8 0 -23 0.5t-26 -0.5l5 19q9 -1 20 -1h18q31 1 43 14t15 40q2 13 -5.5 20.5t-21.5 9.5q-6 1 -19 1.5t-25.5 -2t-21 -8.5t-5.5 -16q1 -5 3 -7.5t3 -5.5q1 -13 -17 -16q-8 -1 -14.5 2.5t-7.5 8.5q-4 23 8 36.5t31.5 20
t42 7.5t39.5 -2q31 -5 46.5 -22.5t12.5 -37.5q-3 -15 -20 -31t-51 -18q19 -2 33 -9.5t21.5 -18t8 -23t-7.5 -24.5q-13 -19 -42.5 -33t-74.5 -15q-17 0 -35 2.5t-32.5 10t-24 20.5t-9.5 33q0 16 8 27.5t20 11.5q18 0 18 -15q0 -7 -6 -11t-11 -4h-4q-1 -3 -1 -8
q0 -17 15.5 -28.5t35.5 -15.5q17 -3 38 -1.5t34 12.5zM260 304q0 -13 -8 -21.5t-19 -8.5t-19 8.5t-8 21.5q0 12 8 21t19 9t19 -9t8 -21zM167 304q0 -13 -8 -21.5t-19 -8.5t-19 8.5t-8 21.5q0 12 8 21t19 9t19 -9t8 -21z" />
    <glyph glyph-name="uni04E2" unicode="&#x4e2;" 
d="M958 802l-11.5 -27t-10.5 -26.5t-9.5 -28.5t-9.5 -34l-150 -600q-5 -20 -5 -32q0 -7 2.5 -15t12.5 -8t21 5.5t21 14t19 17.5l16 16l12 -11l-25.5 -26.5t-31 -26.5t-34.5 -20.5t-35 -8.5q-23 0 -30.5 15.5t-7.5 35.5q0 12 2 24t4 20l21 85q-25 -38 -56.5 -70.5t-68.5 -57
t-80 -38.5t-90 -14q-50 0 -90.5 16.5t-71 46t-49 69.5t-24.5 88q-37 13 -65 37.5t-47 56t-29 68.5t-10 75q0 72 33.5 138t95.5 116q58 46 136 73t175 27h207l2 -16q-104 -28 -183 -78.5t-133 -116.5q-60 -73 -89.5 -158.5t-29.5 -176.5v-20.5t2 -19.5h13q47 0 88.5 20
t70.5 56l12 -10q-31 -38 -75.5 -60.5t-95.5 -22.5h-11q6 -39 22 -72t40.5 -57t57.5 -37.5t75 -13.5q46 0 90.5 21.5t84.5 58.5q38 35 73 81.5t49 103.5l100 401q8 29 11 58t5 59h84zM493 756q-89 0 -164.5 -25.5t-132.5 -68.5q-60 -46 -94 -105t-34 -121q0 -67 33.5 -123.5
t95.5 -81.5v21q0 81 29 157t77.5 141.5t112.5 118.5t133 87h-56zM864 869h-224l8 47h224z" />
    <glyph glyph-name="uni04E4" unicode="&#x4e4;" 
d="M958 802l-11.5 -27t-10.5 -26.5t-9.5 -28.5t-9.5 -34l-150 -600q-5 -20 -5 -32q0 -7 2.5 -15t12.5 -8t21 5.5t21 14t19 17.5l16 16l12 -11l-25.5 -26.5t-31 -26.5t-34.5 -20.5t-35 -8.5q-23 0 -30.5 15.5t-7.5 35.5q0 12 2 24t4 20l21 85q-25 -38 -56.5 -70.5t-68.5 -57
t-80 -38.5t-90 -14q-50 0 -90.5 16.5t-71 46t-49 69.5t-24.5 88q-37 13 -65 37.5t-47 56t-29 68.5t-10 75q0 72 33.5 138t95.5 116q58 46 136 73t175 27h207l2 -16q-104 -28 -183 -78.5t-133 -116.5q-60 -73 -89.5 -158.5t-29.5 -176.5v-20.5t2 -19.5h13q47 0 88.5 20
t70.5 56l12 -10q-31 -38 -75.5 -60.5t-95.5 -22.5h-11q6 -39 22 -72t40.5 -57t57.5 -37.5t75 -13.5q46 0 90.5 21.5t84.5 58.5q38 35 73 81.5t49 103.5l100 401q8 29 11 58t5 59h84zM493 756q-89 0 -164.5 -25.5t-132.5 -68.5q-60 -46 -94 -105t-34 -121q0 -67 33.5 -123.5
t95.5 -81.5v21q0 81 29 157t77.5 141.5t112.5 118.5t133 87h-56zM881 895q0 -15 -9.5 -25.5t-23.5 -10.5t-23.5 10.5t-9.5 25.5t9.5 26t23.5 11t23.5 -11t9.5 -26zM752 895q0 -15 -9.5 -25.5t-23.5 -10.5t-23.5 10.5t-9.5 25.5t9.5 26t23.5 11t23.5 -11t9.5 -26z" />
    <glyph glyph-name="uni04E3" unicode="&#x4e3;" horiz-adv-x="311" 
d="M299 65l-12 -19.5t-16 -22.5t-19.5 -19t-20.5 -8q-15 0 -23.5 13.5t-8.5 27.5q0 13 3 25l6 25q-11 -16 -25 -32.5t-31.5 -29.5t-36.5 -21t-40 -8q-19 0 -32.5 10.5t-13.5 31.5q0 7 3 18l23 78q2 6 3 10t1 8q0 8 -6 8q-8 0 -15.5 -9.5t-11.5 -15.5l-14 10q5 7 15.5 20
t23.5 25.5t25.5 21.5t21.5 9q17 0 17 -22q0 -7 -2.5 -18t-5.5 -21l-31 -107q-1 -3 -2.5 -9.5t-1.5 -8.5q0 -19 18 -19q23 0 45.5 15.5t41.5 39t33.5 52t20.5 54.5l9 37h44l-40 -161q-2 -8 -2 -13q0 -3 0.5 -6t4.5 -3q6 0 11.5 5t11 12t9.5 14t6 11zM267 284h-154l8 39h154z
" />
    <glyph glyph-name="uni04E5" unicode="&#x4e5;" horiz-adv-x="311" 
d="M299 65l-12 -19.5t-16 -22.5t-19.5 -19t-20.5 -8q-15 0 -23.5 13.5t-8.5 27.5q0 13 3 25l6 25q-11 -16 -25 -32.5t-31.5 -29.5t-36.5 -21t-40 -8q-19 0 -32.5 10.5t-13.5 31.5q0 7 3 18l23 78q2 6 3 10t1 8q0 8 -6 8q-8 0 -15.5 -9.5t-11.5 -15.5l-14 10q5 7 15.5 20
t23.5 25.5t25.5 21.5t21.5 9q17 0 17 -22q0 -7 -2.5 -18t-5.5 -21l-31 -107q-1 -3 -2.5 -9.5t-1.5 -8.5q0 -19 18 -19q23 0 45.5 15.5t41.5 39t33.5 52t20.5 54.5l9 37h44l-40 -161q-2 -8 -2 -13q0 -3 0.5 -6t4.5 -3q6 0 11.5 5t11 12t9.5 14t6 11zM267 304q0 -13 -8 -21.5
t-19 -8.5t-19 8.5t-8 21.5q0 12 8 21t19 9t19 -9t8 -21zM174 304q0 -13 -8 -21.5t-19 -8.5t-19 8.5t-8 21.5q0 12 8 21t19 9t19 -9t8 -21z" />
    <glyph glyph-name="uni04E6" unicode="&#x4e6;" horiz-adv-x="838" 
d="M822 487q0 -95 -34 -184.5t-95 -159.5t-146 -112.5t-187 -42.5q-68 0 -125 21t-98.5 60.5t-65 97t-23.5 130.5q0 75 27.5 143t78.5 123q21 56 58 101.5t85 77.5t104 49.5t116 17.5q72 0 128.5 -24t95.5 -66.5t60 -102t21 -129.5zM758 503q0 56 -15.5 107.5t-46 91t-76 63
t-106.5 23.5q-47 0 -88.5 -12t-76.5 -33t-63.5 -49t-49.5 -59q32 22 67 40.5t71 30.5l5 -16q-51 -19 -95.5 -46t-80.5 -69q-11 -26 -19 -56.5t-8 -65.5q0 -34 9.5 -63.5t28.5 -51.5t48 -35t68 -13q31 0 58 13t47.5 34.5t32 50t11.5 58.5q0 32 -15 58t-42 43l11 14
q37 -19 61.5 -50t24.5 -74q0 -36 -16.5 -67t-43 -53t-60 -34.5t-67.5 -12.5q-91 0 -144.5 49.5t-53.5 134.5v10q-15 -38 -23 -78t-8 -85q0 -65 19.5 -118.5t55 -92t84 -59.5t107.5 -21q62 0 115 22.5t96.5 60.5t76.5 88t55.5 104.5t34 111t11.5 106.5zM659 884
q0 -15 -9.5 -25.5t-23.5 -10.5t-23.5 10.5t-9.5 25.5t9.5 26t23.5 11t23.5 -11t9.5 -26zM530 884q0 -15 -9.5 -25.5t-23.5 -10.5t-23.5 10.5t-9.5 25.5t9.5 26t23.5 11t23.5 -11t9.5 -26z" />
    <glyph glyph-name="uni04E8" unicode="&#x4e8;" horiz-adv-x="811" 
d="M822 487q0 -95 -34 -184.5t-95 -159.5t-146 -112.5t-187 -42.5q-68 0 -125 21t-98.5 60.5t-65 97t-23.5 130.5q0 75 27.5 143t78.5 123q21 56 58 101.5t85 77.5t104 49.5t116 17.5q72 0 128.5 -24t95.5 -66.5t60 -102t21 -129.5zM758 503q0 56 -15.5 107.5t-46 91t-76 63
t-106.5 23.5q-47 0 -88.5 -12t-76.5 -33t-63.5 -49t-49.5 -59q32 22 67 40.5t71 30.5l5 -16q-51 -19 -95.5 -46t-80.5 -69q-11 -26 -19 -56.5t-8 -65.5q0 -34 9.5 -63.5t28.5 -51.5t48 -35t68 -13l2 -20q-91 0 -144.5 49.5t-53.5 134.5v10q-15 -38 -23 -78t-8 -85
q0 -65 19.5 -118.5t55 -92t84 -59.5t107.5 -21q62 0 115 22.5t96.5 60.5t76.5 88t55.5 104.5t34 111t11.5 106.5zM683 377h-459l8 33h459z" />
    <glyph glyph-name="uni04E9" unicode="&#x4e9;" horiz-adv-x="302" 
d="M266 119q0 -31 -12 -54.5t-31 -39t-43 -23.5t-48 -8q-23 0 -43.5 6.5t-37 19.5t-26 33.5t-9.5 47.5q0 31 12 54.5t31.5 39.5t43.5 24t49 8q22 0 42.5 -6.5t36.5 -20t25.5 -33.5t9.5 -48zM82 42q17 -27 52 -27q20 0 36 9.5t26.5 25t15.5 34.5q3 10 5 21h-151v-3
q0 -33 16 -60zM201 181q-17 27 -52 27q-20 0 -35.5 -9.5t-26 -24.5t-16.5 -34q-2 -8 -3 -15h150q-1 31 -17 56z" />
    <glyph glyph-name="uni04E7" unicode="&#x4e7;" horiz-adv-x="302" 
d="M266 119q0 -31 -12 -54.5t-31 -39t-43 -23.5t-48 -8q-23 0 -43.5 6.5t-37 19.5t-26 33.5t-9.5 47.5q0 31 12 54.5t31.5 39.5t43.5 24t49 8q22 0 42.5 -6.5t36.5 -20t25.5 -33.5t9.5 -48zM218 122q0 33 -17 59.5t-52 26.5q-20 0 -35.5 -9.5t-26 -24.5t-16 -34t-5.5 -38
q0 -33 16.5 -60t51.5 -27q20 0 36 9.5t26.5 25t16 34.5t5.5 38zM243 304q0 -13 -8 -21.5t-19 -8.5t-19 8.5t-8 21.5q0 12 8 21t19 9t19 -9t8 -21zM150 304q0 -13 -8 -21.5t-19 -8.5t-19 8.5t-8 21.5q0 12 8 21t19 9t19 -9t8 -21z" />
    <glyph glyph-name="uni04EE" unicode="&#x4ee;" horiz-adv-x="911" 
d="M1031 793q-32 -3 -55 -31.5t-39 -66t-25 -76t-13 -62.5l-60 -338q-17 -96 -54.5 -163.5t-88.5 -113.5q-63 -57 -136.5 -81.5t-143.5 -24.5q-21 0 -53 4t-62 14.5t-51.5 29t-21.5 47.5q0 21 13.5 36t33 24t41 13.5t38.5 4.5q14 0 30 -2t30 -7l-5 -15q-11 3 -21 5t-21 2
q-14 0 -28 -3t-25 -10t-18.5 -17.5t-7.5 -26.5q0 -24 15 -39t36.5 -22.5t45.5 -10t41 -2.5q105 0 179.5 50.5t119.5 141.5q-23 -24 -53.5 -44t-65.5 -20q-31 0 -54 8t-46 19q-27 13 -61 24t-90 11q-27 0 -54 -2.5t-54 -6.5q-20 -2 -40 -2.5t-40 -0.5v16q94 0 174.5 26.5
t149.5 89.5q60 55 92.5 127.5t32.5 156.5q0 63 -23.5 118.5t-64.5 96.5t-96.5 64.5t-119.5 23.5q-52 0 -95 -17t-74.5 -47.5t-49 -74t-17.5 -95.5q0 -43 15.5 -79.5t43.5 -63.5t65 -42t81 -15q40 0 72 13t54.5 36.5t35 55.5t12.5 71h27q0 -42 -15.5 -79.5t-42.5 -65.5
t-63.5 -44t-79.5 -16q-49 0 -91.5 14.5t-74 42t-49.5 68t-18 92.5q0 62 24 114.5t64.5 90.5t95 59t114.5 21q70 0 130.5 -24t105 -67.5t70 -103t25.5 -129.5q0 -63 -20 -119.5t-54.5 -105t-81.5 -87t-101 -64.5q46 0 79.5 -12t62.5 -25q21 -10 40.5 -17t41.5 -7
q33 0 55.5 17.5t38 44t24.5 58.5t15 62l48 264q4 25 11.5 58.5t19 70t27.5 72t37.5 63.5t49 45.5t61.5 17.5v-16zM865 847h-224l8 47h224z" />
    <glyph glyph-name="uni04F0" unicode="&#x4f0;" horiz-adv-x="911" 
d="M1031 793q-32 -3 -55 -31.5t-39 -66t-25 -76t-13 -62.5l-60 -338q-17 -96 -54.5 -163.5t-88.5 -113.5q-63 -57 -136.5 -81.5t-143.5 -24.5q-21 0 -53 4t-62 14.5t-51.5 29t-21.5 47.5q0 21 13.5 36t33 24t41 13.5t38.5 4.5q14 0 30 -2t30 -7l-5 -15q-11 3 -21 5t-21 2
q-14 0 -28 -3t-25 -10t-18.5 -17.5t-7.5 -26.5q0 -24 15 -39t36.5 -22.5t45.5 -10t41 -2.5q105 0 179.5 50.5t119.5 141.5q-23 -24 -53.5 -44t-65.5 -20q-31 0 -54 8t-46 19q-27 13 -61 24t-90 11q-27 0 -54 -2.5t-54 -6.5q-20 -2 -40 -2.5t-40 -0.5v16q94 0 174.5 26.5
t149.5 89.5q60 55 92.5 127.5t32.5 156.5q0 63 -23.5 118.5t-64.5 96.5t-96.5 64.5t-119.5 23.5q-52 0 -95 -17t-74.5 -47.5t-49 -74t-17.5 -95.5q0 -43 15.5 -79.5t43.5 -63.5t65 -42t81 -15q40 0 72 13t54.5 36.5t35 55.5t12.5 71h27q0 -42 -15.5 -79.5t-42.5 -65.5
t-63.5 -44t-79.5 -16q-49 0 -91.5 14.5t-74 42t-49.5 68t-18 92.5q0 62 24 114.5t64.5 90.5t95 59t114.5 21q70 0 130.5 -24t105 -67.5t70 -103t25.5 -129.5q0 -63 -20 -119.5t-54.5 -105t-81.5 -87t-101 -64.5q46 0 79.5 -12t62.5 -25q21 -10 40.5 -17t41.5 -7
q33 0 55.5 17.5t38 44t24.5 58.5t15 62l48 264q4 25 11.5 58.5t19 70t27.5 72t37.5 63.5t49 45.5t61.5 17.5v-16zM849 876q0 -15 -9.5 -25.5t-23.5 -10.5t-23.5 10.5t-9.5 25.5t9.5 26t23.5 11t23.5 -11t9.5 -26zM720 876q0 -15 -9.5 -25.5t-23.5 -10.5t-23.5 10.5
t-9.5 25.5t9.5 26t23.5 11t23.5 -11t9.5 -26z" />
    <glyph glyph-name="uni04F2" unicode="&#x4f2;" horiz-adv-x="911" 
d="M1031 793q-32 -3 -55 -31.5t-39 -66t-25 -76t-13 -62.5l-60 -338q-17 -96 -54.5 -163.5t-88.5 -113.5q-63 -57 -136.5 -81.5t-143.5 -24.5q-21 0 -53 4t-62 14.5t-51.5 29t-21.5 47.5q0 21 13.5 36t33 24t41 13.5t38.5 4.5q14 0 30 -2t30 -7l-5 -15q-11 3 -21 5t-21 2
q-14 0 -28 -3t-25 -10t-18.5 -17.5t-7.5 -26.5q0 -24 15 -39t36.5 -22.5t45.5 -10t41 -2.5q105 0 179.5 50.5t119.5 141.5q-23 -24 -53.5 -44t-65.5 -20q-31 0 -54 8t-46 19q-27 13 -61 24t-90 11q-27 0 -54 -2.5t-54 -6.5q-20 -2 -40 -2.5t-40 -0.5v16q94 0 174.5 26.5
t149.5 89.5q60 55 92.5 127.5t32.5 156.5q0 63 -23.5 118.5t-64.5 96.5t-96.5 64.5t-119.5 23.5q-52 0 -95 -17t-74.5 -47.5t-49 -74t-17.5 -95.5q0 -43 15.5 -79.5t43.5 -63.5t65 -42t81 -15q40 0 72 13t54.5 36.5t35 55.5t12.5 71h27q0 -42 -15.5 -79.5t-42.5 -65.5
t-63.5 -44t-79.5 -16q-49 0 -91.5 14.5t-74 42t-49.5 68t-18 92.5q0 62 24 114.5t64.5 90.5t95 59t114.5 21q70 0 130.5 -24t105 -67.5t70 -103t25.5 -129.5q0 -63 -20 -119.5t-54.5 -105t-81.5 -87t-101 -64.5q46 0 79.5 -12t62.5 -25q21 -10 40.5 -17t41.5 -7
q33 0 55.5 17.5t38 44t24.5 58.5t15 62l48 264q4 25 11.5 58.5t19 70t27.5 72t37.5 63.5t49 45.5t61.5 17.5v-16zM896 896q0 -13 -12 -22.5t-22 -15.5l-96 -64h-25l88 93l23.5 23t22.5 9q10 0 15.5 -7t5.5 -16zM769 896q0 -13 -11.5 -22.5t-21.5 -15.5l-97 -64h-25l88 93
q14 14 24 23t22 9q10 0 15.5 -7t5.5 -16z" />
    <glyph glyph-name="uni04F4" unicode="&#x4f4;" horiz-adv-x="928" 
d="M876 685q8 29 11 58t5 59h84l-21.5 -53.5t-19.5 -62.5l-150 -600q-5 -22 -5 -32q0 -7 2.5 -15t12.5 -8t21 5.5t21 14t19 17.5l16 16l12 -11l-25.5 -26.5t-31 -26.5t-34.5 -20.5t-35 -8.5q-23 0 -33 15.5t-10 35.5q0 26 5 44l88 341q-20 -29 -46.5 -58.5t-58.5 -54.5
t-69.5 -42t-78.5 -21q-56 -5 -97 8t-69 39t-42.5 62t-15.5 76t10 81t34 78q29 45 71 84.5t90 76.5h-62q-90 0 -165 -25.5t-132 -68.5q-60 -46 -94 -104.5t-34 -121.5q0 -51 18 -95t51 -73t80 -39.5t106 5.5l5 -16q-71 -18 -123.5 -5t-87.5 46.5t-52 83t-17 105.5
q0 72 33 137.5t96 116.5q58 46 136 73t175 27h127l-7 -30q-54 -34 -98.5 -82t-69.5 -105q-14 -32 -20 -68.5t-3.5 -72t15 -66.5t35.5 -53.5t57 -32.5t80 -2q42 5 81 28t72 56t57.5 73t37.5 81zM859 884q0 -15 -9.5 -25.5t-23.5 -10.5t-23.5 10.5t-9.5 25.5t9.5 26t23.5 11
t23.5 -11t9.5 -26zM730 884q0 -15 -9.5 -25.5t-23.5 -10.5t-23.5 10.5t-9.5 25.5t9.5 26t23.5 11t23.5 -11t9.5 -26z" />
    <glyph glyph-name="uni04F8" unicode="&#x4f8;" horiz-adv-x="1254" 
d="M1265 801q-60 -60 -110.5 -132.5t-88 -152.5t-58.5 -166t-21 -174q0 -77 28.5 -123.5t96.5 -46.5q32 0 65.5 22.5t52.5 65.5l15 -16l-20 -25t-33.5 -32t-47.5 -27.5t-62 -11.5q-83 0 -126.5 54t-43.5 144q0 57 14 121t48 135.5t89.5 150.5t138.5 167q-26 -6 -67 -49
t-92 -105.5l-108.5 -134.5t-115.5 -136q0 -3 0.5 -5.5t0.5 -5.5q1 -61 -27.5 -120t-80.5 -105.5t-125 -75t-162 -29.5q-51 0 -94 18t-75.5 48.5t-52.5 72.5t-26 90q-5 97 26 181t84.5 152.5t123 121t141.5 87.5h-68q-43 2 -91 -5.5t-95 -24.5t-89.5 -42.5t-73.5 -58.5
q-30 -31 -48 -71t-22 -82.5t9 -85t46 -78.5l-12 -11q-44 43 -56 99.5t-0.5 113t42.5 108t75 86.5q57 45 136.5 70.5t173.5 25.5v2h214l2 -16q-109 -28 -189.5 -79t-136.5 -117q-63 -74 -93 -160t-30 -178q0 -47 11 -91t34 -78.5t60 -55.5t90 -21q66 0 116.5 21t86.5 54.5
t58.5 75.5t33.5 85q-1 -1 -1.5 -1t-1.5 -1q-31 -28 -72.5 -43.5t-84 -17.5t-79.5 10.5t-59 40.5q-21 27 -27 60t1 65.5t24.5 63t43.5 54.5t58.5 38t69.5 14t72 -13t62.5 -35.5t47 -54t26.5 -68.5l75.5 90l79.5 98l79.5 95.5t74.5 82t65 57.5t52 22zM745 324q0 55 -28 96
t-69 59t-87 9t-83 -52q-35 -42 -41.5 -91t17.5 -87q15 -23 42.5 -37.5t64 -16t80 13t88.5 51.5q3 2 6.5 5.5l6.5 6.5q3 22 3 43zM1018 877q0 -15 -9.5 -25.5t-23.5 -10.5t-23.5 10.5t-9.5 25.5t9.5 26t23.5 11t23.5 -11t9.5 -26zM889 877q0 -15 -9.5 -25.5t-23.5 -10.5
t-23.5 10.5t-9.5 25.5t9.5 26t23.5 11t23.5 -11t9.5 -26z" />
    <glyph glyph-name="uni04F9" unicode="&#x4f9;" horiz-adv-x="447" 
d="M106 107q17 22 40 36t46.5 19.5t43.5 1.5t30 -19q9 -12 10 -29t-6.5 -34.5t-24.5 -34.5t-45 -30q-38 -16 -62 -20t-48 0q-17 3 -26 10t-13 17t-4 21t2 22l28 107q1 4 1.5 6.5t0.5 4.5q0 7 -4 7t-12 -6t-16 -14l-15 -15t-9 -10l-13 11q7 7 17.5 18.5t23 22t25 18t23.5 7.5
q17 0 22 -9.5t5 -22.5q0 -6 -2 -16t-5 -22zM182 31q16 7 26.5 18.5t16 24.5t6 26t-3.5 23q-8 16 -25 17t-36 -7.5t-36 -22.5t-24 -29q-8 -19 -9 -34t6.5 -23.5t24.5 -8t46 12.5zM427 67q-5 -10 -13 -22t-18 -23t-21.5 -18.5t-23.5 -7.5q-14 0 -22 11t-8 25q0 9 1.5 17.5
t3.5 17.5l26 107q1 4 1.5 6.5t0.5 4.5q0 7 -4 7q-3 0 -10.5 -6t-15 -14l-14 -15t-8.5 -10l-12 11l16 18.5t21 22t23 18t22 7.5q16 0 20.5 -9.5t4.5 -22.5q0 -6 -2 -16t-5 -22l-20 -78l-4 -18t-2 -14q0 -13 10 -13q5 0 10.5 5.5t11 12.5t10 14.5t7.5 11.5zM320 304
q0 -13 -8 -21.5t-19 -8.5t-19 8.5t-8 21.5q0 12 8 21t19 9t19 -9t8 -21zM227 304q0 -13 -8 -21.5t-19 -8.5t-19 8.5t-8 21.5q0 12 8 21t19 9t19 -9t8 -21z" />
    <glyph glyph-name="uni04F5" unicode="&#x4f5;" horiz-adv-x="283" 
d="M197 180q-20 -13 -44.5 -25.5t-47 -18t-38.5 -0.5t-17 27l-28 -38l-14 10l52 79h41q-16 -29 -6 -38.5t33.5 -5.5t54 17t54.5 29l19 -14q-15 -9 -31 -21.5t-31.5 -27t-28.5 -29.5t-22 -29q-7 -11 -10.5 -26.5t0.5 -27.5t17 -18t39 2q17 5 34 17.5t30 26.5l15 -14
q-15 -17 -35.5 -29t-42.5 -20q-35 -11 -66 -8t-44 29q-4 18 0 33.5t17.5 32t38 36.5l61.5 48v3zM247 304q0 -13 -8 -21.5t-19 -8.5t-19 8.5t-8 21.5q0 12 8 21t19 9t19 -9t8 -21zM154 304q0 -13 -8 -21.5t-19 -8.5t-19 8.5t-8 21.5q0 12 8 21t19 9t19 -9t8 -21z" />
    <glyph glyph-name="uni04F3" unicode="&#x4f3;" horiz-adv-x="301" 
d="M236 23q-7 -29 -21 -59.5t-35 -56t-48.5 -42t-60.5 -16.5q-17 0 -27 9t-10 24q0 25 16.5 46t40 36t50 24.5t47.5 12.5l21 82q-11 -15 -24.5 -30.5t-29.5 -28t-34 -20.5t-38 -8t-33.5 11.5t-13.5 32.5q0 12 1 15l23 107q0 1 1 5t1 9q0 7 -4 7t-8.5 -4.5t-9 -10t-8.5 -11.5
l-6 -9l-14 8q5 9 12 20.5t16 21t19.5 16.5t22.5 7q15 0 20 -10t5 -23q0 -21 -5 -36l-22 -106q-2 -8 -2 -10q0 -8 4.5 -14t13.5 -6q21 0 43 16t40 39.5t31.5 49t18.5 45.5l13 51h43zM183 -17q-16 -3 -37 -10.5t-39.5 -19t-31.5 -27.5t-13 -36q0 -21 24 -21q18 0 34 12.5
t28 30.5t21 37.5t14 33.5zM284 353q5 -10 -1.5 -17t-12.5 -12l-57 -48h-20l40 70q7 11 12 17.5t15 6.5q8 0 14.5 -5t9.5 -12zM182 353q5 -10 -1.5 -17t-12.5 -12l-57 -48h-20l40 70q7 11 12 17.5t15 6.5q8 0 14.5 -5t9.5 -12z" />
    <glyph glyph-name="uni04F1" unicode="&#x4f1;" horiz-adv-x="301" 
d="M236 23q-7 -29 -21 -59.5t-35 -56t-48.5 -42t-60.5 -16.5q-17 0 -27 9t-10 24q0 25 16.5 46t40 36t50 24.5t47.5 12.5l21 82q-11 -15 -24.5 -30.5t-29.5 -28t-34 -20.5t-38 -8t-33.5 11.5t-13.5 32.5q0 12 1 15l23 107q0 1 1 5t1 9q0 7 -4 7t-8.5 -4.5t-9 -10t-8.5 -11.5
l-6 -9l-14 8q5 9 12 20.5t16 21t19.5 16.5t22.5 7q15 0 20 -10t5 -23q0 -21 -5 -36l-22 -106q-2 -8 -2 -10q0 -8 4.5 -14t13.5 -6q21 0 43 16t40 39.5t31.5 49t18.5 45.5l13 51h43zM183 -17q-16 -3 -37 -10.5t-39.5 -19t-31.5 -27.5t-13 -36q0 -21 24 -21q18 0 34 12.5
t28 30.5t21 37.5t14 33.5zM255 304q0 -13 -8 -21.5t-19 -8.5t-19 8.5t-8 21.5q0 12 8 21t19 9t19 -9t8 -21zM162 304q0 -13 -8 -21.5t-19 -8.5t-19 8.5t-8 21.5q0 12 8 21t19 9t19 -9t8 -21z" />
    <glyph glyph-name="uni04EF" unicode="&#x4ef;" horiz-adv-x="301" 
d="M236 23q-7 -29 -21 -59.5t-35 -56t-48.5 -42t-60.5 -16.5q-17 0 -27 9t-10 24q0 25 16.5 46t40 36t50 24.5t47.5 12.5l21 82q-11 -15 -24.5 -30.5t-29.5 -28t-34 -20.5t-38 -8t-33.5 11.5t-13.5 32.5q0 12 1 15l23 107q0 1 1 5t1 9q0 7 -4 7t-8.5 -4.5t-9 -10t-8.5 -11.5
l-6 -9l-14 8q5 9 12 20.5t16 21t19.5 16.5t22.5 7q15 0 20 -10t5 -23q0 -21 -5 -36l-22 -106q-2 -8 -2 -10q0 -8 4.5 -14t13.5 -6q21 0 43 16t40 39.5t31.5 49t18.5 45.5l13 51h43zM183 -17q-16 -3 -37 -10.5t-39.5 -19t-31.5 -27.5t-13 -36q0 -21 24 -21q18 0 34 12.5
t28 30.5t21 37.5t14 33.5zM256 284h-154l8 39h154z" />
    <glyph glyph-name="afii61352" unicode="&#x2116;" horiz-adv-x="1288" 
d="M1289 798l-23 -81.5t-26 -77t-37.5 -71t-58.5 -63.5q-28 -23 -59.5 -40t-64.5 -25q-12 -43 -28 -90.5t-37.5 -93.5t-49 -89t-62 -78t-76.5 -59.5t-92 -33.5q42 76 70.5 151t36.5 163q5 57 14 119t26 125q14 54 34.5 103.5t48.5 88.5q-54 -21 -93 -64.5t-66.5 -98.5
t-45.5 -113.5t-31 -109.5q45 -39 66 -92l-15 -6q-18 47 -56 80q-20 -71 -57 -134.5t-89 -111.5t-118 -76t-144 -28q-60 0 -104 13t-72.5 34.5t-42 51t-13.5 62.5q0 48 27 98t77.5 91t123 67.5t164.5 26.5q64 0 121 -12.5t99 -38.5q12 42 26 85t33 83.5t43.5 78t57.5 69.5
q46 43 95.5 64.5t100.5 36.5l8 -13q-48 -45 -75 -102t-44 -120t-25 -128l-15 -125q-8 -69 -25.5 -135t-49.5 -127q60 37 120 127q33 51 62 115t50 142q-8 -1 -16 -1.5t-16 -0.5t-14.5 0.5t-14.5 1.5l2 17q5 -1 10.5 -1.5t16.5 -0.5q9 0 18.5 1t18.5 3l3 9l17.5 68.5
t20.5 65.5t29.5 62t43.5 58q64 70 154 91zM1223 767q-47 -18 -79.5 -51.5t-55 -75.5t-37 -88.5t-26.5 -90.5q57 19 91.5 51t55.5 72t31.5 87t19.5 96zM630 364q-36 25 -89 36.5t-113 11.5q-86 0 -155.5 -24.5t-119 -63t-76 -85t-26.5 -89.5q0 -28 11.5 -53t36.5 -44
t63.5 -30t91.5 -11q79 0 140 29.5t106.5 78.5t77 112.5t52.5 131.5zM1176 89h-150l8 33h150zM1221 306q0 -24 -8.5 -49.5t-23.5 -47.5t-37 -36t-49 -14q-29 0 -44 20.5t-15 47.5l-1 4q0 23 8 49t22.5 47.5t35.5 36t47 14.5q27 0 45.5 -20.5t19.5 -47.5v-4zM1177 278
q0 9 -2.5 20t-7.5 20.5t-13 16t-18 6.5q-14 0 -24 -9t-16.5 -22t-10 -28t-3.5 -27q0 -19 10.5 -37.5t32.5 -18.5q13 0 23 8t16.5 20t9.5 26t3 25z" />
    <glyph glyph-name="NULL" horiz-adv-x="0" 
 />
    <glyph glyph-name="NULL" horiz-adv-x="0" 
 />
    </font>
</defs>
</svg>
